<svg xmlns="http://www.w3.org/2000/svg" xmlns:xlink="http://www.w3.org/1999/xlink" contentStyleType="text/css" data-diagram-type="DESCRIPTION" height="1492px" preserveAspectRatio="none" style="width:1077px;height:1492px;background:#FFFFFF;" version="1.1" viewBox="0 0 1077 1492" width="1077px" zoomAndPan="magnify"><defs/><g><!--cluster ????--><g class="cluster" data-entity="...." data-source-line="23" data-uid="ent0003" id="cluster_...."><rect fill="#FFFFFF" height="1239.93" rx="2.5" ry="2.5" style="stroke:#424242;stroke-width:1;stroke-dasharray:7,7;" width="647" x="7" y="106.3"/><path d="M72.9998,106.3 L72.9998,115.5969 L62.9998,125.5969 L7,125.5969" fill="none" style="stroke:#424242;stroke-width:1;stroke-dasharray:7,7;"/><text fill="#000000" font-family="sans-serif" font-size="14" font-weight="bold" lengthAdjust="spacing" textLength="55.9998" x="10" y="120.2951">&#21518;&#31471;&#26550;&#26500;</text></g><!--cluster Routes--><g class="cluster" data-entity="Routes" data-source-line="27" data-uid="ent0005" id="cluster_Routes"><rect fill="#E3F2FD" height="151.59" rx="5" ry="5" style="stroke:#000000;stroke-width:1;" width="212" x="357" y="282.01"/><text fill="#000000" font-family="sans-serif" font-size="14" font-style="italic" lengthAdjust="spacing" textLength="61.1611" x="432.4194" y="297.0051">&#171;layer1&#187;</text><text fill="#000000" font-family="sans-serif" font-size="14" font-weight="bold" lengthAdjust="spacing" textLength="103.6533" x="411.1733" y="313.302">Routes Layer</text><text fill="#000000" font-family="sans-serif" font-size="14" font-weight="bold" lengthAdjust="spacing" textLength="41.9998" x="442.0001" y="329.5989">&#36335;&#30001;&#23618;</text></g><!--cluster Middlewares--><g class="cluster" data-entity="Middlewares" data-source-line="31" data-uid="ent0007" id="cluster_Middlewares"><rect fill="#E1BEE7" height="151.6" rx="5" ry="5" style="stroke:#000000;stroke-width:1;" width="236" x="333" y="498.6"/><text fill="#000000" font-family="sans-serif" font-size="14" font-style="italic" lengthAdjust="spacing" textLength="99.333" x="401.3335" y="513.5951">&#171;middleware&#187;</text><text fill="#000000" font-family="sans-serif" font-size="14" font-weight="bold" lengthAdjust="spacing" textLength="140.6152" x="380.6924" y="529.892">Middleware Layer</text><text fill="#000000" font-family="sans-serif" font-size="14" font-weight="bold" lengthAdjust="spacing" textLength="55.9998" x="423.0001" y="546.1889">&#20013;&#38388;&#20214;&#23618;</text></g><!--cluster Controllers--><g class="cluster" data-entity="Controllers" data-source-line="35" data-uid="ent0009" id="cluster_Controllers"><rect fill="#C5E1A5" height="151.59" rx="5" ry="5" style="stroke:#000000;stroke-width:1;" width="224" x="303" y="715.2"/><text fill="#000000" font-family="sans-serif" font-size="14" font-style="italic" lengthAdjust="spacing" textLength="61.1611" x="384.4194" y="730.1951">&#171;layer2&#187;</text><text fill="#000000" font-family="sans-serif" font-size="14" font-weight="bold" lengthAdjust="spacing" textLength="127.8389" x="351.0806" y="746.492">Controller Layer</text><text fill="#000000" font-family="sans-serif" font-size="14" font-weight="bold" lengthAdjust="spacing" textLength="55.9998" x="387.0001" y="762.7889">&#25511;&#21046;&#22120;&#23618;</text></g><!--cluster Services--><g class="cluster" data-entity="Services" data-source-line="39" data-uid="ent0011" id="cluster_Services"><rect fill="#FFF9C4" height="135.3" rx="5" ry="5" style="stroke:#000000;stroke-width:1;" width="215" x="317" y="931.79"/><text fill="#000000" font-family="sans-serif" font-size="14" font-style="italic" lengthAdjust="spacing" textLength="61.1611" x="393.9194" y="946.7851">&#171;layer3&#187;</text><text fill="#000000" font-family="sans-serif" font-size="14" font-weight="bold" lengthAdjust="spacing" textLength="106.9688" x="371.0156" y="963.082">Service Layer</text><text fill="#000000" font-family="sans-serif" font-size="14" font-weight="bold" lengthAdjust="spacing" textLength="41.9998" x="403.5001" y="979.3789">&#26381;&#21153;&#23618;</text></g><!--cluster Utils--><g class="cluster" data-entity="Utils" data-source-line="43" data-uid="ent0013" id="cluster_Utils"><rect fill="#F5F5F5" height="167.89" rx="5" ry="5" style="stroke:#000000;stroke-width:1;" width="258" x="364" y="1146.34"/><text fill="#000000" font-family="sans-serif" font-size="14" font-style="italic" lengthAdjust="spacing" textLength="46.5664" x="469.7168" y="1161.3351">&#171;utils&#187;</text><text fill="#000000" font-family="sans-serif" font-size="14" font-weight="bold" lengthAdjust="spacing" textLength="117.0518" x="434.4741" y="1177.632">Utils &amp; Configs</text><text fill="#000000" font-family="sans-serif" font-size="14" font-weight="bold" lengthAdjust="spacing" textLength="69.9997" x="458.0002" y="1193.9289">&#24037;&#20855;&#19982;&#37197;&#32622;</text></g><!--cluster DataAccess--><g class="cluster" data-entity="DataAccess" data-source-line="47" data-uid="ent0015" id="cluster_DataAccess"><rect fill="#FFCCBC" height="151.59" rx="5" ry="5" style="stroke:#000000;stroke-width:1;" width="285" x="39" y="1154.49"/><text fill="#000000" font-family="sans-serif" font-size="14" font-style="italic" lengthAdjust="spacing" textLength="61.1611" x="150.9194" y="1169.4851">&#171;layer4&#187;</text><text fill="#000000" font-family="sans-serif" font-size="14" font-weight="bold" lengthAdjust="spacing" textLength="144.4434" x="109.2783" y="1185.782">Data Access Layer</text><text fill="#000000" font-family="sans-serif" font-size="14" font-weight="bold" lengthAdjust="spacing" textLength="69.9997" x="146.5002" y="1202.0789">&#25968;&#25454;&#35775;&#38382;&#23618;</text></g><!--entity App--><g class="entity" data-entity="App" data-source-line="25" data-uid="ent0004" id="entity_App"><rect fill="#E0E0E0" height="68.8906" rx="5" ry="5" style="stroke:#000000;stroke-width:0.5;" width="150.8467" x="485.58" y="141.3"/><text fill="#000000" font-family="sans-serif" font-size="14" font-style="italic" lengthAdjust="spacing" textLength="54.1475" x="533.9296" y="164.2951">&#171;entry&#187;</text><text fill="#000000" font-family="sans-serif" font-size="14" lengthAdjust="spacing" textLength="43.5859" x="495.58" y="180.592">app.ts</text><text fill="#000000" font-family="sans-serif" font-size="14" lengthAdjust="spacing" textLength="130.8467" x="495.58" y="196.8889">(Application Entry)</text></g><!--entity advertise.route.ts\nupload.route.ts--><g class="entity" data-entity="advertise.route.ts.nupload.route.ts" data-source-line="28" data-uid="ent0006" id="entity_advertise.route.ts.nupload.route.ts"><rect fill="#F1F1F1" height="52.5938" rx="5" ry="5" style="stroke:#000000;stroke-width:0.5;" width="144.3867" x="380.81" y="357.01"/><text fill="#000000" font-family="sans-serif" font-size="14" lengthAdjust="spacing" textLength="124.3867" x="390.81" y="380.0051">advertise.route.ts</text><text fill="#000000" font-family="sans-serif" font-size="14" lengthAdjust="spacing" textLength="106.6611" x="390.81" y="396.302">upload.route.ts</text></g><!--entity validator.middleware\nupload.middleware--><g class="entity" data-entity="validator.middleware.nupload.middleware" data-source-line="32" data-uid="ent0008" id="entity_validator.middleware.nupload.middleware"><rect fill="#F1F1F1" height="52.5938" rx="5" ry="5" style="stroke:#000000;stroke-width:0.5;" width="168.5723" x="356.71" y="573.6"/><text fill="#000000" font-family="sans-serif" font-size="14" lengthAdjust="spacing" textLength="148.5723" x="366.71" y="596.5951">validator.middleware</text><text fill="#000000" font-family="sans-serif" font-size="14" lengthAdjust="spacing" textLength="134.333" x="366.71" y="612.892">upload.middleware</text></g><!--entity advertise.controller\nupload.controller--><g class="entity" data-entity="advertise.controller.nupload.controller" data-source-line="36" data-uid="ent0010" id="entity_advertise.controller.nupload.controller"><rect fill="#F1F1F1" height="52.5938" rx="5" ry="5" style="stroke:#000000;stroke-width:0.5;" width="156.9512" x="326.52" y="790.2"/><text fill="#000000" font-family="sans-serif" font-size="14" lengthAdjust="spacing" textLength="136.9512" x="336.52" y="813.1951">advertise.controller</text><text fill="#000000" font-family="sans-serif" font-size="14" lengthAdjust="spacing" textLength="119.2256" x="336.52" y="829.492">upload.controller</text></g><!--entity advertise.services--><g class="entity" data-entity="advertise.services" data-source-line="40" data-uid="ent0012" id="entity_advertise.services"><rect fill="#F1F1F1" height="36.2969" rx="5" ry="5" style="stroke:#000000;stroke-width:0.5;" width="147.2988" x="341.35" y="1006.79"/><text fill="#000000" font-family="sans-serif" font-size="14" lengthAdjust="spacing" textLength="127.2988" x="351.35" y="1029.7851">advertise.services</text></g><!--entity rankHelper (??)\ndataHelper (????)\nAdFormConfig (????)--><g class="entity" data-entity="rankHelper .....ndataHelper .......nAdFormConfig ......" data-source-line="44" data-uid="ent0014" id="entity_rankHelper .....ndataHelper .......nAdFormConfig ......"><rect fill="#F1F1F1" height="68.8906" rx="5" ry="5" style="stroke:#000000;stroke-width:0.5;" width="190.7683" x="387.62" y="1221.34"/><text fill="#000000" font-family="sans-serif" font-size="14" lengthAdjust="spacing" textLength="120.9755" x="397.62" y="1244.3351">rankHelper (&#25490;&#24207;)</text><text fill="#000000" font-family="sans-serif" font-size="14" lengthAdjust="spacing" textLength="149.1941" x="397.62" y="1260.632">dataHelper (&#25968;&#25454;&#22788;&#29702;)</text><text fill="#000000" font-family="sans-serif" font-size="14" lengthAdjust="spacing" textLength="170.7683" x="397.62" y="1276.9289">AdFormConfig (&#34920;&#21333;&#37197;&#32622;)</text></g><!--entity utils/dataHelper.ts\n(readFromJson, writeToJson)--><g class="entity" data-entity="utils.dataHelper.ts.n.readFromJson. writeToJson." data-source-line="48" data-uid="ent0016" id="entity_utils.dataHelper.ts.n.readFromJson. writeToJson."><rect fill="#F1F1F1" height="52.5938" rx="5" ry="5" style="stroke:#000000;stroke-width:0.5;" width="217.709" x="63.15" y="1229.49"/><text fill="#000000" font-family="sans-serif" font-size="14" lengthAdjust="spacing" textLength="129.2061" x="73.15" y="1252.4851">utils/dataHelper.ts</text><text fill="#000000" font-family="sans-serif" font-size="14" lengthAdjust="spacing" textLength="197.709" x="73.15" y="1268.782">(readFromJson, writeToJson)</text></g><!--entity Client--><g class="entity" data-entity="Client" data-source-line="20" data-uid="ent0002" id="entity_Client"><rect fill="#F1F1F1" height="36.2969" rx="5" ry="5" style="stroke:#000000;stroke-width:0.5;" width="137.2568" x="492.37" y="7"/><text fill="#000000" font-family="sans-serif" font-size="14" lengthAdjust="spacing" textLength="117.2568" x="502.37" y="29.9951">Client / Frontend</text></g><!--entity DB--><g class="entity" data-entity="DB" data-source-line="52" data-uid="ent0017" id="entity_DB"><path d="M240.82,1423.45 C240.82,1413.45 316.0007,1413.45 316.0007,1413.45 C316.0007,1413.45 391.1813,1413.45 391.1813,1423.45 L391.1813,1465.0438 C391.1813,1475.0438 316.0007,1475.0438 316.0007,1475.0438 C316.0007,1475.0438 240.82,1475.0438 240.82,1465.0438 L240.82,1423.45" fill="#F1F1F1" style="stroke:#181818;stroke-width:0.5;"/><path d="M240.82,1423.45 C240.82,1433.45 316.0007,1433.45 316.0007,1433.45 C316.0007,1433.45 391.1813,1433.45 391.1813,1423.45" fill="none" style="stroke:#181818;stroke-width:0.5;"/><text fill="#000000" font-family="sans-serif" font-size="14" lengthAdjust="spacing" textLength="81.1016" x="250.82" y="1450.4451">File System</text><text fill="#000000" font-family="sans-serif" font-size="14" lengthAdjust="spacing" textLength="130.3613" x="250.82" y="1466.742">(db.json / uploads)</text></g><g class="entity" data-entity="GMN26" data-source-line="66" data-uid="ent0027" id="entity_GMN26"><path d="M671.64,140.48 L671.64,171.74 L636.75,175.74 L671.64,179.74 L671.64,211.0113 A0,0 0 0 0 671.64,211.0113 L854.3656,211.0113 A0,0 0 0 0 854.3656,211.0113 L854.3656,150.48 L844.3656,140.48 L671.64,140.48 A0,0 0 0 0 671.64,140.48" fill="#FEFFDD" style="stroke:#181818;stroke-width:0.5;"/><path d="M844.3656,140.48 L844.3656,150.48 L854.3656,150.48 L844.3656,140.48" fill="#FEFFDD" style="stroke:#181818;stroke-width:0.5;"/><text fill="#000000" font-family="sans-serif" font-size="13" font-weight="bold" lengthAdjust="spacing" textLength="39" x="677.64" y="157.5469">&#20837;&#21475;&#28857;</text><text fill="#000000" font-family="sans-serif" font-size="13" lengthAdjust="spacing" textLength="140.2452" x="677.64" y="172.6797">1. &#21021;&#22987;&#21270; Express App</text><text fill="#000000" font-family="sans-serif" font-size="13" lengthAdjust="spacing" textLength="161.7256" x="677.64" y="187.8125">2. &#37197;&#32622; CORS/BodyParser</text><text fill="#000000" font-family="sans-serif" font-size="13" lengthAdjust="spacing" textLength="94.5357" x="677.64" y="202.9453">3. &#27880;&#20876;&#36335;&#30001;&#27169;&#22359;</text></g><g class="entity" data-entity="GMN29" data-source-line="73" data-uid="ent0030" id="entity_GMN29"><path d="M669.84,564.63 L669.84,635.1613 L1070.1663,635.1613 L1070.1663,574.63 L1060.1663,564.63 L669.84,564.63" fill="#FEFFDD" style="stroke:#181818;stroke-width:0.5;"/><path d="M1060.1663,564.63 L1060.1663,574.63 L1070.1663,574.63 L1060.1663,564.63" fill="#FEFFDD" style="stroke:#181818;stroke-width:1;"/><text fill="#000000" font-family="sans-serif" font-size="13" font-weight="bold" lengthAdjust="spacing" textLength="143.0002" x="675.84" y="581.6969">&#32844;&#36131;&#65306;&#35831;&#27714;&#39044;&#22788;&#29702;&#19982;&#25318;&#25130;</text><ellipse cx="681.34" cy="592.3956" fill="#000000" rx="2.5" ry="2.5"/><text fill="#000000" font-family="sans-serif" font-size="13" font-weight="bold" lengthAdjust="spacing" textLength="67.3804" x="687.84" y="596.8297">Validator</text><text fill="#000000" font-family="sans-serif" font-size="13" lengthAdjust="spacing" textLength="299.9459" x="755.2204" y="596.8297">: &#26816;&#26597; req.body &#23383;&#27573;&#26684;&#24335; (Joi/Express-validator)</text><ellipse cx="681.34" cy="607.5284" fill="#000000" rx="2.5" ry="2.5"/><text fill="#000000" font-family="sans-serif" font-size="13" font-weight="bold" lengthAdjust="spacing" textLength="51.3271" x="687.84" y="611.9625">Upload</text><text fill="#000000" font-family="sans-serif" font-size="13" lengthAdjust="spacing" textLength="271.4196" x="739.1671" y="611.9625">: &#22788;&#29702; multipart/form-data&#65292;&#20445;&#23384;&#25991;&#20214;&#21040;&#30913;&#30424;</text><ellipse cx="681.34" cy="622.6613" fill="#000000" rx="2.5" ry="2.5"/><text fill="#000000" font-family="sans-serif" font-size="13" font-weight="bold" lengthAdjust="spacing" textLength="26" x="687.84" y="627.0953">&#36755;&#20986;</text><text fill="#000000" font-family="sans-serif" font-size="13" lengthAdjust="spacing" textLength="197.7614" x="713.84" y="627.0953">: &#33509;&#22833;&#36133;&#36820;&#22238; 400&#65292;&#25104;&#21151;&#21017; next()</text></g><g class="entity" data-entity="GMN32" data-source-line="80" data-uid="ent0033" id="entity_GMN32"><path d="M670.15,974.54 L670.15,1075.3369 L911.8484,1075.3369 L911.8484,984.54 L901.8484,974.54 L670.15,974.54" fill="#FEFFDD" style="stroke:#181818;stroke-width:0.5;"/><path d="M901.8484,974.54 L901.8484,984.54 L911.8484,984.54 L901.8484,974.54" fill="#FEFFDD" style="stroke:#181818;stroke-width:1;"/><text fill="#000000" font-family="sans-serif" font-size="13" font-weight="bold" lengthAdjust="spacing" textLength="117.0001" x="676.15" y="991.6069">&#32844;&#36131;&#65306;&#26680;&#24515;&#19994;&#21153;&#36923;&#36753;</text><ellipse cx="681.65" cy="1002.3056" fill="#000000" rx="2.5" ry="2.5"/><text fill="#000000" font-family="sans-serif" font-size="13" lengthAdjust="spacing" textLength="135.3448" x="688.15" y="1006.7397">&#32452;&#21512;&#25968;&#25454; (Ad + Rank)</text><ellipse cx="681.65" cy="1017.4384" fill="#000000" rx="2.5" ry="2.5"/><text fill="#000000" font-family="sans-serif" font-size="13" lengthAdjust="spacing" textLength="184.3234" x="688.15" y="1021.8725">&#35843;&#29992; rankHelper &#35745;&#31639;&#24191;&#21578;&#26435;&#37325;</text><ellipse cx="681.65" cy="1032.5713" fill="#000000" rx="2.5" ry="2.5"/><text fill="#000000" font-family="sans-serif" font-size="13" lengthAdjust="spacing" textLength="91.0001" x="688.15" y="1037.0053">&#36807;&#28388;&#19982;&#25490;&#24207;&#36923;&#36753;</text><ellipse cx="681.65" cy="1047.7041" fill="#000000" rx="2.5" ry="2.5"/><text fill="#000000" font-family="sans-serif" font-size="13" font-weight="bold" lengthAdjust="spacing" textLength="26" x="688.15" y="1052.1381">&#36755;&#20837;</text><text fill="#000000" font-family="sans-serif" font-size="13" lengthAdjust="spacing" textLength="125.5123" x="714.15" y="1052.1381">: &#32431;&#20928;&#30340;&#19994;&#21153;&#25968;&#25454;&#23545;&#35937;</text><ellipse cx="681.65" cy="1062.8369" fill="#000000" rx="2.5" ry="2.5"/><text fill="#000000" font-family="sans-serif" font-size="13" font-weight="bold" lengthAdjust="spacing" textLength="26" x="688.15" y="1067.271">&#36755;&#20986;</text><text fill="#000000" font-family="sans-serif" font-size="13" lengthAdjust="spacing" textLength="182.6983" x="714.15" y="1067.271">: &#19994;&#21153;&#22788;&#29702;&#32467;&#26524; (Promise&lt;T&gt;)</text></g><g class="entity" data-entity="GMN35" data-source-line="89" data-uid="ent0036" id="entity_GMN35"><path d="M670.24,1175.12 L670.24,1336.4481 L945.7525,1336.4481 L945.7525,1185.12 L935.7525,1175.12 L670.24,1175.12" fill="#FEFFDD" style="stroke:#181818;stroke-width:0.5;"/><path d="M935.7525,1175.12 L935.7525,1185.12 L945.7525,1185.12 L935.7525,1175.12" fill="#FEFFDD" style="stroke:#181818;stroke-width:1;"/><text fill="#000000" font-family="sans-serif" font-size="13" font-weight="bold" lengthAdjust="spacing" textLength="142.1622" x="676.24" y="1192.1869">&#32844;&#36131;&#65306;&#25968;&#25454;&#25345;&#20037;&#21270;&#19982; I/O</text><ellipse cx="681.74" cy="1202.8856" fill="#000000" rx="2.5" ry="2.5"/><text fill="#000000" font-family="sans-serif" font-size="13" font-weight="bold" lengthAdjust="spacing" textLength="101.8354" x="688.24" y="1207.3197">readFromJson</text><text fill="#000000" font-family="sans-serif" font-size="13" lengthAdjust="spacing" textLength="4.3799" x="790.0754" y="1207.3197">:</text><text fill="#000000" font-family="sans-serif" font-size="13" lengthAdjust="spacing" textLength="95.3355" x="684.5046" y="1222.4525">- &#36755;&#20837;: &#25991;&#20214;&#36335;&#24452;</text><text fill="#000000" font-family="sans-serif" font-size="13" lengthAdjust="spacing" textLength="207.4351" x="684.5046" y="1237.5853">- &#34892;&#20026;: fs.readFile -&gt; JSON.parse</text><text fill="#000000" font-family="sans-serif" font-size="13" lengthAdjust="spacing" textLength="217.6231" x="684.5046" y="1252.7181">- &#36755;&#20986;: Promise&lt;any[]&gt; (&#25968;&#25454;&#25968;&#32452;)</text><ellipse cx="681.74" cy="1263.4169" fill="#000000" rx="2.5" ry="2.5"/><text fill="#000000" font-family="sans-serif" font-size="13" font-weight="bold" lengthAdjust="spacing" textLength="86.4678" x="688.24" y="1267.851">writeToJson</text><text fill="#000000" font-family="sans-serif" font-size="13" lengthAdjust="spacing" textLength="4.3799" x="774.7078" y="1267.851">:</text><text fill="#000000" font-family="sans-serif" font-size="13" lengthAdjust="spacing" textLength="155.6003" x="684.5046" y="1282.9838">- &#36755;&#20837;: &#25991;&#20214;&#36335;&#24452;, &#25968;&#25454;&#23545;&#35937;</text><text fill="#000000" font-family="sans-serif" font-size="13" lengthAdjust="spacing" textLength="227.4239" x="684.5046" y="1298.1166">- &#34892;&#20026;: JSON.stringify -&gt; fs.writeFile</text><text fill="#000000" font-family="sans-serif" font-size="13" lengthAdjust="spacing" textLength="144.8155" x="684.5046" y="1313.2494">- &#36755;&#20986;: Promise&lt;void&gt;</text><ellipse cx="681.74" cy="1323.9481" fill="#000000" rx="2.5" ry="2.5"/><text fill="#000000" font-family="sans-serif" font-size="13" font-weight="bold" lengthAdjust="spacing" textLength="52.0001" x="688.24" y="1328.3822">&#24322;&#24120;&#22788;&#29702;</text><text fill="#000000" font-family="sans-serif" font-size="13" lengthAdjust="spacing" textLength="190.5124" x="740.2401" y="1328.3822">: &#25429;&#33719;&#25991;&#20214;&#19981;&#23384;&#22312;&#25110;&#35835;&#20889;&#26435;&#38480;&#38169;&#35823;</text></g><!--link Client to App--><g class="link" data-entity-1="Client" data-entity-2="App" data-source-line="55" data-uid="lnk18" id="link_Client_App"><path d="M561,43.78 C561,67.61 561,104.59 561,134.8" fill="none" id="Client-to-App" style="stroke:#181818;stroke-width:1;"/><polygon fill="#181818" points="561,140.8,565,131.8,561,135.8,557,131.8,561,140.8" style="stroke:#181818;stroke-width:1;"/><text fill="#000000" font-family="sans-serif" font-size="13" lengthAdjust="spacing" textLength="91.019" x="562" y="86.3669">HTTP Request</text></g><!--link App to Routes--><g class="link" data-entity-1="App" data-entity-2="Routes" data-source-line="56" data-uid="lnk19" id="link_App_Routes"><path d="M561,210.69 C561,225.0575 561,242.7469 561,261.253 C561,265.8795 561,270.5571 561,275.2465 C561,276.4189 561,277.592 561,278.7653 C561,279.3519 561,279.9385 561,280.5251 C561,280.8184 561,275.1117 561,275.405" fill="none" id="App-to-Routes" style="stroke:#181818;stroke-width:1;"/><polygon fill="#181818" points="561,281.405,565,272.405,561,276.405,557,272.405,561,281.405" style="stroke:#181818;stroke-width:1;"/><text fill="#000000" font-family="sans-serif" font-size="13" lengthAdjust="spacing" textLength="52.0001" x="562" y="254.0769">&#25346;&#36733;&#36335;&#30001;</text></g><!--link Routes to Middlewares--><g class="link" data-entity-1="Routes" data-entity-2="Middlewares" data-source-line="57" data-uid="lnk20" id="link_Routes_Middlewares"><path d="M561,433.6262 C561,434.3222 561,435.0229 561,435.7281 C561,441.3694 561,447.2965 561,453.4141 C561,465.6492 561,478.6462 561,491.6425 C561,493.267 561,494.8916 561,496.5146 C561,496.9203 561,497.326 561,497.7315 C561,497.9343 561,492.137 561,492.3397" fill="none" id="Routes-to-Middlewares" style="stroke:#181818;stroke-width:1;"/><polygon fill="#181818" points="561,498.3397,565,489.3397,561,493.3397,557,489.3397,561,498.3397" style="stroke:#181818;stroke-width:1;"/><text fill="#000000" font-family="sans-serif" font-size="13" lengthAdjust="spacing" textLength="52.0001" x="562" y="470.6669">&#36335;&#30001;&#21305;&#37197;</text></g><!--link Middlewares to Controllers--><g class="link" data-entity-1="Middlewares" data-entity-2="Controllers" data-source-line="58" data-uid="lnk21" id="link_Middlewares_Controllers"><path d="M551.348,650.2162 C551.2117,650.9122 551.0746,651.6129 550.9366,652.3181 C549.8324,657.9594 548.6723,663.8865 547.4749,670.0041 C545.0802,682.2392 542.5363,695.2362 539.9925,708.2325 C537.4488,721.2288 534.9052,734.2242 532.511,746.4563 C531.3139,752.5723 530.1542,758.4974 529.0506,764.1364 C528.4987,766.9559 527.9609,769.7038 527.4394,772.3683 C527.309,773.0344 528.3321,767.807 528.2038,768.4625" fill="none" id="Middlewares-to-Controllers" style="stroke:#181818;stroke-width:1;"/><polygon fill="#181818" points="527.0514,774.3508,532.7056,766.2867,528.0117,769.4439,524.8545,764.7501,527.0514,774.3508" style="stroke:#181818;stroke-width:1;"/><text fill="#000000" font-family="sans-serif" font-size="13" lengthAdjust="spacing" textLength="125.6837" x="547" y="687.2669">&#26657;&#39564;/&#19978;&#20256;&#25104;&#21151; (next)</text></g><!--link Controllers to Services--><g class="link" data-entity-1="Controllers" data-entity-2="Services" data-source-line="59" data-uid="lnk22" id="link_Controllers_Services"><path d="M520.1959,866.9621 C520.3275,872.3892 520.4657,878.0911 520.6084,883.9763 C520.8938,895.7467 521.1969,908.25 521.5,920.7525 C521.5758,923.8781 521.6516,927.0037 521.7271,930.1178 C521.7365,930.507 521.6005,924.8979 521.6099,925.2867" fill="none" id="Controllers-to-Services" style="stroke:#181818;stroke-width:1;"/><polygon fill="#181818" points="521.7554,931.285,525.536,922.1907,521.6342,926.2864,517.5384,922.3846,521.7554,931.285" style="stroke:#181818;stroke-width:1;"/><text fill="#000000" font-family="sans-serif" font-size="13" lengthAdjust="spacing" textLength="78.0001" x="522" y="903.8569">&#35843;&#29992;&#19994;&#21153;&#26041;&#27861;</text></g><!--link Services to Utils--><g class="link" data-entity-1="Services" data-entity-2="Utils" data-source-line="60" data-uid="lnk23" id="link_Services_Utils"><path d="M532.1037,1034.9894 C532.2543,1035.1632 532.4066,1035.3392 532.5606,1035.5175 C532.8687,1035.874 533.1834,1036.2394 533.5045,1036.6134 C538.6428,1042.5988 545.4256,1050.8113 552.7362,1060.5 C567.3575,1079.8775 584.09,1105.16 594,1130.34 C595.2625,1133.5469 596.4454,1136.8302 597.5536,1140.1684 C598.1077,1141.8375 598.6431,1143.5204 599.1606,1145.2142 C599.2253,1145.426 597.5533,1139.8946 597.6174,1140.1067" fill="none" id="Services-to-Utils" style="stroke:#181818;stroke-width:1;"/><polygon fill="#181818" points="599.3538,1145.8499,600.5781,1136.0775,597.9068,1141.0639,592.9204,1138.3926,599.3538,1145.8499" style="stroke:#181818;stroke-width:1;"/><text fill="#000000" font-family="sans-serif" font-size="13" lengthAdjust="spacing" textLength="108.38" x="591" y="1118.4069">&#24341;&#29992;&#36741;&#21161;&#31639;&#27861;/&#37197;&#32622;</text></g><!--link Services to DataAccess--><g class="link" data-entity-1="Services" data-entity-2="DataAccess" data-source-line="61" data-uid="lnk24" id="link_Services_DataAccess"><path d="M515.3726,1067.2461 C515.2888,1067.4342 515.2042,1067.6221 515.1188,1067.8095 C514.9479,1068.1845 514.7738,1068.5581 514.5963,1068.9301 C514.2413,1069.6741 513.8729,1070.4118 513.4906,1071.1417 C512.7261,1072.6015 511.906,1074.0298 511.0262,1075.4141 C509.2667,1078.1827 507.2687,1080.775 505,1083.09 C461.1,1127.89 418.13,1087.82 372,1130.34 C350.05,1150.57 336.14,1181.0325 327.6738,1206.7537 C326.6155,1209.9689 325.6422,1213.11 324.749,1216.1477 C324.5257,1216.9072 325.9574,1211.8915 325.744,1212.6375" fill="none" id="Services-to-DataAccess" style="stroke:#181818;stroke-width:1;"/><polygon fill="#181818" points="324.094,1218.4062,330.4147,1210.8532,325.469,1213.599,322.7232,1208.6532,324.094,1218.4062" style="stroke:#181818;stroke-width:1;"/><text fill="#000000" font-family="sans-serif" font-size="13" lengthAdjust="spacing" textLength="78.0001" x="464" y="1118.4069">&#35831;&#27714;&#25968;&#25454;&#23384;&#21462;</text></g><!--link DataAccess to DB--><g class="link" data-entity-1="DataAccess" data-entity-2="DB" data-source-line="62" data-uid="lnk25" id="link_DataAccess_DB"><path d="M316,1306.3161 C316,1306.5543 316,1306.793 316,1307.0321 C316,1307.5104 316,1307.9906 316,1308.4727 C316,1309.4368 316,1310.4084 316,1311.3869 C316,1313.3439 316,1315.3285 316,1317.3362 C316,1349.46 316,1381.51 316,1407.31" fill="none" id="DataAccess-to-DB" style="stroke:#181818;stroke-width:1;"/><polygon fill="#181818" points="316,1413.31,320,1404.31,316,1408.31,312,1404.31,316,1413.31" style="stroke:#181818;stroke-width:1;"/><text fill="#000000" font-family="sans-serif" font-size="13" lengthAdjust="spacing" textLength="151.252" x="317" y="1379.5169">fs.readFile / fs.writeFile</text></g><!--link Middlewares to GMN29--><g class="link" data-entity-1="Middlewares" data-entity-2="GMN29" data-source-line="73" data-uid="lnk31" id="link_Middlewares_GMN29"><path d="M569.1811,599.9 C569.4619,599.9 569.7427,599.9 570.0234,599.9 C570.585,599.9 571.1466,599.9 571.7081,599.9 C572.8313,599.9 573.9544,599.9 575.0775,599.9 C579.57,599.9 584.0625,599.9 588.555,599.9 C597.54,599.9 606.525,599.9 615.51,599.9 C633.48,599.9 651.45,599.9 669.42,599.9" fill="none" id="Middlewares-GMN29" style="stroke:#181818;stroke-width:1;stroke-dasharray:7,7;"/></g><!--link Services to GMN32--><g class="link" data-entity-1="Services" data-entity-2="GMN32" data-source-line="80" data-uid="lnk34" id="link_Services_GMN32"><path d="M532.1473,1024.94 C532.3362,1024.94 532.5251,1024.94 532.714,1024.94 C533.0918,1024.94 533.4696,1024.94 533.8474,1024.94 C536.8698,1024.94 539.8922,1024.94 542.9146,1024.94 C548.9593,1024.94 555.0039,1024.94 561.0484,1024.94 C573.1375,1024.94 585.2263,1024.94 597.315,1024.94 C621.4925,1024.94 645.67,1024.94 669.85,1024.94" fill="none" id="Services-GMN32" style="stroke:#181818;stroke-width:1;stroke-dasharray:7,7;"/></g><!--link DataAccess to GMN35--><g class="link" data-entity-1="DataAccess" data-entity-2="GMN35" data-source-line="89" data-uid="lnk37" id="link_DataAccess_GMN35"><path d="M324.0616,1207.938 C324.1785,1207.471 324.2969,1207.0022 324.4171,1206.5318 C324.8976,1204.6502 325.4043,1202.7422 325.9387,1200.8132 C327.0075,1196.955 328.1869,1193.0125 329.4875,1189.0275 C339.8925,1157.1475 358.06,1122.55 389.5,1106.71 C433.76,1084.42 565.55,1090.85 612.5,1106.71 C654.15,1120.78 693.93,1147.66 726.61,1174.76" fill="none" id="DataAccess-GMN35" style="stroke:#181818;stroke-width:1;stroke-dasharray:7,7;"/></g><!--SRC=[XLPjJzjM5FxkNt55fJLa9U6jceOg998IjMXRAw3RXtKVN6oeLsEdjg6Dfaej9IIZ2T2Lbq8B9QEqh5EJ8XWa990_atljVEfVsBc-ZcCWQMCfakzzxZdFVSvpJd8HuUnQfV0dsJp4fNbEloSfKLxZnv4cZXYyCYQBw0yEmIV4ZzmRqzG9HGYhigfTkI8gXXRhxKKN-jlfqnWayp5Hwx1HNP7EoDKle3efAdovlwFlyXTGNHGLYKI-3tT_0TNDKE5mADmODIu9WYm-u3NHvjOHwk__hZ5omf1atGvtcJuCf6g2gDa059BXXBqwo4vfYgYXZdRk4UTHSnI-cYY9Vhah6UAvk1UwE-dZMHyoOb0DWTVlYWADNgzGIrYMe1meY2AQgXYY8hGWNaTibUCk8hAqNpb-WHVcp7zp93D3DWuungZ5MTiu81lJBK3GpkU9p4UZ0KE_hVZweb5P6k4DILLGForzgvq3bf7hXNEdGH93rD4Fj2Qt5UimPoxkujqf-wIpv_48a-Si0M5Ir0n95mCQFM2JcOZAAY-u2otskKVdil_e5hd6e9B_M5tPhnGFQYJg4Chab2iQifdaPKdW3LKBrB4kd_fICqPXg8wcoZ8un654vjxZv05UtQangaDSRJg_his8UyfbKrzgncP8r2Qb4LSSyZgDPpCr7iwcIwBhwoHqvqYpVBTeAw5lw1L7fJ6e8pxSnl73Idwk6a-RnraxBmFL-wvXJerNxbqJvIZew2DpV-6Z-TRR2jI5TnUNFf5q5h-TDXTcOAjFYAZQECkBV5Pc1wUNMCxMPcIlGZJKDmBNSVtBWbhPSdKbMvE9mXoKP_Oq96tVA5XdoVfA4ta1kdPyG5ULI-Y11hDWMAKlBZFWHW_TuNK84f4Wr51CDyHnE2pS2VmEK6XyLdITDUNL46rw7DypzufMUSCyAdFEX6XhwxLRjWTT6nw-YGR5-nEYRd1qYMuvFTc3I6hAEZvc3SivgnJWxPSUv3HqgW1QSjuj2lKQ6G9kPgeVKi5AVhPIsYJ91Jpx1laKyQ7Hodc1zA3hF4ZmwQcvk5F9hu4noNA1x2rnxYw5ChFq85nQ0fnr4iUp_vZP5S05MNbFmpt5WjYvGx8xvHZbuqiylynvzcru262ZUi0k4TKzID_i4j5Ngh6LUsSMPyZUJZKnoocg8I9D6hjh87MKoWm5zFjnV1lFRvbJ1RyVtZi222VNyVjdEBMC-Xz6DPgCGJi3Y956uHk3Gy6GAiHkyXeq5Unr1H0amJCf9ZdPoU3r5Gu6FQ99kJEfFQMmALXFKjR-rkVI6hjpzUzfrXdGUUJPEvByO5Fp0_Bdsdpp-w5cMu_9cssmyFt07I23yCSLalsFR9RWdmBo3QXIqBb0cpiMMvqujsmxqY0i4ngVa0q9VWkDu2XqOXirzETIgb9U1-d9SeAEvEGdS-k9-Ugb4y8wUO4JHpI4zMmRlzsrzhUjyY9-jO6wszlXB3CHJguYQYDVQrCrQXOuBGNPpEFoKsQjwkEYTVBS4S4iJkE59FC5ylK9w5iq2EE6tOmP4ddcZvNDWEDmeOoVpvBrfzL4cW7B2L9yImMsnnFBuBbPV9lUp3pAuSHZSstQiJWpOwvWxMREgS0WJ4wp-89il4Q-cp0uOF9U6UvjVlswgSy8O2SZgIULGXpC25JHzU0DrmdUkKJJsyEe3J7ku0sxPk16V39TsygaAlcZqnq3NJGmTEEdG9GQsHCY0RWQULw9_VfRRsrcmpTKeEOZpppy2ebBw8nwNaes1ztG96LC6erHLgSQkJ6lILKIUXqUk3I5ytacljqQwILhxf3bh-JJT7wytY79PIjNn3Ehr0Uh2zN5LIkNS-loFm00]--></g></svg>