<svg xmlns="http://www.w3.org/2000/svg" xmlns:xlink="http://www.w3.org/1999/xlink" contentStyleType="text/css" data-diagram-type="SEQUENCE" height="1345.8333px" preserveAspectRatio="none" style="width:1465px;height:1345px;" version="1.1" viewBox="0 0 1465 1345" width="1465.625px" zoomAndPan="magnify"><defs><linearGradient id="gi72wntodqly80" x1="50%" x2="50%" y1="0%" y2="100%"><stop offset="0%" stop-color="#F18E3E"/><stop offset="100%" stop-color="#EC7211"/></linearGradient></defs><g><g><title>useAdClickFlow</title><rect fill="#8191A3" height="1061.7513" style="stroke:#181818;stroke-width:1.0417;" width="10.4167" x="348.386" y="173.8607"/></g><g><title>useVideoModal</title><rect fill="#8191A3" height="317.4805" style="stroke:#181818;stroke-width:1.0417;" width="10.4167" x="563.0619" y="320.638"/></g><g><title>VideoPlayer</title><rect fill="#8191A3" height="185.2865" style="stroke:#181818;stroke-width:1.0417;" width="10.4167" x="766.37" y="413.2813"/></g><g><title>API Layer</title><rect fill="#8191A3" height="224.8372" style="stroke:#181818;stroke-width:1.0417;" width="10.4167" x="1107.7674" y="971.224"/></g><g><title>....</title><rect fill="#8191A3" height="145.7357" style="stroke:#181818;stroke-width:1.0417;" width="10.4167" x="1301.8104" y="1010.7747"/></g><g><title>..</title><rect fill="#000000" fill-opacity="0.00000" height="1161.6862" width="8.3333" x="21.8751" y="92.6758"/><line style="stroke:#ABB6C2;stroke-width:0.5208;stroke-dasharray:5.2083,5.2083;" x1="26.0417" x2="26.0417" y1="92.6758" y2="1254.362"/></g><g><title>AdCard ..</title><rect fill="#000000" fill-opacity="0.00000" height="1161.6862" width="8.3333" x="144.7523" y="92.6758"/><line style="stroke:#ABB6C2;stroke-width:0.5208;stroke-dasharray:5.2083,5.2083;" x1="147.9169" x2="147.9169" y1="92.6758" y2="1254.362"/></g><g><title>useAdClickFlow</title><rect fill="#000000" fill-opacity="0.00000" height="1161.6862" width="8.3333" x="349.4277" y="92.6758"/><line style="stroke:#ABB6C2;stroke-width:0.5208;stroke-dasharray:5.2083,5.2083;" x1="353.046" x2="353.046" y1="92.6758" y2="1254.362"/></g><g><title>useVideoModal</title><rect fill="#000000" fill-opacity="0.00000" height="1161.6862" width="8.3333" x="564.1036" y="92.6758"/><line style="stroke:#ABB6C2;stroke-width:0.5208;stroke-dasharray:5.2083,5.2083;" x1="567.6843" x2="567.6843" y1="92.6758" y2="1254.362"/></g><g><title>VideoPlayer</title><rect fill="#000000" fill-opacity="0.00000" height="1161.6862" width="8.3333" x="767.4117" y="92.6758"/><line style="stroke:#ABB6C2;stroke-width:0.5208;stroke-dasharray:5.2083,5.2083;" x1="770.9395" x2="770.9395" y1="92.6758" y2="1254.362"/></g><g><title>...</title><rect fill="#000000" fill-opacity="0.00000" height="1161.6862" width="8.3333" x="942.009" y="92.6758"/><line style="stroke:#ABB6C2;stroke-width:0.5208;stroke-dasharray:5.2083,5.2083;" x1="946.1755" x2="946.1755" y1="92.6758" y2="1254.362"/></g><g><title>API Layer</title><rect fill="#000000" fill-opacity="0.00000" height="1161.6862" width="8.3333" x="1108.8091" y="92.6758"/><line style="stroke:#ABB6C2;stroke-width:0.5208;stroke-dasharray:5.2083,5.2083;" x1="1112.8425" x2="1112.8425" y1="92.6758" y2="1254.362"/></g><g><title>....</title><rect fill="#000000" fill-opacity="0.00000" height="1161.6862" width="8.3333" x="1302.852" y="92.6758"/><line style="stroke:#ABB6C2;stroke-width:0.5208;stroke-dasharray:5.2083,5.2083;" x1="1307.0185" x2="1307.0185" y1="92.6758" y2="1254.362"/></g><g class="participant participant-head" data-participant="User"><text fill="#4E5D6C" font-family="'Verdana'" font-size="12.5" lengthAdjust="spacing" textLength="25.0002" x="10.4167" y="84.5194">&#29992;&#25143;</text><ellipse cx="26.0418" cy="14.0625" fill="url(#gi72wntodqly80)" rx="8.3333" ry="8.3333" style="stroke:#EC7211;stroke-width:0.5208;"/><path d="M26.0418,22.3958 L26.0418,50.5208 M12.5001,30.7292 L39.5834,30.7292 M26.0418,50.5208 L12.5001,66.1458 M26.0418,50.5208 L39.5834,66.1458" fill="none" style="stroke:#EC7211;stroke-width:0.5208;"/></g><g class="participant participant-tail" data-participant="User"><text fill="#4E5D6C" font-family="'Verdana'" font-size="12.5" lengthAdjust="spacing" textLength="25.0002" x="10.4167" y="1270.1314">&#29992;&#25143;</text><ellipse cx="26.0418" cy="1287.1419" fill="url(#gi72wntodqly80)" rx="8.3333" ry="8.3333" style="stroke:#EC7211;stroke-width:0.5208;"/><path d="M26.0418,1295.4753 L26.0418,1323.6003 M12.5001,1303.8086 L39.5834,1303.8086 M26.0418,1323.6003 L12.5001,1339.2253 M26.0418,1323.6003 L39.5834,1339.2253" fill="none" style="stroke:#EC7211;stroke-width:0.5208;"/></g><g class="participant participant-head" data-participant="AdCard"><rect fill="url(#gi72wntodqly80)" height="39.5508" rx="4.1667" ry="4.1667" style="stroke:#EC7211;stroke-width:0.5208;" width="99.9208" x="98.9585" y="52.0833"/><text fill="#FFFFFF" font-family="'Verdana'" font-size="12.5" lengthAdjust="spacing" textLength="74.9208" x="111.4585" y="76.1861">AdCard &#32452;&#20214;</text></g><g class="participant participant-tail" data-participant="AdCard"><rect fill="url(#gi72wntodqly80)" height="39.5508" rx="4.1667" ry="4.1667" style="stroke:#EC7211;stroke-width:0.5208;" width="99.9208" x="98.9585" y="1253.3203"/><text fill="#FFFFFF" font-family="'Verdana'" font-size="12.5" lengthAdjust="spacing" textLength="74.9208" x="111.4585" y="1277.4231">AdCard &#32452;&#20214;</text></g><g class="participant participant-head" data-participant="ClickFlow"><rect fill="url(#gi72wntodqly80)" height="39.5508" rx="4.1667" ry="4.1667" style="stroke:#EC7211;stroke-width:0.5208;" width="121.9299" x="292.6294" y="52.0833"/><text fill="#FFFFFF" font-family="'Verdana'" font-size="12.5" lengthAdjust="spacing" textLength="96.9299" x="305.1294" y="76.1861">useAdClickFlow</text></g><g class="participant participant-tail" data-participant="ClickFlow"><rect fill="url(#gi72wntodqly80)" height="39.5508" rx="4.1667" ry="4.1667" style="stroke:#EC7211;stroke-width:0.5208;" width="121.9299" x="292.6294" y="1253.3203"/><text fill="#FFFFFF" font-family="'Verdana'" font-size="12.5" lengthAdjust="spacing" textLength="96.9299" x="305.1294" y="1277.4231">useAdClickFlow</text></g><g class="participant participant-head" data-participant="VideoModal"><rect fill="url(#gi72wntodqly80)" height="39.5508" rx="4.1667" ry="4.1667" style="stroke:#EC7211;stroke-width:0.5208;" width="119.9219" x="508.3093" y="52.0833"/><text fill="#FFFFFF" font-family="'Verdana'" font-size="12.5" lengthAdjust="spacing" textLength="94.9219" x="520.8093" y="76.1861">useVideoModal</text></g><g class="participant participant-tail" data-participant="VideoModal"><rect fill="url(#gi72wntodqly80)" height="39.5508" rx="4.1667" ry="4.1667" style="stroke:#EC7211;stroke-width:0.5208;" width="119.9219" x="508.3093" y="1253.3203"/><text fill="#FFFFFF" font-family="'Verdana'" font-size="12.5" lengthAdjust="spacing" textLength="94.9219" x="520.8093" y="1277.4231">useVideoModal</text></g><g class="participant participant-head" data-participant="VideoPlayer"><rect fill="url(#gi72wntodqly80)" height="39.5508" rx="4.1667" ry="4.1667" style="stroke:#EC7211;stroke-width:0.5208;" width="99.1943" x="721.9812" y="52.0833"/><text fill="#FFFFFF" font-family="'Verdana'" font-size="12.5" lengthAdjust="spacing" textLength="74.1943" x="734.4812" y="76.1861">VideoPlayer</text></g><g class="participant participant-tail" data-participant="VideoPlayer"><rect fill="url(#gi72wntodqly80)" height="39.5508" rx="4.1667" ry="4.1667" style="stroke:#EC7211;stroke-width:0.5208;" width="99.1943" x="721.9812" y="1253.3203"/><text fill="#FFFFFF" font-family="'Verdana'" font-size="12.5" lengthAdjust="spacing" textLength="74.1943" x="734.4812" y="1277.4231">VideoPlayer</text></g><g class="participant participant-head" data-participant="Browser"><rect fill="url(#gi72wntodqly80)" height="39.5508" rx="4.1667" ry="4.1667" style="stroke:#EC7211;stroke-width:0.5208;" width="62.5003" x="914.9255" y="52.0833"/><text fill="#FFFFFF" font-family="'Verdana'" font-size="12.5" lengthAdjust="spacing" textLength="37.5003" x="927.4255" y="76.1861">&#27983;&#35272;&#22120;</text></g><g class="participant participant-tail" data-participant="Browser"><rect fill="url(#gi72wntodqly80)" height="39.5508" rx="4.1667" ry="4.1667" style="stroke:#EC7211;stroke-width:0.5208;" width="62.5003" x="914.9255" y="1253.3203"/><text fill="#FFFFFF" font-family="'Verdana'" font-size="12.5" lengthAdjust="spacing" textLength="37.5003" x="927.4255" y="1277.4231">&#27983;&#35272;&#22120;</text></g><g class="participant participant-head" data-participant="API"><rect fill="url(#gi72wntodqly80)" height="39.5508" rx="4.1667" ry="4.1667" style="stroke:#EC7211;stroke-width:0.5208;" width="83.5999" x="1071.1758" y="52.0833"/><text fill="#FFFFFF" font-family="'Verdana'" font-size="12.5" lengthAdjust="spacing" textLength="58.5999" x="1083.6758" y="76.1861">API Layer</text></g><g class="participant participant-tail" data-participant="API"><rect fill="url(#gi72wntodqly80)" height="39.5508" rx="4.1667" ry="4.1667" style="stroke:#EC7211;stroke-width:0.5208;" width="83.5999" x="1071.1758" y="1253.3203"/><text fill="#FFFFFF" font-family="'Verdana'" font-size="12.5" lengthAdjust="spacing" textLength="58.5999" x="1083.6758" y="1277.4231">API Layer</text></g><g class="participant participant-head" data-participant="Backend"><rect fill="url(#gi72wntodqly80)" height="39.5508" rx="4.1667" ry="4.1667" style="stroke:#EC7211;stroke-width:0.5208;" width="75.0004" x="1269.5185" y="52.0833"/><text fill="#FFFFFF" font-family="'Verdana'" font-size="12.5" lengthAdjust="spacing" textLength="50.0004" x="1282.0185" y="76.1861">&#21518;&#31471;&#26381;&#21153;</text></g><g class="participant participant-tail" data-participant="Backend"><rect fill="url(#gi72wntodqly80)" height="39.5508" rx="4.1667" ry="4.1667" style="stroke:#EC7211;stroke-width:0.5208;" width="75.0004" x="1269.5185" y="1253.3203"/><text fill="#FFFFFF" font-family="'Verdana'" font-size="12.5" lengthAdjust="spacing" textLength="50.0004" x="1282.0185" y="1277.4231">&#21518;&#31471;&#26381;&#21153;</text></g><g><title>useAdClickFlow</title><rect fill="#8191A3" height="1061.7513" style="stroke:#181818;stroke-width:1.0417;" width="10.4167" x="348.386" y="173.8607"/></g><g><title>useVideoModal</title><rect fill="#8191A3" height="317.4805" style="stroke:#181818;stroke-width:1.0417;" width="10.4167" x="563.0619" y="320.638"/></g><g><title>VideoPlayer</title><rect fill="#8191A3" height="185.2865" style="stroke:#181818;stroke-width:1.0417;" width="10.4167" x="766.37" y="413.2813"/></g><g><title>API Layer</title><rect fill="#8191A3" height="224.8372" style="stroke:#181818;stroke-width:1.0417;" width="10.4167" x="1107.7674" y="971.224"/></g><g><title>....</title><rect fill="#8191A3" height="145.7357" style="stroke:#181818;stroke-width:1.0417;" width="10.4167" x="1301.8104" y="1010.7747"/></g><g class="message" data-participant-1="User" data-participant-2="AdCard"><polygon fill="#EC7211" points="136.4189,130.1432,146.8356,134.3099,136.4189,138.4766,140.5856,134.3099" style="stroke:#EC7211;stroke-width:1.0417;"/><line style="stroke:#EC7211;stroke-width:3.125;" x1="26.0418" x2="142.6689" y1="134.3099" y2="134.3099"/><text fill="#4E5D6C" font-family="'Verdana'" font-size="12.5" lengthAdjust="spacing" textLength="75.0006" x="38.5418" y="124.0702">&#28857;&#20987;&#24191;&#21578;&#21345;&#29255;</text></g><g class="message" data-participant-1="AdCard" data-participant-2="ClickFlow"><polygon fill="#EC7211" points="335.886,169.694,346.3027,173.8607,335.886,178.0273,340.0527,173.8607" style="stroke:#EC7211;stroke-width:1.0417;"/><line style="stroke:#EC7211;stroke-width:3.125;" x1="148.9189" x2="342.136" y1="173.8607" y2="173.8607"/><text fill="#4E5D6C" font-family="'Verdana'" font-size="12.5" lengthAdjust="spacing" textLength="88.4521" x="161.4189" y="163.621">executeFlow()</text></g><rect fill="#4E5D6C" height="3.125" rx="4.1667" ry="4.1667" style="stroke:#4E5D6C;stroke-width:1.0417;" width="1458.4184" x="0" y="208.2194"/><line style="stroke:#4E5D6C;stroke-width:1.0417;" x1="0" x2="1458.4184" y1="208.2194" y2="208.2194"/><line style="stroke:#4E5D6C;stroke-width:1.0417;" x1="0" x2="1458.4184" y1="211.3444" y2="211.3444"/><rect fill="#4E5D6C" height="33.3008" rx="4.1667" ry="4.1667" style="stroke:#4E5D6C;stroke-width:2.0833;" width="122.4005" x="668.009" y="192.6107"/><text fill="#ABB6C2" font-family="'Verdana'" font-size="12.5" font-weight="bold" lengthAdjust="spacing" textLength="93.0487" x="679.4673" y="213.5885">&#27493;&#39588;1: &#25773;&#25918;&#35270;&#39057;</text><g class="message" data-participant-1="ClickFlow" data-participant-2="ClickFlow"><line style="stroke:#EC7211;stroke-width:3.125;" x1="358.8027" x2="402.5527" y1="267.5456" y2="267.5456"/><line style="stroke:#EC7211;stroke-width:3.125;" x1="402.5527" x2="402.5527" y1="267.5456" y2="281.0872"/><line style="stroke:#EC7211;stroke-width:3.125;" x1="359.8443" x2="402.5527" y1="281.0872" y2="281.0872"/><polygon fill="#EC7211" points="370.261,276.9206,359.8443,281.0872,370.261,285.2539,366.0943,281.0872" style="stroke:#EC7211;stroke-width:1.0417;"/><text fill="#4E5D6C" font-family="'Verdana'" font-size="12.5" lengthAdjust="spacing" textLength="92.8589" x="371.3027" y="257.3059">actions.video()</text></g><g class="message" data-participant-1="ClickFlow" data-participant-2="VideoModal"><polygon fill="#EC7211" points="550.5619,316.4714,560.9786,320.638,550.5619,324.8047,554.7286,320.638" style="stroke:#EC7211;stroke-width:1.0417;"/><line style="stroke:#EC7211;stroke-width:3.125;" x1="358.8027" x2="556.8119" y1="320.638" y2="320.638"/><text fill="#4E5D6C" font-family="'Verdana'" font-size="12.5" lengthAdjust="spacing" textLength="130.2795" x="371.3027" y="310.3984">openVideoModal(url)</text></g><g class="message" data-participant-1="VideoModal" data-participant-2="VideoModal"><line style="stroke:#EC7211;stroke-width:3.125;" x1="573.4786" x2="617.2286" y1="360.1888" y2="360.1888"/><line style="stroke:#EC7211;stroke-width:3.125;" x1="617.2286" x2="617.2286" y1="360.1888" y2="373.7305"/><line style="stroke:#EC7211;stroke-width:3.125;" x1="574.5202" x2="617.2286" y1="373.7305" y2="373.7305"/><polygon fill="#EC7211" points="584.9369,369.5638,574.5202,373.7305,584.9369,377.8971,580.7702,373.7305" style="stroke:#EC7211;stroke-width:1.0417;"/><text fill="#4E5D6C" font-family="'Verdana'" font-size="12.5" lengthAdjust="spacing" textLength="79.1506" x="585.9786" y="349.9491">&#21019;&#24314; Promise</text></g><g class="message" data-participant-1="VideoModal" data-participant-2="VideoPlayer"><polygon fill="#EC7211" points="753.87,409.1146,764.2867,413.2813,753.87,417.4479,758.0367,413.2813" style="stroke:#EC7211;stroke-width:1.0417;"/><line style="stroke:#EC7211;stroke-width:3.125;" x1="573.4786" x2="760.12" y1="413.2813" y2="413.2813"/><text fill="#4E5D6C" font-family="'Verdana'" font-size="12.5" lengthAdjust="spacing" textLength="62.5005" x="585.9786" y="403.0416">&#28210;&#26579;&#25773;&#25918;&#22120;</text></g><g class="message" data-participant-1="VideoPlayer" data-participant-2="VideoPlayer"><line style="stroke:#EC7211;stroke-width:3.125;" x1="776.7867" x2="820.5367" y1="452.832" y2="452.832"/><line style="stroke:#EC7211;stroke-width:3.125;" x1="820.5367" x2="820.5367" y1="452.832" y2="466.3737"/><line style="stroke:#EC7211;stroke-width:3.125;" x1="777.8283" x2="820.5367" y1="466.3737" y2="466.3737"/><polygon fill="#EC7211" points="788.245,462.207,777.8283,466.3737,788.245,470.5404,784.0783,466.3737" style="stroke:#EC7211;stroke-width:1.0417;"/><text fill="#4E5D6C" font-family="'Verdana'" font-size="12.5" lengthAdjust="spacing" textLength="50.0004" x="789.2867" y="442.5924">&#33258;&#21160;&#25773;&#25918;</text></g><path d="M866.667,434.6354 L866.667,460.6771 A4.1667,4.1667 0 0 0 870.8337,464.8438 L1000.0004,464.8438 A4.1667,4.1667 0 0 0 1004.167,460.6771 L1004.167,440.8854 L993.7504,430.4688 L870.8337,430.4688 A4.1667,4.1667 0 0 0 866.667,434.6354" fill="#0073BB" style="stroke:#005C96;stroke-width:1.0417;"/><path d="M993.7504,430.4688 L993.7504,438.8021 A2.0833,2.0833 0 0 0 995.8337,440.8854 L1004.167,440.8854 L993.7504,430.4688" fill="#0073BB" style="stroke:#005C96;stroke-width:1.0417;"/><text fill="#FFFFFF" font-family="'Verdana'" font-size="12.5" lengthAdjust="spacing" textLength="106.2317" x="878.1254" y="452.4882">autoPlay={true}</text><g class="message" data-participant-1="User" data-participant-2="VideoPlayer"><polygon fill="#EC7211" points="753.87,501.7578,764.2867,505.9245,753.87,510.0911,758.0367,505.9245" style="stroke:#EC7211;stroke-width:1.0417;"/><line style="stroke:#EC7211;stroke-width:3.125;" x1="26.0418" x2="760.12" y1="505.9245" y2="505.9245"/><text fill="#4E5D6C" font-family="'Verdana'" font-size="12.5" lengthAdjust="spacing" textLength="61.9205" x="38.5418" y="495.6848">&#35266;&#30475;&#35270;&#39057;...</text></g><g class="message" data-participant-1="VideoPlayer" data-participant-2="VideoPlayer"><line style="stroke:#EC7211;stroke-width:3.125;" x1="776.7867" x2="820.5367" y1="545.4753" y2="545.4753"/><line style="stroke:#EC7211;stroke-width:3.125;" x1="820.5367" x2="820.5367" y1="545.4753" y2="559.0169"/><line style="stroke:#EC7211;stroke-width:3.125;" x1="777.8283" x2="820.5367" y1="559.0169" y2="559.0169"/><polygon fill="#EC7211" points="788.245,554.8503,777.8283,559.0169,788.245,563.1836,784.0783,559.0169" style="stroke:#EC7211;stroke-width:1.0417;"/><text fill="#4E5D6C" font-family="'Verdana'" font-size="12.5" lengthAdjust="spacing" textLength="83.9235" x="789.2867" y="535.2356">onEnded &#20107;&#20214;</text></g><g class="message" data-participant-1="VideoPlayer" data-participant-2="VideoModal"><polygon fill="#EC7211" points="584.9369,594.401,574.5202,598.5677,584.9369,602.7344,580.7702,598.5677" style="stroke:#EC7211;stroke-width:1.0417;"/><line style="stroke:#EC7211;stroke-width:3.125;" x1="578.6869" x2="770.5367" y1="598.5677" y2="598.5677"/><text fill="#4E5D6C" font-family="'Verdana'" font-size="12.5" lengthAdjust="spacing" textLength="55.304" x="596.3952" y="588.328">resolve()</text></g><g class="message" data-participant-1="VideoModal" data-participant-2="ClickFlow"><polygon fill="#EC7211" points="370.261,633.9518,359.8443,638.1185,370.261,642.2852,366.0943,638.1185" style="stroke:#EC7211;stroke-width:1.0417;"/><line style="stroke:#EC7211;stroke-width:3.125;stroke-dasharray:2.0833,2.0833;" x1="364.011" x2="567.2286" y1="638.1185" y2="638.1185"/><text fill="#4E5D6C" font-family="'Verdana'" font-size="12.5" lengthAdjust="spacing" textLength="79.1506" x="381.7193" y="627.8788">Promise &#23436;&#25104;</text></g><rect fill="#4E5D6C" height="3.125" rx="4.1667" ry="4.1667" style="stroke:#4E5D6C;stroke-width:1.0417;" width="1458.4184" x="0" y="672.4772"/><line style="stroke:#4E5D6C;stroke-width:1.0417;" x1="0" x2="1458.4184" y1="672.4772" y2="672.4772"/><line style="stroke:#4E5D6C;stroke-width:1.0417;" x1="0" x2="1458.4184" y1="675.6022" y2="675.6022"/><rect fill="#4E5D6C" height="33.3008" rx="4.1667" ry="4.1667" style="stroke:#4E5D6C;stroke-width:2.0833;" width="134.9006" x="661.7589" y="656.8685"/><text fill="#ABB6C2" font-family="'Verdana'" font-size="12.5" font-weight="bold" lengthAdjust="spacing" textLength="105.5488" x="673.2173" y="677.8463">&#27493;&#39588;2: &#36339;&#36716;&#33853;&#22320;&#39029;</text><g class="message" data-participant-1="ClickFlow" data-participant-2="ClickFlow"><line style="stroke:#EC7211;stroke-width:3.125;" x1="358.8027" x2="402.5527" y1="731.8034" y2="731.8034"/><line style="stroke:#EC7211;stroke-width:3.125;" x1="402.5527" x2="402.5527" y1="731.8034" y2="745.3451"/><line style="stroke:#EC7211;stroke-width:3.125;" x1="359.8443" x2="402.5527" y1="745.3451" y2="745.3451"/><polygon fill="#EC7211" points="370.261,741.1784,359.8443,745.3451,370.261,749.5117,366.0943,745.3451" style="stroke:#EC7211;stroke-width:1.0417;"/><text fill="#4E5D6C" font-family="'Verdana'" font-size="12.5" lengthAdjust="spacing" textLength="107.5562" x="371.3027" y="721.5637">actions.redirect()</text></g><g class="message" data-participant-1="ClickFlow" data-participant-2="Browser"><polygon fill="#EC7211" points="933.6757,780.7292,944.0923,784.8958,933.6757,789.0625,937.8423,784.8958" style="stroke:#EC7211;stroke-width:1.0417;"/><line style="stroke:#EC7211;stroke-width:3.125;" x1="358.8027" x2="939.9257" y1="784.8958" y2="784.8958"/><text fill="#4E5D6C" font-family="'Verdana'" font-size="12.5" lengthAdjust="spacing" textLength="158.9478" x="371.3027" y="774.6562">window.open(redirectUrl)</text></g><g class="message" data-participant-1="Browser" data-participant-2="User"><polygon fill="#EC7211" points="37.5001,820.2799,27.0834,824.4466,37.5001,828.6133,33.3334,824.4466" style="stroke:#EC7211;stroke-width:1.0417;"/><line style="stroke:#EC7211;stroke-width:3.125;" x1="31.2501" x2="945.134" y1="824.4466" y2="824.4466"/><text fill="#4E5D6C" font-family="'Verdana'" font-size="12.5" lengthAdjust="spacing" textLength="75.0006" x="48.9584" y="814.2069">&#25171;&#24320;&#26032;&#26631;&#31614;&#39029;</text></g><rect fill="#4E5D6C" height="3.125" rx="4.1667" ry="4.1667" style="stroke:#4E5D6C;stroke-width:1.0417;" width="1458.4184" x="0" y="858.8053"/><line style="stroke:#4E5D6C;stroke-width:1.0417;" x1="0" x2="1458.4184" y1="858.8053" y2="858.8053"/><line style="stroke:#4E5D6C;stroke-width:1.0417;" x1="0" x2="1458.4184" y1="861.9303" y2="861.9303"/><rect fill="#4E5D6C" height="33.3008" rx="4.1667" ry="4.1667" style="stroke:#4E5D6C;stroke-width:2.0833;" width="122.4005" x="668.009" y="843.1966"/><text fill="#ABB6C2" font-family="'Verdana'" font-size="12.5" font-weight="bold" lengthAdjust="spacing" textLength="93.0487" x="679.4673" y="864.1744">&#27493;&#39588;3: &#32479;&#35745;&#28857;&#20987;</text><g class="message" data-participant-1="ClickFlow" data-participant-2="ClickFlow"><line style="stroke:#EC7211;stroke-width:3.125;" x1="358.8027" x2="402.5527" y1="918.1315" y2="918.1315"/><line style="stroke:#EC7211;stroke-width:3.125;" x1="402.5527" x2="402.5527" y1="918.1315" y2="931.6732"/><line style="stroke:#EC7211;stroke-width:3.125;" x1="359.8443" x2="402.5527" y1="931.6732" y2="931.6732"/><polygon fill="#EC7211" points="370.261,927.5065,359.8443,931.6732,370.261,935.8398,366.0943,931.6732" style="stroke:#EC7211;stroke-width:1.0417;"/><text fill="#4E5D6C" font-family="'Verdana'" font-size="12.5" lengthAdjust="spacing" textLength="116.0889" x="371.3027" y="907.8918">actions.count_up()</text></g><g class="message" data-participant-1="ClickFlow" data-participant-2="API"><polygon fill="#EC7211" points="1095.2674,967.0573,1105.6841,971.224,1095.2674,975.3906,1099.4341,971.224" style="stroke:#EC7211;stroke-width:1.0417;"/><line style="stroke:#EC7211;stroke-width:3.125;" x1="358.8027" x2="1101.5174" y1="971.224" y2="971.224"/><text fill="#4E5D6C" font-family="'Verdana'" font-size="12.5" lengthAdjust="spacing" textLength="109.2773" x="371.3027" y="960.9843">countUpApi(adId)</text></g><g class="message" data-participant-1="API" data-participant-2="Backend"><polygon fill="#EC7211" points="1289.3104,1006.6081,1299.727,1010.7747,1289.3104,1014.9414,1293.477,1010.7747" style="stroke:#EC7211;stroke-width:1.0417;"/><line style="stroke:#EC7211;stroke-width:3.125;" x1="1118.1841" x2="1295.5604" y1="1010.7747" y2="1010.7747"/><text fill="#4E5D6C" font-family="'Verdana'" font-size="12.5" lengthAdjust="spacing" textLength="153.418" x="1130.6841" y="1000.5351">POST /v1/api/count_click</text></g><g class="message" data-participant-1="Backend" data-participant-2="Backend"><line style="stroke:#EC7211;stroke-width:3.125;" x1="1312.227" x2="1355.977" y1="1050.3255" y2="1050.3255"/><line style="stroke:#EC7211;stroke-width:3.125;" x1="1355.977" x2="1355.977" y1="1050.3255" y2="1063.8672"/><line style="stroke:#EC7211;stroke-width:3.125;" x1="1313.2687" x2="1355.977" y1="1063.8672" y2="1063.8672"/><polygon fill="#EC7211" points="1323.6854,1059.7005,1313.2687,1063.8672,1323.6854,1068.0339,1319.5187,1063.8672" style="stroke:#EC7211;stroke-width:1.0417;"/><text fill="#4E5D6C" font-family="'Verdana'" font-size="12.5" lengthAdjust="spacing" textLength="105.5664" x="1324.727" y="1040.0859">ad.clickCount++</text></g><g class="message" data-participant-1="Backend" data-participant-2="Backend"><line style="stroke:#EC7211;stroke-width:3.125;" x1="1312.227" x2="1355.977" y1="1103.418" y2="1103.418"/><line style="stroke:#EC7211;stroke-width:3.125;" x1="1355.977" x2="1355.977" y1="1103.418" y2="1116.9596"/><line style="stroke:#EC7211;stroke-width:3.125;" x1="1313.2687" x2="1355.977" y1="1116.9596" y2="1116.9596"/><polygon fill="#EC7211" points="1323.6854,1112.793,1313.2687,1116.9596,1323.6854,1121.1263,1319.5187,1116.9596" style="stroke:#EC7211;stroke-width:1.0417;"/><text fill="#4E5D6C" font-family="'Verdana'" font-size="12.5" lengthAdjust="spacing" textLength="50.0004" x="1324.727" y="1093.1783">&#37325;&#26032;&#25490;&#24207;</text></g><g class="message" data-participant-1="Backend" data-participant-2="API"><polygon fill="#EC7211" points="1129.6424,1152.3438,1119.2257,1156.5104,1129.6424,1160.6771,1125.4757,1156.5104" style="stroke:#EC7211;stroke-width:1.0417;"/><line style="stroke:#EC7211;stroke-width:3.125;stroke-dasharray:2.0833,2.0833;" x1="1123.3924" x2="1305.977" y1="1156.5104" y2="1156.5104"/><text fill="#4E5D6C" font-family="'Verdana'" font-size="12.5" lengthAdjust="spacing" textLength="70.1355" x="1141.1007" y="1146.2708">{ code: 0 }</text></g><g class="message" data-participant-1="API" data-participant-2="ClickFlow"><polygon fill="#EC7211" points="370.261,1191.8945,359.8443,1196.0612,370.261,1200.2279,366.0943,1196.0612" style="stroke:#EC7211;stroke-width:1.0417;"/><line style="stroke:#EC7211;stroke-width:3.125;stroke-dasharray:2.0833,2.0833;" x1="364.011" x2="1111.9341" y1="1196.0612" y2="1196.0612"/><text fill="#4E5D6C" font-family="'Verdana'" font-size="12.5" lengthAdjust="spacing" textLength="25.0002" x="381.7193" y="1185.8215">&#23436;&#25104;</text></g><g class="message" data-participant-1="ClickFlow" data-participant-2="AdCard"><polygon fill="#EC7211" points="160.3773,1231.4453,149.9606,1235.612,160.3773,1239.7786,156.2106,1235.612" style="stroke:#EC7211;stroke-width:1.0417;"/><line style="stroke:#EC7211;stroke-width:3.125;stroke-dasharray:2.0833,2.0833;" x1="154.1273" x2="352.5527" y1="1235.612" y2="1235.612"/><text fill="#4E5D6C" font-family="'Verdana'" font-size="12.5" lengthAdjust="spacing" textLength="50.0004" x="171.8356" y="1225.3723">&#27969;&#31243;&#32467;&#26463;</text></g><!--SRC=[ZPHTQnD158RlvrUClOgKfbRl5YBKeb1GB6YybM5dQ9UcEyliRgAKWXOnQMFQz0D1ZCI8ab1DBKgjRMpzCvtPv5yuin_TpJP8htPtvZdldFEUCtlDMI1B1AAIFK4PCkS9GBf36SpRX45amp5ljoCgHsF0GimnTCD2fWEdyGnYsDyENxtUg_FUhs5gfc3eY_SAjEI3haqa6oqDaqyCJEW3Yb4XGkEL4UHS0JqFiqjy3uDt62r59OZ3pNwxmjzrKbNCpGOboEVz4Gf8NoHcK2MlRtXVluj6ZQ-tnW3mpPcu7VcWGM_rc9Tx_FWltrhdjPQtLWRXdgHY7pH8dX7TTOZwobm7ockZY1mICm3aSb1qlmpsFazfK6ntnUvPl_rwy6aBvd8WbahfAY5gsjcYyaCg3u49UpL8BMB62ncN5P9vn3iW4PNMu9Ntl7S2vnXTCcmoYWnR92lu_KCqTu8wP0VIHmKSICPSakYNz_Xw9v009fMXp9XVS6JHhkDJkMM7kMGbxaiglhtgDQg1YTbi5lp_D6hUDJ71yFoaAYTw91lPm8XD2qKYxSPaP5b3pgGw5fe7-VuRKQbVKWXw40_3JLd7qS_-wRT-_PGt3WQjmolD0oFOO4HtqYCHNGyDbWmJqr9MZKKcelDgA294qla05Mix_CyByVP0V2nxtJEPGoB1M_8Mz9hz_LPm5wwKdKvTqtdgMkdir8tKeB-RjwOj8uFmB4wEgGI0WbGbuJMLZZvyz1XE5gScaMLC1jAwKet3GXQ0A6We7k6ipy-eqF7nqT2WN5C6R6ppaysOkCXvMMQDYGPlm9LaIoyEzfDEkN5v0bHvIKUIlnfn-DBhLBtUZlZGJCPSuFy0]--></g></svg>