<svg xmlns="http://www.w3.org/2000/svg" xmlns:xlink="http://www.w3.org/1999/xlink" contentStyleType="text/css" data-diagram-type="SEQUENCE" height="1504.1667px" preserveAspectRatio="none" style="width:2010px;height:1504px;" version="1.1" viewBox="0 0 2010 1504" width="2010.4167px" zoomAndPan="magnify"><defs><linearGradient id="g1e7o24q97k35e0" x1="50%" x2="50%" y1="0%" y2="100%"><stop offset="0%" stop-color="#F18E3E"/><stop offset="100%" stop-color="#EC7211"/></linearGradient></defs><g><rect fill="#F9F9F9" height="1492.6432" rx="4.1667" ry="4.1667" style="stroke:#4E5D6C;stroke-width:0.5208;" width="617.9593" x="94.7919" y="6.25"/><text fill="#4E5D6C" font-family="'Verdana'" font-size="12.5" font-weight="bold" lengthAdjust="spacing" textLength="105.2675" x="351.1378" y="23.0611">Frontend (&#21069;&#31471;)</text><rect fill="#E3F2FD" height="1492.6432" rx="4.1667" ry="4.1667" style="stroke:#4E5D6C;stroke-width:0.5208;" width="1084.7964" x="798.1679" y="6.25"/><text fill="#4E5D6C" font-family="'Verdana'" font-size="12.5" font-weight="bold" lengthAdjust="spacing" textLength="100.7875" x="1290.1723" y="23.0611">Backend (&#21518;&#31471;)</text><g><title>AdOperator ..</title><rect fill="#8191A3" height="1247.9492" style="stroke:#181818;stroke-width:1.0417;" width="10.4167" x="198.6219" y="134.3099"/></g><g><title>FormProcessor</title><rect fill="#8191A3" height="145.7357" style="stroke:#181818;stroke-width:1.0417;" width="10.4167" x="425.4333" y="226.9531"/></g><g><title>API Layer</title><rect fill="#8191A3" height="924.2188" style="stroke:#181818;stroke-width:1.0417;" width="10.4167" x="619.9096" y="412.2396"/></g><g><title>Router ....</title><rect fill="#8191A3" height="845.1172" style="stroke:#181818;stroke-width:1.0417;" width="10.4167" x="891.6494" y="451.7904"/></g><g><title>Validator</title><rect fill="#8191A3" height="257.0313" style="stroke:#181818;stroke-width:1.0417;" width="10.4167" x="1105.7467" y="491.3411"/></g><g><title>Controller</title><rect fill="#8191A3" height="501.6927" style="stroke:#181818;stroke-width:1.0417;" width="10.4167" x="1321.211" y="748.3724"/></g><g><title>Ad Service</title><rect fill="#8191A3" height="422.5911" style="stroke:#181818;stroke-width:1.0417;" width="10.4167" x="1563.6568" y="787.9232"/></g><g><title>Data Access</title><rect fill="#8191A3" height="118.6523" style="stroke:#181818;stroke-width:1.0417;" width="10.4167" x="1781.0071" y="827.474"/></g><g><title>Data Access</title><rect fill="#8191A3" height="79.1016" style="stroke:#181818;stroke-width:1.0417;" width="10.4167" x="1781.0071" y="1091.862"/></g><rect fill="none" height="683.7891" rx="4.1667" ry="4.1667" style="stroke:#4E5D6C;stroke-width:1.5625;" width="1472.1276" x="531.2347" y="574.6094"/><g><title>..</title><rect fill="#000000" fill-opacity="0.00000" height="1315.625" width="8.3333" x="21.8751" y="92.6758"/><line style="stroke:#ABB6C2;stroke-width:0.5208;stroke-dasharray:5.2083,5.2083;" x1="26.0417" x2="26.0417" y1="92.6758" y2="1408.3008"/></g><g><title>AdOperator ..</title><rect fill="#000000" fill-opacity="0.00000" height="1315.625" width="8.3333" x="199.6636" y="92.6758"/><line style="stroke:#ABB6C2;stroke-width:0.5208;stroke-dasharray:5.2083,5.2083;" x1="203.1252" x2="203.1252" y1="92.6758" y2="1408.3008"/></g><g><title>FormProcessor</title><rect fill="#000000" fill-opacity="0.00000" height="1315.625" width="8.3333" x="426.475" y="92.6758"/><line style="stroke:#ABB6C2;stroke-width:0.5208;stroke-dasharray:5.2083,5.2083;" x1="430.0486" x2="430.0486" y1="92.6758" y2="1408.3008"/></g><g><title>API Layer</title><rect fill="#000000" fill-opacity="0.00000" height="1315.625" width="8.3333" x="620.9513" y="92.6758"/><line style="stroke:#ABB6C2;stroke-width:0.5208;stroke-dasharray:5.2083,5.2083;" x1="624.9847" x2="624.9847" y1="92.6758" y2="1408.3008"/></g><g><title>Router ....</title><rect fill="#000000" fill-opacity="0.00000" height="1315.625" width="8.3333" x="892.6911" y="92.6758"/><line style="stroke:#ABB6C2;stroke-width:0.5208;stroke-dasharray:5.2083,5.2083;" x1="896.0845" x2="896.0845" y1="92.6758" y2="1408.3008"/></g><g><title>Validator</title><rect fill="#000000" fill-opacity="0.00000" height="1315.625" width="8.3333" x="1106.7883" y="92.6758"/><line style="stroke:#ABB6C2;stroke-width:0.5208;stroke-dasharray:5.2083,5.2083;" x1="1110.3701" x2="1110.3701" y1="92.6758" y2="1408.3008"/></g><g><title>Controller</title><rect fill="#000000" fill-opacity="0.00000" height="1315.625" width="8.3333" x="1322.2526" y="92.6758"/><line style="stroke:#ABB6C2;stroke-width:0.5208;stroke-dasharray:5.2083,5.2083;" x1="1325.7469" x2="1325.7469" y1="92.6758" y2="1408.3008"/></g><g><title>Ad Service</title><rect fill="#000000" fill-opacity="0.00000" height="1315.625" width="8.3333" x="1564.6985" y="92.6758"/><line style="stroke:#ABB6C2;stroke-width:0.5208;stroke-dasharray:5.2083,5.2083;" x1="1567.8286" x2="1567.8286" y1="92.6758" y2="1408.3008"/></g><g><title>Data Access</title><rect fill="#000000" fill-opacity="0.00000" height="1315.625" width="8.3333" x="1782.0488" y="92.6758"/><line style="stroke:#ABB6C2;stroke-width:0.5208;stroke-dasharray:5.2083,5.2083;" x1="1785.2999" x2="1785.2999" y1="92.6758" y2="1408.3008"/></g><g><title>db.json</title><rect fill="#000000" fill-opacity="0.00000" height="1315.625" width="8.3333" x="1957.7466" y="92.6758"/><line style="stroke:#ABB6C2;stroke-width:0.5208;stroke-dasharray:5.2083,5.2083;" x1="1961.0893" x2="1961.0893" y1="92.6758" y2="1408.3008"/></g><g class="participant participant-head" data-participant="User"><text fill="#4E5D6C" font-family="'Verdana'" font-size="12.5" lengthAdjust="spacing" textLength="25.0002" x="10.4167" y="84.5194">&#29992;&#25143;</text><ellipse cx="26.0418" cy="14.0625" fill="url(#g1e7o24q97k35e0)" rx="8.3333" ry="8.3333" style="stroke:#EC7211;stroke-width:0.5208;"/><path d="M26.0418,22.3958 L26.0418,50.5208 M12.5001,30.7292 L39.5834,30.7292 M26.0418,50.5208 L12.5001,66.1458 M26.0418,50.5208 L39.5834,66.1458" fill="none" style="stroke:#EC7211;stroke-width:0.5208;"/></g><g class="participant participant-tail" data-participant="User"><text fill="#4E5D6C" font-family="'Verdana'" font-size="12.5" lengthAdjust="spacing" textLength="25.0002" x="10.4167" y="1424.0702">&#29992;&#25143;</text><ellipse cx="26.0418" cy="1441.0807" fill="url(#g1e7o24q97k35e0)" rx="8.3333" ry="8.3333" style="stroke:#EC7211;stroke-width:0.5208;"/><path d="M26.0418,1449.4141 L26.0418,1477.5391 M12.5001,1457.7474 L39.5834,1457.7474 M26.0418,1477.5391 L12.5001,1493.1641 M26.0418,1477.5391 L39.5834,1493.1641" fill="none" style="stroke:#EC7211;stroke-width:0.5208;"/></g><g class="participant participant-head" data-participant="AdOperator"><rect fill="url(#g1e7o24q97k35e0)" height="39.5508" rx="4.1667" ry="4.1667" style="stroke:#EC7211;stroke-width:0.5208;" width="126.4101" x="140.6252" y="52.0833"/><text fill="#FFFFFF" font-family="'Verdana'" font-size="12.5" lengthAdjust="spacing" textLength="101.4101" x="153.1252" y="76.1861">AdOperator &#32452;&#20214;</text></g><g class="participant participant-tail" data-participant="AdOperator"><rect fill="url(#g1e7o24q97k35e0)" height="39.5508" rx="4.1667" ry="4.1667" style="stroke:#EC7211;stroke-width:0.5208;" width="126.4101" x="140.6252" y="1407.2591"/><text fill="#FFFFFF" font-family="'Verdana'" font-size="12.5" lengthAdjust="spacing" textLength="101.4101" x="153.1252" y="1431.3619">AdOperator &#32452;&#20214;</text></g><g class="participant participant-head" data-participant="FormProcessor"><rect fill="url(#g1e7o24q97k35e0)" height="39.5508" rx="4.1667" ry="4.1667" style="stroke:#EC7211;stroke-width:0.5208;" width="117.8528" x="371.7152" y="52.0833"/><text fill="#FFFFFF" font-family="'Verdana'" font-size="12.5" lengthAdjust="spacing" textLength="92.8528" x="384.2152" y="76.1861">FormProcessor</text></g><g class="participant participant-tail" data-participant="FormProcessor"><rect fill="url(#g1e7o24q97k35e0)" height="39.5508" rx="4.1667" ry="4.1667" style="stroke:#EC7211;stroke-width:0.5208;" width="117.8528" x="371.7152" y="1407.2591"/><text fill="#FFFFFF" font-family="'Verdana'" font-size="12.5" lengthAdjust="spacing" textLength="92.8528" x="384.2152" y="1431.3619">FormProcessor</text></g><g class="participant participant-head" data-participant="API"><rect fill="url(#g1e7o24q97k35e0)" height="39.5508" rx="4.1667" ry="4.1667" style="stroke:#EC7211;stroke-width:0.5208;" width="83.5999" x="583.318" y="52.0833"/><text fill="#FFFFFF" font-family="'Verdana'" font-size="12.5" lengthAdjust="spacing" textLength="58.5999" x="595.818" y="76.1861">API Layer</text></g><g class="participant participant-tail" data-participant="API"><rect fill="url(#g1e7o24q97k35e0)" height="39.5508" rx="4.1667" ry="4.1667" style="stroke:#EC7211;stroke-width:0.5208;" width="83.5999" x="583.318" y="1407.2591"/><text fill="#FFFFFF" font-family="'Verdana'" font-size="12.5" lengthAdjust="spacing" textLength="58.5999" x="595.818" y="1431.3619">API Layer</text></g><g class="participant participant-head" data-participant="Router"><rect fill="url(#g1e7o24q97k35e0)" height="39.5508" rx="4.1667" ry="4.1667" style="stroke:#EC7211;stroke-width:0.5208;" width="105.7131" x="844.0012" y="52.0833"/><text fill="#FFFFFF" font-family="'Verdana'" font-size="12.5" lengthAdjust="spacing" textLength="80.7131" x="856.5012" y="76.1861">Router (&#36335;&#30001;)</text></g><g class="participant participant-tail" data-participant="Router"><rect fill="url(#g1e7o24q97k35e0)" height="39.5508" rx="4.1667" ry="4.1667" style="stroke:#EC7211;stroke-width:0.5208;" width="105.7131" x="844.0012" y="1407.2591"/><text fill="#FFFFFF" font-family="'Verdana'" font-size="12.5" lengthAdjust="spacing" textLength="80.7131" x="856.5012" y="1431.3619">Router (&#36335;&#30001;)</text></g><g class="participant participant-head" data-participant="Validator"><rect fill="url(#g1e7o24q97k35e0)" height="54.1016" rx="4.1667" ry="4.1667" style="stroke:#EC7211;stroke-width:0.5208;" width="97.0032" x="1062.4534" y="37.5326"/><text fill="#FFFFFF" font-family="'Verdana'" font-size="12.5" lengthAdjust="spacing" textLength="56.4392" x="1082.7354" y="61.6353">Validator</text><text fill="#FFFFFF" font-family="'Verdana'" font-size="12.5" lengthAdjust="spacing" textLength="72.0032" x="1074.9534" y="76.1861">Middleware</text></g><g class="participant participant-tail" data-participant="Validator"><rect fill="url(#g1e7o24q97k35e0)" height="54.1016" rx="4.1667" ry="4.1667" style="stroke:#EC7211;stroke-width:0.5208;" width="97.0032" x="1062.4534" y="1407.2591"/><text fill="#FFFFFF" font-family="'Verdana'" font-size="12.5" lengthAdjust="spacing" textLength="56.4392" x="1082.7354" y="1431.3619">Validator</text><text fill="#FFFFFF" font-family="'Verdana'" font-size="12.5" lengthAdjust="spacing" textLength="72.0032" x="1074.9534" y="1445.9127">Middleware</text></g><g class="participant participant-head" data-participant="Controller"><rect fill="url(#g1e7o24q97k35e0)" height="39.5508" rx="4.1667" ry="4.1667" style="stroke:#EC7211;stroke-width:0.5208;" width="86.7615" x="1283.0386" y="52.0833"/><text fill="#FFFFFF" font-family="'Verdana'" font-size="12.5" lengthAdjust="spacing" textLength="61.7615" x="1295.5386" y="76.1861">Controller</text></g><g class="participant participant-tail" data-participant="Controller"><rect fill="url(#g1e7o24q97k35e0)" height="39.5508" rx="4.1667" ry="4.1667" style="stroke:#EC7211;stroke-width:0.5208;" width="86.7615" x="1283.0386" y="1407.2591"/><text fill="#FFFFFF" font-family="'Verdana'" font-size="12.5" lengthAdjust="spacing" textLength="61.7615" x="1295.5386" y="1431.3619">Controller</text></g><g class="participant participant-head" data-participant="Service"><rect fill="url(#g1e7o24q97k35e0)" height="39.5508" rx="4.1667" ry="4.1667" style="stroke:#EC7211;stroke-width:0.5208;" width="91.6565" x="1523.0369" y="52.0833"/><text fill="#FFFFFF" font-family="'Verdana'" font-size="12.5" lengthAdjust="spacing" textLength="66.6565" x="1535.5369" y="76.1861">Ad Service</text></g><g class="participant participant-tail" data-participant="Service"><rect fill="url(#g1e7o24q97k35e0)" height="39.5508" rx="4.1667" ry="4.1667" style="stroke:#EC7211;stroke-width:0.5208;" width="91.6565" x="1523.0369" y="1407.2591"/><text fill="#FFFFFF" font-family="'Verdana'" font-size="12.5" lengthAdjust="spacing" textLength="66.6565" x="1535.5369" y="1431.3619">Ad Service</text></g><g class="participant participant-head" data-participant="DataAccess"><rect fill="url(#g1e7o24q97k35e0)" height="39.5508" rx="4.1667" ry="4.1667" style="stroke:#EC7211;stroke-width:0.5208;" width="101.8311" x="1735.2999" y="52.0833"/><text fill="#FFFFFF" font-family="'Verdana'" font-size="12.5" lengthAdjust="spacing" textLength="76.8311" x="1747.7999" y="76.1861">Data Access</text></g><g class="participant participant-tail" data-participant="DataAccess"><rect fill="url(#g1e7o24q97k35e0)" height="39.5508" rx="4.1667" ry="4.1667" style="stroke:#EC7211;stroke-width:0.5208;" width="101.8311" x="1735.2999" y="1407.2591"/><text fill="#FFFFFF" font-family="'Verdana'" font-size="12.5" lengthAdjust="spacing" textLength="76.8311" x="1747.7999" y="1431.3619">Data Access</text></g><g class="participant participant-head" data-participant="DB"><text fill="#4E5D6C" font-family="'Verdana'" font-size="12.5" lengthAdjust="spacing" textLength="45.3979" x="1936.0893" y="84.5194">db.json</text><path d="M1943.1633,30.2083 C1943.1633,19.7917 1961.9133,19.7917 1961.9133,19.7917 C1961.9133,19.7917 1980.6633,19.7917 1980.6633,30.2083 L1980.6633,57.2917 C1980.6633,67.7083 1961.9133,67.7083 1961.9133,67.7083 C1961.9133,67.7083 1943.1633,67.7083 1943.1633,57.2917 L1943.1633,30.2083" fill="url(#g1e7o24q97k35e0)" style="stroke:#EC7211;stroke-width:0.5208;"/><path d="M1943.1633,30.2083 C1943.1633,40.625 1961.9133,40.625 1961.9133,40.625 C1961.9133,40.625 1980.6633,40.625 1980.6633,30.2083" fill="none" style="stroke:#EC7211;stroke-width:0.5208;"/></g><g class="participant participant-tail" data-participant="DB"><text fill="#4E5D6C" font-family="'Verdana'" font-size="12.5" lengthAdjust="spacing" textLength="45.3979" x="1936.0893" y="1424.0702">db.json</text><path d="M1943.1633,1442.6432 C1943.1633,1432.2266 1961.9133,1432.2266 1961.9133,1432.2266 C1961.9133,1432.2266 1980.6633,1432.2266 1980.6633,1442.6432 L1980.6633,1469.7266 C1980.6633,1480.1432 1961.9133,1480.1432 1961.9133,1480.1432 C1961.9133,1480.1432 1943.1633,1480.1432 1943.1633,1469.7266 L1943.1633,1442.6432" fill="url(#g1e7o24q97k35e0)" style="stroke:#EC7211;stroke-width:0.5208;"/><path d="M1943.1633,1442.6432 C1943.1633,1453.0599 1961.9133,1453.0599 1961.9133,1453.0599 C1961.9133,1453.0599 1980.6633,1453.0599 1980.6633,1442.6432" fill="none" style="stroke:#EC7211;stroke-width:0.5208;"/></g><g><title>AdOperator ..</title><rect fill="#8191A3" height="1247.9492" style="stroke:#181818;stroke-width:1.0417;" width="10.4167" x="198.6219" y="134.3099"/></g><g><title>FormProcessor</title><rect fill="#8191A3" height="145.7357" style="stroke:#181818;stroke-width:1.0417;" width="10.4167" x="425.4333" y="226.9531"/></g><g><title>API Layer</title><rect fill="#8191A3" height="924.2188" style="stroke:#181818;stroke-width:1.0417;" width="10.4167" x="619.9096" y="412.2396"/></g><g><title>Router ....</title><rect fill="#8191A3" height="845.1172" style="stroke:#181818;stroke-width:1.0417;" width="10.4167" x="891.6494" y="451.7904"/></g><g><title>Validator</title><rect fill="#8191A3" height="257.0313" style="stroke:#181818;stroke-width:1.0417;" width="10.4167" x="1105.7467" y="491.3411"/></g><g><title>Controller</title><rect fill="#8191A3" height="501.6927" style="stroke:#181818;stroke-width:1.0417;" width="10.4167" x="1321.211" y="748.3724"/></g><g><title>Ad Service</title><rect fill="#8191A3" height="422.5911" style="stroke:#181818;stroke-width:1.0417;" width="10.4167" x="1563.6568" y="787.9232"/></g><g><title>Data Access</title><rect fill="#8191A3" height="118.6523" style="stroke:#181818;stroke-width:1.0417;" width="10.4167" x="1781.0071" y="827.474"/></g><g><title>Data Access</title><rect fill="#8191A3" height="79.1016" style="stroke:#181818;stroke-width:1.0417;" width="10.4167" x="1781.0071" y="1091.862"/></g><g class="message" data-participant-1="User" data-participant-2="AdOperator"><polygon fill="#EC7211" points="186.1219,130.1432,196.5386,134.3099,186.1219,138.4766,190.2886,134.3099" style="stroke:#EC7211;stroke-width:1.0417;"/><line style="stroke:#EC7211;stroke-width:3.125;" x1="26.0418" x2="192.3719" y1="134.3099" y2="134.3099"/><text fill="#4E5D6C" font-family="'Verdana'" font-size="12.5" font-weight="bold" lengthAdjust="spacing" textLength="8.6975" x="38.5418" y="124.0702">1</text><text fill="#4E5D6C" font-family="'Verdana'" font-size="12.5" lengthAdjust="spacing" textLength="87.5007" x="61.8226" y="124.0702">&#22635;&#20889;&#34920;&#21333;&#24182;&#25552;&#20132;</text></g><g class="message" data-participant-1="AdOperator" data-participant-2="AdOperator"><line style="stroke:#EC7211;stroke-width:3.125;" x1="209.0386" x2="252.7886" y1="173.8607" y2="173.8607"/><line style="stroke:#EC7211;stroke-width:3.125;" x1="252.7886" x2="252.7886" y1="173.8607" y2="187.4023"/><line style="stroke:#EC7211;stroke-width:3.125;" x1="210.0802" x2="252.7886" y1="187.4023" y2="187.4023"/><polygon fill="#EC7211" points="220.4969,183.2357,210.0802,187.4023,220.4969,191.569,216.3302,187.4023" style="stroke:#EC7211;stroke-width:1.0417;"/><text fill="#4E5D6C" font-family="'Verdana'" font-size="12.5" font-weight="bold" lengthAdjust="spacing" textLength="8.6975" x="221.5386" y="163.621">2</text><text fill="#4E5D6C" font-family="'Verdana'" font-size="12.5" lengthAdjust="spacing" textLength="157.6972" x="244.8194" y="163.621">&#21069;&#31471;&#22522;&#30784;&#26657;&#39564; (Required&#31561;)</text></g><g class="message" data-participant-1="AdOperator" data-participant-2="FormProcessor"><polygon fill="#EC7211" points="412.9333,222.7865,423.35,226.9531,412.9333,231.1198,417.1,226.9531" style="stroke:#EC7211;stroke-width:1.0417;"/><line style="stroke:#EC7211;stroke-width:3.125;" x1="209.0386" x2="419.1833" y1="226.9531" y2="226.9531"/><text fill="#4E5D6C" font-family="'Verdana'" font-size="12.5" font-weight="bold" lengthAdjust="spacing" textLength="8.6975" x="221.5386" y="216.7135">3</text><text fill="#4E5D6C" font-family="'Verdana'" font-size="12.5" lengthAdjust="spacing" textLength="160.7178" x="244.8194" y="216.7135">processFormData(values)</text></g><g class="message" data-participant-1="FormProcessor" data-participant-2="FormProcessor"><line style="stroke:#EC7211;stroke-width:3.125;" x1="435.85" x2="479.6" y1="266.5039" y2="266.5039"/><line style="stroke:#EC7211;stroke-width:3.125;" x1="479.6" x2="479.6" y1="266.5039" y2="280.0456"/><line style="stroke:#EC7211;stroke-width:3.125;" x1="436.8916" x2="479.6" y1="280.0456" y2="280.0456"/><polygon fill="#EC7211" points="447.3083,275.8789,436.8916,280.0456,447.3083,284.2122,443.1416,280.0456" style="stroke:#EC7211;stroke-width:1.0417;"/><text fill="#4E5D6C" font-family="'Verdana'" font-size="12.5" font-weight="bold" lengthAdjust="spacing" textLength="8.6975" x="448.35" y="256.2642">4</text><text fill="#4E5D6C" font-family="'Verdana'" font-size="12.5" lengthAdjust="spacing" textLength="113.0249" x="471.6308" y="256.2642">uploadProcessor()</text></g><path d="M612.3474,248.3073 L612.3474,274.349 A4.1667,4.1667 0 0 0 616.5141,278.5156 L715.4724,278.5156 A4.1667,4.1667 0 0 0 719.6391,274.349 L719.6391,254.5573 L709.2224,244.1406 L616.5141,244.1406 A4.1667,4.1667 0 0 0 612.3474,248.3073" fill="#0073BB" style="stroke:#005C96;stroke-width:1.0417;"/><path d="M709.2224,244.1406 L709.2224,252.474 A2.0833,2.0833 0 0 0 711.3057,254.5573 L719.6391,254.5573 L709.2224,244.1406" fill="#0073BB" style="stroke:#005C96;stroke-width:1.0417;"/><text fill="#FFFFFF" font-family="'Verdana'" font-size="12.5" lengthAdjust="spacing" textLength="75.0006" x="623.8057" y="266.1601">&#22788;&#29702;&#25991;&#20214;&#23545;&#35937;</text><g class="message" data-participant-1="FormProcessor" data-participant-2="FormProcessor"><line style="stroke:#EC7211;stroke-width:3.125;" x1="435.85" x2="479.6" y1="319.5964" y2="319.5964"/><line style="stroke:#EC7211;stroke-width:3.125;" x1="479.6" x2="479.6" y1="319.5964" y2="333.138"/><line style="stroke:#EC7211;stroke-width:3.125;" x1="436.8916" x2="479.6" y1="333.138" y2="333.138"/><polygon fill="#EC7211" points="447.3083,328.9714,436.8916,333.138,447.3083,337.3047,443.1416,333.138" style="stroke:#EC7211;stroke-width:1.0417;"/><text fill="#4E5D6C" font-family="'Verdana'" font-size="12.5" font-weight="bold" lengthAdjust="spacing" textLength="8.6975" x="448.35" y="309.3567">5</text><text fill="#4E5D6C" font-family="'Verdana'" font-size="12.5" lengthAdjust="spacing" textLength="114.4348" x="471.6308" y="309.3567">defaultProcessor()</text></g><path d="M613.7573,301.3997 L613.7573,327.4414 A4.1667,4.1667 0 0 0 617.924,331.6081 L716.8823,331.6081 A4.1667,4.1667 0 0 0 721.049,327.4414 L721.049,307.6497 L710.6323,297.2331 L617.924,297.2331 A4.1667,4.1667 0 0 0 613.7573,301.3997" fill="#0073BB" style="stroke:#005C96;stroke-width:1.0417;"/><path d="M710.6323,297.2331 L710.6323,305.5664 A2.0833,2.0833 0 0 0 712.7157,307.6497 L721.049,307.6497 L710.6323,297.2331" fill="#0073BB" style="stroke:#005C96;stroke-width:1.0417;"/><text fill="#FFFFFF" font-family="'Verdana'" font-size="12.5" lengthAdjust="spacing" textLength="75.0006" x="625.2157" y="319.2525">&#34917;&#20805;&#40664;&#35748;&#23383;&#27573;</text><g class="message" data-participant-1="FormProcessor" data-participant-2="AdOperator"><polygon fill="#EC7211" points="220.4969,368.5221,210.0802,372.6888,220.4969,376.8555,216.3302,372.6888" style="stroke:#EC7211;stroke-width:1.0417;"/><line style="stroke:#EC7211;stroke-width:3.125;stroke-dasharray:2.0833,2.0833;" x1="214.2469" x2="429.6" y1="372.6888" y2="372.6888"/><text fill="#4E5D6C" font-family="'Verdana'" font-size="12.5" font-weight="bold" lengthAdjust="spacing" textLength="8.6975" x="231.9552" y="362.4491">6</text><text fill="#4E5D6C" font-family="'Verdana'" font-size="12.5" lengthAdjust="spacing" textLength="128.2843" x="255.2361" y="362.4491">&#36820;&#22238;&#22788;&#29702;&#21518;&#30340; Payload</text></g><g class="message" data-participant-1="AdOperator" data-participant-2="API"><polygon fill="#EC7211" points="607.4096,408.0729,617.8263,412.2396,607.4096,416.4063,611.5763,412.2396" style="stroke:#EC7211;stroke-width:1.0417;"/><line style="stroke:#EC7211;stroke-width:3.125;" x1="209.0386" x2="613.6596" y1="412.2396" y2="412.2396"/><text fill="#4E5D6C" font-family="'Verdana'" font-size="12.5" font-weight="bold" lengthAdjust="spacing" textLength="8.6975" x="221.5386" y="401.9999">7</text><text fill="#4E5D6C" font-family="'Verdana'" font-size="12.5" lengthAdjust="spacing" textLength="97.821" x="244.8194" y="401.9999">createApi(data)</text></g><g class="message" data-participant-1="API" data-participant-2="Router"><polygon fill="#EC7211" points="879.1494,447.6237,889.5661,451.7904,879.1494,455.957,883.3161,451.7904" style="stroke:#EC7211;stroke-width:1.0417;"/><line style="stroke:#EC7211;stroke-width:3.125;" x1="630.3263" x2="885.3994" y1="451.7904" y2="451.7904"/><text fill="#4E5D6C" font-family="'Verdana'" font-size="12.5" font-weight="bold" lengthAdjust="spacing" textLength="8.6975" x="642.8263" y="441.5507">8</text><text fill="#4E5D6C" font-family="'Verdana'" font-size="12.5" lengthAdjust="spacing" textLength="145.7703" x="666.1071" y="441.5507">POST /v1/api/create_ad</text></g><g class="message" data-participant-1="Router" data-participant-2="Validator"><polygon fill="#EC7211" points="1093.2467,487.1745,1103.6633,491.3411,1093.2467,495.5078,1097.4133,491.3411" style="stroke:#EC7211;stroke-width:1.0417;"/><line style="stroke:#EC7211;stroke-width:3.125;" x1="902.0661" x2="1099.4967" y1="491.3411" y2="491.3411"/><text fill="#4E5D6C" font-family="'Verdana'" font-size="12.5" font-weight="bold" lengthAdjust="spacing" textLength="8.6975" x="914.5661" y="481.1015">9</text><text fill="#4E5D6C" font-family="'Verdana'" font-size="12.5" lengthAdjust="spacing" textLength="87.5007" x="937.8469" y="481.1015">&#36827;&#20837;&#26657;&#39564;&#20013;&#38388;&#20214;</text></g><g class="message" data-participant-1="Validator" data-participant-2="Validator"><line style="stroke:#EC7211;stroke-width:3.125;" x1="1116.1633" x2="1159.9133" y1="545.4427" y2="545.4427"/><line style="stroke:#EC7211;stroke-width:3.125;" x1="1159.9133" x2="1159.9133" y1="545.4427" y2="558.9844"/><line style="stroke:#EC7211;stroke-width:3.125;" x1="1117.205" x2="1159.9133" y1="558.9844" y2="558.9844"/><polygon fill="#EC7211" points="1127.6217,554.8177,1117.205,558.9844,1127.6217,563.151,1123.455,558.9844" style="stroke:#EC7211;stroke-width:1.0417;"/><text fill="#4E5D6C" font-family="'Verdana'" font-size="12.5" font-weight="bold" lengthAdjust="spacing" textLength="17.395" x="1128.6633" y="527.9277">10</text><text fill="#4E5D6C" font-family="'Verdana'" font-size="12.5" lengthAdjust="spacing" textLength="113.599" x="1160.6417" y="520.6523">&#26816;&#26597; req.body &#23383;&#27573;</text><text fill="#4E5D6C" font-family="'Verdana'" font-size="12.5" lengthAdjust="spacing" textLength="137.6526" x="1160.6417" y="535.203">(Joi/Express-validator)</text></g><path d="M535.4013,574.6094 L607.2214,574.6094 L607.2214,591.2435 L596.8047,601.6602 L531.2347,601.6602 L531.2347,578.776 A4.1667,4.1667 0 0 1 535.4013,574.6094" fill="#EEEEEE" style="stroke:#4E5D6C;stroke-width:1.5625;"/><rect fill="none" height="683.7891" rx="4.1667" ry="4.1667" style="stroke:#4E5D6C;stroke-width:1.5625;" width="1472.1276" x="531.2347" y="574.6094"/><text fill="#0073BB" font-family="'Verdana'" font-size="12.5" font-weight="bold" lengthAdjust="spacing" textLength="18.6951" x="552.068" y="592.4622">alt</text><text fill="#4E5D6C" font-family="'Verdana'" font-size="12.5" font-weight="bold" lengthAdjust="spacing" textLength="61.4262" x="628.0547" y="593.5038">[&#26657;&#39564;&#22833;&#36133;]</text><g class="message" data-participant-1="Validator" data-participant-2="Router"><polygon fill="#EC7211" points="913.5244,638.0534,903.1077,642.2201,913.5244,646.3867,909.3577,642.2201" style="stroke:#EC7211;stroke-width:1.0417;"/><line style="stroke:#EC7211;stroke-width:3.125;stroke-dasharray:2.0833,2.0833;" x1="907.2744" x2="1104.705" y1="642.2201" y2="642.2201"/><text fill="#4E5D6C" font-family="'Verdana'" font-size="12.5" font-weight="bold" lengthAdjust="spacing" textLength="17.395" x="924.9827" y="631.9804">11</text><text fill="#4E5D6C" font-family="'Verdana'" font-size="12.5" lengthAdjust="spacing" textLength="136.2856" x="956.9611" y="631.9804">&#36820;&#22238; 400 Bad Request</text></g><g class="message" data-participant-1="Router" data-participant-2="API"><polygon fill="#EC7211" points="641.7846,677.6042,631.3679,681.7708,641.7846,685.9375,637.6179,681.7708" style="stroke:#EC7211;stroke-width:1.0417;"/><line style="stroke:#EC7211;stroke-width:3.125;stroke-dasharray:2.0833,2.0833;" x1="635.5346" x2="890.6077" y1="681.7708" y2="681.7708"/><text fill="#4E5D6C" font-family="'Verdana'" font-size="12.5" font-weight="bold" lengthAdjust="spacing" textLength="17.395" x="653.2429" y="671.5312">12</text><text fill="#4E5D6C" font-family="'Verdana'" font-size="12.5" lengthAdjust="spacing" textLength="190.2958" x="685.2213" y="671.5312">{ code: 400, msg: "&#21442;&#25968;&#38169;&#35823;" }</text></g><line style="stroke:#4E5D6C;stroke-width:1.0417;stroke-dasharray:2.0833,2.0833;" x1="531.2347" x2="2003.3622" y1="691.1458" y2="691.1458"/><text fill="#4E5D6C" font-family="'Verdana'" font-size="12.5" font-weight="bold" lengthAdjust="spacing" textLength="61.4262" x="541.6513" y="707.9569">[&#26657;&#39564;&#36890;&#36807;]</text><g class="message" data-participant-1="Validator" data-participant-2="Controller"><polygon fill="#EC7211" points="1308.711,744.2057,1319.1276,748.3724,1308.711,752.5391,1312.8776,748.3724" style="stroke:#EC7211;stroke-width:1.0417;"/><line style="stroke:#EC7211;stroke-width:3.125;" x1="1110.955" x2="1314.961" y1="748.3724" y2="748.3724"/><text fill="#4E5D6C" font-family="'Verdana'" font-size="12.5" font-weight="bold" lengthAdjust="spacing" textLength="17.395" x="1123.455" y="738.1327">13</text><text fill="#4E5D6C" font-family="'Verdana'" font-size="12.5" lengthAdjust="spacing" textLength="37.6648" x="1155.4334" y="738.1327">next()</text></g><g class="message" data-participant-1="Controller" data-participant-2="Service"><polygon fill="#EC7211" points="1551.1568,783.7565,1561.5735,787.9232,1551.1568,792.0898,1555.3235,787.9232" style="stroke:#EC7211;stroke-width:1.0417;"/><line style="stroke:#EC7211;stroke-width:3.125;" x1="1331.6276" x2="1557.4068" y1="787.9232" y2="787.9232"/><text fill="#4E5D6C" font-family="'Verdana'" font-size="12.5" font-weight="bold" lengthAdjust="spacing" textLength="17.395" x="1344.1276" y="777.6835">14</text><text fill="#4E5D6C" font-family="'Verdana'" font-size="12.5" lengthAdjust="spacing" textLength="169.8425" x="1376.106" y="777.6835">createAdvertisement(data)</text></g><g class="message" data-participant-1="Service" data-participant-2="DataAccess"><polygon fill="#EC7211" points="1768.5071,823.3073,1778.9238,827.474,1768.5071,831.6406,1772.6738,827.474" style="stroke:#EC7211;stroke-width:1.0417;"/><line style="stroke:#EC7211;stroke-width:3.125;" x1="1574.0735" x2="1774.7571" y1="827.474" y2="827.474"/><text fill="#4E5D6C" font-family="'Verdana'" font-size="12.5" font-weight="bold" lengthAdjust="spacing" textLength="17.395" x="1586.5735" y="817.2343">15</text><text fill="#4E5D6C" font-family="'Verdana'" font-size="12.5" lengthAdjust="spacing" textLength="96.0999" x="1618.5519" y="817.2343">readFromJson()</text></g><g class="message" data-participant-1="DataAccess" data-participant-2="DB"><polygon fill="#EC7211" points="1949.4133,862.8581,1959.8299,867.0247,1949.4133,871.1914,1953.5799,867.0247" style="stroke:#EC7211;stroke-width:1.0417;"/><line style="stroke:#EC7211;stroke-width:3.125;" x1="1791.4238" x2="1955.6633" y1="867.0247" y2="867.0247"/><text fill="#4E5D6C" font-family="'Verdana'" font-size="12.5" font-weight="bold" lengthAdjust="spacing" textLength="17.395" x="1803.9238" y="856.7851">16</text><text fill="#4E5D6C" font-family="'Verdana'" font-size="12.5" lengthAdjust="spacing" textLength="65.1367" x="1835.9021" y="856.7851">fs.readFile</text></g><g class="message" data-participant-1="DB" data-participant-2="DataAccess"><polygon fill="#EC7211" points="1802.8821,902.4089,1792.4654,906.5755,1802.8821,910.7422,1798.7154,906.5755" style="stroke:#EC7211;stroke-width:1.0417;"/><line style="stroke:#EC7211;stroke-width:3.125;stroke-dasharray:2.0833,2.0833;" x1="1796.6321" x2="1960.8716" y1="906.5755" y2="906.5755"/><text fill="#4E5D6C" font-family="'Verdana'" font-size="12.5" font-weight="bold" lengthAdjust="spacing" textLength="17.395" x="1814.3404" y="896.3359">17</text><text fill="#4E5D6C" font-family="'Verdana'" font-size="12.5" lengthAdjust="spacing" textLength="72.0886" x="1846.3188" y="896.3359">JSON String</text></g><g class="message" data-participant-1="DataAccess" data-participant-2="Service"><polygon fill="#EC7211" points="1585.5318,941.9596,1575.1152,946.1263,1585.5318,950.293,1581.3652,946.1263" style="stroke:#EC7211;stroke-width:1.0417;"/><line style="stroke:#EC7211;stroke-width:3.125;stroke-dasharray:2.0833,2.0833;" x1="1579.2818" x2="1785.1738" y1="946.1263" y2="946.1263"/><text fill="#4E5D6C" font-family="'Verdana'" font-size="12.5" font-weight="bold" lengthAdjust="spacing" textLength="17.395" x="1596.9902" y="935.8866">18</text><text fill="#4E5D6C" font-family="'Verdana'" font-size="12.5" lengthAdjust="spacing" textLength="82.0557" x="1628.9685" y="935.8866">existingAds[]</text></g><g class="message" data-participant-1="Service" data-participant-2="Service"><line style="stroke:#EC7211;stroke-width:3.125;" x1="1574.0735" x2="1617.8235" y1="985.6771" y2="985.6771"/><line style="stroke:#EC7211;stroke-width:3.125;" x1="1617.8235" x2="1617.8235" y1="985.6771" y2="999.2188"/><line style="stroke:#EC7211;stroke-width:3.125;" x1="1575.1152" x2="1617.8235" y1="999.2188" y2="999.2188"/><polygon fill="#EC7211" points="1585.5318,995.0521,1575.1152,999.2188,1585.5318,1003.3854,1581.3652,999.2188" style="stroke:#EC7211;stroke-width:1.0417;"/><text fill="#4E5D6C" font-family="'Verdana'" font-size="12.5" font-weight="bold" lengthAdjust="spacing" textLength="17.395" x="1586.5735" y="975.4374">19</text><text fill="#4E5D6C" font-family="'Verdana'" font-size="12.5" lengthAdjust="spacing" textLength="62.5005" x="1618.5519" y="975.4374">&#21512;&#24182;&#26032;&#24191;&#21578;</text></g><g class="message" data-participant-1="Service" data-participant-2="Service"><line style="stroke:#EC7211;stroke-width:3.125;" x1="1574.0735" x2="1617.8235" y1="1038.7695" y2="1038.7695"/><line style="stroke:#EC7211;stroke-width:3.125;" x1="1617.8235" x2="1617.8235" y1="1038.7695" y2="1052.3112"/><line style="stroke:#EC7211;stroke-width:3.125;" x1="1575.1152" x2="1617.8235" y1="1052.3112" y2="1052.3112"/><polygon fill="#EC7211" points="1585.5318,1048.1445,1575.1152,1052.3112,1585.5318,1056.4779,1581.3652,1052.3112" style="stroke:#EC7211;stroke-width:1.0417;"/><text fill="#4E5D6C" font-family="'Verdana'" font-size="12.5" font-weight="bold" lengthAdjust="spacing" textLength="17.395" x="1586.5735" y="1028.5299">20</text><text fill="#4E5D6C" font-family="'Verdana'" font-size="12.5" lengthAdjust="spacing" textLength="139.5386" x="1618.5519" y="1028.5299">rankHelper.calculate()</text></g><path d="M1786.1003,1020.5729 L1786.1003,1046.6146 A4.1667,4.1667 0 0 0 1790.2669,1050.7813 L1914.2253,1050.7813 A4.1667,4.1667 0 0 0 1918.3919,1046.6146 L1918.3919,1026.8229 L1907.9753,1016.4063 L1790.2669,1016.4063 A4.1667,4.1667 0 0 0 1786.1003,1020.5729" fill="#0073BB" style="stroke:#005C96;stroke-width:1.0417;"/><path d="M1907.9753,1016.4063 L1907.9753,1024.7396 A2.0833,2.0833 0 0 0 1910.0586,1026.8229 L1918.3919,1026.8229 L1907.9753,1016.4063" fill="#0073BB" style="stroke:#005C96;stroke-width:1.0417;"/><text fill="#FFFFFF" font-family="'Verdana'" font-size="12.5" lengthAdjust="spacing" textLength="100.0008" x="1797.5586" y="1038.4257">&#37325;&#26032;&#35745;&#31639;&#25490;&#24207;&#26435;&#37325;</text><g class="message" data-participant-1="Service" data-participant-2="DataAccess"><polygon fill="#EC7211" points="1768.5071,1087.6953,1778.9238,1091.862,1768.5071,1096.0286,1772.6738,1091.862" style="stroke:#EC7211;stroke-width:1.0417;"/><line style="stroke:#EC7211;stroke-width:3.125;" x1="1574.0735" x2="1774.7571" y1="1091.862" y2="1091.862"/><text fill="#4E5D6C" font-family="'Verdana'" font-size="12.5" font-weight="bold" lengthAdjust="spacing" textLength="17.395" x="1586.5735" y="1081.6223">21</text><text fill="#4E5D6C" font-family="'Verdana'" font-size="12.5" lengthAdjust="spacing" textLength="131.0669" x="1618.5519" y="1081.6223">writeToJson(newAds)</text></g><g class="message" data-participant-1="DataAccess" data-participant-2="DB"><polygon fill="#EC7211" points="1949.4133,1127.2461,1959.8299,1131.4128,1949.4133,1135.5794,1953.5799,1131.4128" style="stroke:#EC7211;stroke-width:1.0417;"/><line style="stroke:#EC7211;stroke-width:3.125;" x1="1791.4238" x2="1955.6633" y1="1131.4128" y2="1131.4128"/><text fill="#4E5D6C" font-family="'Verdana'" font-size="12.5" font-weight="bold" lengthAdjust="spacing" textLength="17.395" x="1803.9238" y="1121.1731">22</text><text fill="#4E5D6C" font-family="'Verdana'" font-size="12.5" lengthAdjust="spacing" textLength="68.1396" x="1835.9021" y="1121.1731">fs.writeFile</text></g><g class="message" data-participant-1="DB" data-participant-2="DataAccess"><polygon fill="#EC7211" points="1797.6738,1166.7969,1787.2571,1170.9635,1797.6738,1175.1302,1793.5071,1170.9635" style="stroke:#EC7211;stroke-width:1.0417;"/><line style="stroke:#EC7211;stroke-width:3.125;stroke-dasharray:2.0833,2.0833;" x1="1791.4238" x2="1960.8716" y1="1170.9635" y2="1170.9635"/><text fill="#4E5D6C" font-family="'Verdana'" font-size="12.5" font-weight="bold" lengthAdjust="spacing" textLength="17.395" x="1809.1321" y="1160.7239">23</text><text fill="#4E5D6C" font-family="'Verdana'" font-size="12.5" lengthAdjust="spacing" textLength="50.3174" x="1841.1105" y="1160.7239">Success</text></g><g class="message" data-participant-1="Service" data-participant-2="Controller"><polygon fill="#EC7211" points="1343.086,1206.3477,1332.6693,1210.5143,1343.086,1214.681,1338.9193,1210.5143" style="stroke:#EC7211;stroke-width:1.0417;"/><line style="stroke:#EC7211;stroke-width:3.125;stroke-dasharray:2.0833,2.0833;" x1="1336.836" x2="1567.8235" y1="1210.5143" y2="1210.5143"/><text fill="#4E5D6C" font-family="'Verdana'" font-size="12.5" font-weight="bold" lengthAdjust="spacing" textLength="17.395" x="1354.5443" y="1200.2747">24</text><text fill="#4E5D6C" font-family="'Verdana'" font-size="12.5" lengthAdjust="spacing" textLength="87.5007" x="1386.5226" y="1200.2747">&#36820;&#22238;&#26032;&#24191;&#21578;&#23545;&#35937;</text></g><g class="message" data-participant-1="Controller" data-participant-2="Router"><polygon fill="#EC7211" points="913.5244,1245.8984,903.1077,1250.0651,913.5244,1254.2318,909.3577,1250.0651" style="stroke:#EC7211;stroke-width:1.0417;"/><line style="stroke:#EC7211;stroke-width:3.125;stroke-dasharray:2.0833,2.0833;" x1="907.2744" x2="1325.3776" y1="1250.0651" y2="1250.0651"/><text fill="#4E5D6C" font-family="'Verdana'" font-size="12.5" font-weight="bold" lengthAdjust="spacing" textLength="17.395" x="924.9827" y="1239.8254">25</text><text fill="#4E5D6C" font-family="'Verdana'" font-size="12.5" lengthAdjust="spacing" textLength="184.967" x="956.9611" y="1239.8254">res.json({ code: 0, data: ... })</text></g><g class="message" data-participant-1="Router" data-participant-2="API"><polygon fill="#EC7211" points="641.7846,1292.7409,631.3679,1296.9076,641.7846,1301.0742,637.6179,1296.9076" style="stroke:#EC7211;stroke-width:1.0417;"/><line style="stroke:#EC7211;stroke-width:3.125;stroke-dasharray:2.0833,2.0833;" x1="635.5346" x2="895.8161" y1="1296.9076" y2="1296.9076"/><text fill="#4E5D6C" font-family="'Verdana'" font-size="12.5" font-weight="bold" lengthAdjust="spacing" textLength="17.395" x="653.2429" y="1286.6679">26</text><text fill="#4E5D6C" font-family="'Verdana'" font-size="12.5" lengthAdjust="spacing" textLength="61.1818" x="685.2213" y="1286.6679">HTTP &#21709;&#24212;</text></g><g class="message" data-participant-1="API" data-participant-2="AdOperator"><polygon fill="#EC7211" points="220.4969,1332.2917,210.0802,1336.4583,220.4969,1340.625,216.3302,1336.4583" style="stroke:#EC7211;stroke-width:1.0417;"/><line style="stroke:#EC7211;stroke-width:3.125;stroke-dasharray:2.0833,2.0833;" x1="214.2469" x2="624.0763" y1="1336.4583" y2="1336.4583"/><text fill="#4E5D6C" font-family="'Verdana'" font-size="12.5" font-weight="bold" lengthAdjust="spacing" textLength="17.395" x="231.9552" y="1326.2187">27</text><text fill="#4E5D6C" font-family="'Verdana'" font-size="12.5" lengthAdjust="spacing" textLength="109.4543" x="263.9336" y="1326.2187">Promise.resolve()</text></g><g class="message" data-participant-1="AdOperator" data-participant-2="AdOperator"><line style="stroke:#EC7211;stroke-width:3.125;" x1="209.0386" x2="252.7886" y1="1381.2174" y2="1381.2174"/><line style="stroke:#EC7211;stroke-width:3.125;" x1="252.7886" x2="252.7886" y1="1381.2174" y2="1394.7591"/><line style="stroke:#EC7211;stroke-width:3.125;" x1="203.8302" x2="252.7886" y1="1394.7591" y2="1394.7591"/><polygon fill="#EC7211" points="214.2469,1390.5924,203.8302,1394.7591,214.2469,1398.9258,210.0802,1394.7591" style="stroke:#EC7211;stroke-width:1.0417;"/><text fill="#4E5D6C" font-family="'Verdana'" font-size="12.5" font-weight="bold" lengthAdjust="spacing" textLength="17.395" x="221.5386" y="1370.9778">28</text><text fill="#4E5D6C" font-family="'Verdana'" font-size="12.5" lengthAdjust="spacing" textLength="117.6949" x="253.5169" y="1370.9778">&#20851;&#38381;&#24377;&#31383; &amp; &#21047;&#26032;&#21015;&#34920;</text></g><!--SRC=[lLPTRnD757tVNp5rfNOj4OT2NsefI7Q3HQFIM3Zj2rJLU7S8MzQxPdRj9AgG8aX8g1eIMeCBg52tYOH0YObAIPDKpP_9xAx_HU_ibtUz_WXKwkGXdjbxpZrpxvqxyvvvZLG8mdF6c4wnDai4N3DrhLOf4oe8M39rYhuq24NOG2cxyTnQtKi9PNqUfGfKrqoYoKXaTzVib-rq2hrV-8J_2GX65LDJaPGgraoKawUhX6BEnMaYK_jmwVZmJIg1AEYqKgIwH0p31yLMae1SyJEF6_v_ZXS8c71je5JmvEQnTDrJkt7FLtl-RE5COJ91TKclcVw6_P-YizUs6xlffDkliAh8uSR2sHNjeYBBAfd3b2H1dqBWgAwglfFkD6bQ8hIkICGFMp1DsarY4-Sa7XpNb4-HDu_40QJXCZO8cioxLd8vywsXQob1S3CyTYwQg2nYhPVipYEdzPojFM3xRwprZUE3JRScb3esISJObHF19fZS0c7F3kpMelLhg_FY1oHU8ZTg2YMolNqtxUBxaCIh88kgtc- -p7Serh5Q8uO73sN5GEudFk9KVRXhLLN7ShWYfaEefWChLMQlcR2JpILxuuxrS0MgbhNtdTtMoJt8v2gkgUOe5qvhYoqlTmv_TdOssNRJslbpa8lUC3j73VRagIUHL_dZ9LJ42tnRBeDC1iIeN_hW66MHH0bOvwgAo4kd9yvW4WhZve3oZqiM5QTBCsYy_j4uhYhZ7iitleeOXmS8ryCo2CQ7Q69Y0baFNx7Vdi9slDfXkxSwYuVEF_VvnvYvxn-KTCyb3yiJjhpbOO__skuqNqFoOhXGJmYBVUQZIzZ3Rls-Q3tRGfJSo9HrUG5vARkYYLEwCdv-laeXncFr091E42SMi6eYVwERkyxhhOH1ZvnetBqAG1-VFetoM4RyZ173xCiGn2fCzdT8qcMIvU1Jg6BCPb6AhT-o7hpgD1uvxNOAtKpm41MQYQUri_ZOELePfVLSjFTbaKRcJJ7T5nGfri59YUMkozpNhc-iWn5H1Hg3fXiU0BbEeDKQS55gPkGe39NZammq7Ag7Zq0528fqzonK6fRXxgrCGUiMqqCfGZ5TWg7sV4HySSzvy7ZLoBXE5PMCXkVTaeefdYfDVu5A9bMqsRTo7qi5cLSC4nXoid7vww4qaTA9xFkaiUvwP1kh_Dg3vhD_nEv___O4y9wwVe6eq5Op4bQbcWgIHcGiUX5qLjR0kRFJidUQrhqVsS6wzSjjM1JUgMpcg6AI6Tsj6etCGHZ_hzfnFRzpyPHgett_buptzYIlXOPPxxdaXtWE3lo9caoqQSCDuRx3nA03G__bJIQBCfaCkZcoFmvfVF3q6tov9cw02pCpHSH-McC73Q6F7_-o5i8Bl_Vz0I-A2dH9Q1Q6hjQ3Keymy2V3oBVYyX-TvZRxUzz-qKGV8BQwntEnseHtg12b2Z7_0W00]--></g></svg>