<svg xmlns="http://www.w3.org/2000/svg" xmlns:xlink="http://www.w3.org/1999/xlink" contentStyleType="text/css" data-diagram-type="ACTIVITY" height="2070.8333px" preserveAspectRatio="none" style="width:687px;height:2070px;" version="1.1" viewBox="0 0 687 2070" width="687.5px" zoomAndPan="magnify"><defs><linearGradient id="gdk4kmq01lvqk0" x1="50%" x2="50%" y1="0%" y2="100%"><stop offset="0%" stop-color="#F18E3E"/><stop offset="100%" stop-color="#EC7211"/></linearGradient></defs><g><ellipse cx="306.0659" cy="20.8333" fill="#0073BB" rx="10.4167" ry="10.4167" style="stroke:#222222;stroke-width:1.0417;"/><rect fill="url(#gdk4kmq01lvqk0)" height="45.8008" rx="4.1667" ry="4.1667" style="stroke:#EC7211;stroke-width:0.5208;" width="106.2506" x="252.9407" y="52.0833"/><text fill="#FFFFFF" font-family="'Verdana'" font-size="12.5" lengthAdjust="spacing" textLength="75.0006" x="268.5657" y="79.3111">&#29992;&#25143;&#25171;&#24320;&#34920;&#21333;</text><polygon fill="#EEEEEE" points="260.0401,118.7174,352.0918,118.7174,364.5918,131.2174,352.0918,143.7174,260.0401,143.7174,247.5401,131.2174,260.0401,118.7174" style="stroke:#BEBEBE;stroke-width:0.5208;"/><text fill="#4E5D6C" font-family="'Verdana'" font-size="12.5" lengthAdjust="spacing" textLength="81.6351" x="265.2484" y="135.5448">&#26159;&#21542;&#32534;&#36753;&#27169;&#24335;?</text><text fill="#4E5D6C" font-family="'Verdana'" font-size="12.5" lengthAdjust="spacing" textLength="12.5001" x="229.8316" y="123.0611">&#26159;</text><text fill="#4E5D6C" font-family="'Verdana'" font-size="12.5" lengthAdjust="spacing" textLength="12.5001" x="369.8002" y="123.0611">&#21542;</text><rect fill="url(#gdk4kmq01lvqk0)" height="45.8008" rx="4.1667" ry="4.1667" style="stroke:#EC7211;stroke-width:0.5208;" width="106.2506" x="79.8406" y="154.1341"/><text fill="#FFFFFF" font-family="'Verdana'" font-size="12.5" lengthAdjust="spacing" textLength="75.0006" x="95.4656" y="181.3619">&#21152;&#36733;&#24050;&#26377;&#25968;&#25454;</text><path d="M213.1746,211.4258 L213.1746,239.502 L192.3412,243.6686 L213.1746,247.8353 L213.1746,275.9115 A0,0 0 0 0 213.1746,275.9115 L417.7075,275.9115 A0,0 0 0 0 417.7075,275.9115 L417.7075,221.8424 L407.2908,211.4258 L213.1746,211.4258 A0,0 0 0 0 213.1746,211.4258" fill="#0073BB" style="stroke:#005C96;stroke-width:1.0417;"/><path d="M407.2908,211.4258 L407.2908,221.8424 L417.7075,221.8424 L407.2908,211.4258" fill="#0073BB" style="stroke:#005C96;stroke-width:1.0417;"/><text fill="#FFFFFF" font-family="'Verdana'" font-size="12.5" lengthAdjust="spacing" textLength="172.2412" x="224.6329" y="233.4452">videosInfo: VideoInfoMeta[]</text><text fill="#FFFFFF" font-family="'Verdana'" font-size="12.5" lengthAdjust="spacing" textLength="37.5003" x="224.6329" y="247.996">&#36716;&#25442;&#20026;</text><text fill="#FFFFFF" font-family="'Verdana'" font-size="12.5" lengthAdjust="spacing" textLength="154.5044" x="224.6329" y="262.5468">videosInfo: UploadItem[]</text><rect fill="url(#gdk4kmq01lvqk0)" height="45.8008" rx="4.1667" ry="4.1667" style="stroke:#EC7211;stroke-width:0.5208;" width="118.7507" x="73.5906" y="220.7682"/><text fill="#FFFFFF" font-family="'Verdana'" font-size="12.5" lengthAdjust="spacing" textLength="87.5007" x="89.2156" y="247.996">&#36716;&#25442;&#20026;&#34920;&#21333;&#26684;&#24335;</text><rect fill="url(#gdk4kmq01lvqk0)" height="45.8008" rx="4.1667" ry="4.1667" style="stroke:#EC7211;stroke-width:0.5208;" width="106.2506" x="79.8406" y="296.7448"/><text fill="#FFFFFF" font-family="'Verdana'" font-size="12.5" lengthAdjust="spacing" textLength="75.0006" x="95.4656" y="323.9726">&#22635;&#20805;&#34920;&#21333;&#23383;&#27573;</text><rect fill="url(#gdk4kmq01lvqk0)" height="45.8008" rx="4.1667" ry="4.1667" style="stroke:#EC7211;stroke-width:0.5208;" width="81.2504" x="438.5408" y="154.1341"/><text fill="#FFFFFF" font-family="'Verdana'" font-size="12.5" lengthAdjust="spacing" textLength="50.0004" x="454.1658" y="181.3619">&#28165;&#31354;&#34920;&#21333;</text><polygon fill="#EEEEEE" points="306.0659,352.9622,318.5659,365.4622,306.0659,377.9622,293.5659,365.4622,306.0659,352.9622" style="stroke:#BEBEBE;stroke-width:0.5208;"/><rect fill="url(#gdk4kmq01lvqk0)" height="45.8008" rx="4.1667" ry="4.1667" style="stroke:#EC7211;stroke-width:0.5208;" width="131.2508" x="240.4406" y="398.7956"/><text fill="#FFFFFF" font-family="'Verdana'" font-size="12.5" lengthAdjust="spacing" textLength="100.0008" x="256.0656" y="426.0234">&#21518;&#31471;&#33719;&#21462;&#34920;&#21333;&#37197;&#32622;</text><polygon fill="#EEEEEE" points="260.0401,465.4297,352.0918,465.4297,364.5918,477.9297,352.0918,490.4297,260.0401,490.4297,247.5401,477.9297,260.0401,465.4297" style="stroke:#BEBEBE;stroke-width:0.5208;"/><text fill="#4E5D6C" font-family="'Verdana'" font-size="12.5" lengthAdjust="spacing" textLength="81.6351" x="265.2484" y="482.2571">&#37197;&#32622;&#21152;&#36733;&#25104;&#21151;?</text><text fill="#4E5D6C" font-family="'Verdana'" font-size="12.5" lengthAdjust="spacing" textLength="12.5001" x="229.8316" y="469.7734">&#26159;</text><text fill="#4E5D6C" font-family="'Verdana'" font-size="12.5" lengthAdjust="spacing" textLength="12.5001" x="369.8002" y="469.7734">&#21542;</text><rect fill="url(#gdk4kmq01lvqk0)" height="45.8008" rx="4.1667" ry="4.1667" style="stroke:#EC7211;stroke-width:0.5208;" width="106.2506" x="39.8102" y="500.8464"/><text fill="#FFFFFF" font-family="'Verdana'" font-size="12.5" lengthAdjust="spacing" textLength="75.0006" x="55.4352" y="528.0741">&#28210;&#26579;&#21160;&#24577;&#34920;&#21333;</text><rect fill="none" height="351.8555" rx="4.1667" ry="4.1667" style="stroke:#EC7211;stroke-width:1.5625;" width="433.7795" x="11.4583" y="557.0638"/><path d="M107.2922,557.0638 L107.2922,574.7396 L96.8756,585.1563 L11.4583,585.1563" fill="none" style="stroke:#EC7211;stroke-width:1.5625;"/><text fill="#EC7211" font-family="'Verdana'" font-size="12.5" lengthAdjust="spacing" textLength="75.0006" x="19.7917" y="574.9166">&#36941;&#21382;&#23383;&#27573;&#37197;&#32622;</text><rect fill="url(#gdk4kmq01lvqk0)" height="45.8008" rx="4.1667" ry="4.1667" style="stroke:#EC7211;stroke-width:0.5208;" width="106.2506" x="39.8102" y="648.6979"/><text fill="#FFFFFF" font-family="'Verdana'" font-size="12.5" lengthAdjust="spacing" textLength="75.0006" x="55.4352" y="675.9257">&#35835;&#21462;&#23383;&#27573;&#37197;&#32622;</text><path d="M184.8293,704.9154 L184.8293,740.2669 L163.9959,744.4336 L184.8293,748.6003 L184.8293,783.9518 A0,0 0 0 0 184.8293,783.9518 L409.8211,783.9518 A0,0 0 0 0 409.8211,783.9518 L409.8211,715.332 L399.4045,704.9154 L184.8293,704.9154 A0,0 0 0 0 184.8293,704.9154" fill="#0073BB" style="stroke:#005C96;stroke-width:1.0417;"/><path d="M399.4045,704.9154 L399.4045,715.332 L409.8211,715.332 L399.4045,704.9154" fill="#0073BB" style="stroke:#005C96;stroke-width:1.0417;"/><text fill="#FFFFFF" font-family="'Verdana'" font-size="12.5" lengthAdjust="spacing" textLength="87.4512" x="196.2876" y="726.9348">input -&gt; Input</text><text fill="#FFFFFF" font-family="'Verdana'" font-size="12.5" lengthAdjust="spacing" textLength="138.8855" x="196.2876" y="741.4856">text_area -&gt; TextArea</text><text fill="#FFFFFF" font-family="'Verdana'" font-size="12.5" lengthAdjust="spacing" textLength="109.3018" x="196.2876" y="756.0364">upload -&gt; Upload</text><text fill="#FFFFFF" font-family="'Verdana'" font-size="12.5" lengthAdjust="spacing" textLength="192.7002" x="196.2876" y="770.5872">input_number -&gt; InputNumber</text><rect fill="url(#gdk4kmq01lvqk0)" height="45.8008" rx="4.1667" ry="4.1667" style="stroke:#EC7211;stroke-width:0.5208;" width="142.1209" x="21.875" y="721.5332"/><text fill="#FFFFFF" font-family="'Verdana'" font-size="12.5" lengthAdjust="spacing" textLength="110.8709" x="37.5" y="748.761">&#26681;&#25454; type &#36873;&#25321;&#32452;&#20214;</text><rect fill="url(#gdk4kmq01lvqk0)" height="45.8008" rx="4.1667" ry="4.1667" style="stroke:#EC7211;stroke-width:0.5208;" width="93.7505" x="46.0602" y="804.7852"/><text fill="#FFFFFF" font-family="'Verdana'" font-size="12.5" lengthAdjust="spacing" textLength="62.5005" x="61.6852" y="832.0129">&#28210;&#26579;&#34920;&#21333;&#39033;</text><polygon fill="#EEEEEE" points="92.9355,602.8646,105.4355,615.3646,92.9355,627.8646,80.4355,615.3646,92.9355,602.8646" style="stroke:#BEBEBE;stroke-width:0.5208;"/><polygon fill="#EEEEEE" points="59.4097,871.4193,126.4613,871.4193,138.9613,883.9193,126.4613,896.4193,59.4097,896.4193,46.9097,883.9193,59.4097,871.4193" style="stroke:#BEBEBE;stroke-width:0.5208;"/><text fill="#4E5D6C" font-family="'Verdana'" font-size="12.5" lengthAdjust="spacing" textLength="56.6349" x="64.618" y="888.2467">&#36824;&#26377;&#23383;&#27573;?</text><text fill="#4E5D6C" font-family="'Verdana'" font-size="12.5" lengthAdjust="spacing" textLength="12.5001" x="144.1696" y="875.7629">&#26159;</text><path d="M593.155,506.0547 L593.155,519.5801 L572.3217,523.7467 L593.155,527.9134 L593.155,541.4388 A0,0 0 0 0 593.155,541.4388 L675.4471,541.4388 A0,0 0 0 0 675.4471,541.4388 L675.4471,516.4714 L665.0304,506.0547 L593.155,506.0547 A0,0 0 0 0 593.155,506.0547" fill="#0073BB" style="stroke:#005C96;stroke-width:1.0417;"/><path d="M665.0304,506.0547 L665.0304,516.4714 L675.4471,516.4714 L665.0304,506.0547" fill="#0073BB" style="stroke:#005C96;stroke-width:1.0417;"/><text fill="#FFFFFF" font-family="'Verdana'" font-size="12.5" lengthAdjust="spacing" textLength="50.0004" x="604.6134" y="528.0741">&#38477;&#32423;&#26041;&#26696;</text><rect fill="url(#gdk4kmq01lvqk0)" height="45.8008" rx="4.1667" ry="4.1667" style="stroke:#EC7211;stroke-width:0.5208;" width="106.2506" x="466.0711" y="500.8464"/><text fill="#FFFFFF" font-family="'Verdana'" font-size="12.5" lengthAdjust="spacing" textLength="75.0006" x="481.6961" y="528.0741">&#28210;&#26579;&#40664;&#35748;&#34920;&#21333;</text><polygon fill="#EEEEEE" points="306.0659,927.9806,318.5659,940.4806,306.0659,952.9806,293.5659,940.4806,306.0659,927.9806" style="stroke:#BEBEBE;stroke-width:0.5208;"/><text fill="#4E5D6C" font-family="'Verdana'" font-size="12.5" lengthAdjust="spacing" textLength="12.5001" x="275.8575" y="932.3242">&#21542;</text><rect fill="url(#gdk4kmq01lvqk0)" height="45.8008" rx="4.1667" ry="4.1667" style="stroke:#EC7211;stroke-width:0.5208;" width="106.2506" x="252.9407" y="973.8139"/><text fill="#FFFFFF" font-family="'Verdana'" font-size="12.5" lengthAdjust="spacing" textLength="75.0006" x="268.5657" y="1001.0417">&#29992;&#25143;&#22635;&#20889;&#34920;&#21333;</text><rect fill="url(#gdk4kmq01lvqk0)" height="45.8008" rx="4.1667" ry="4.1667" style="stroke:#EC7211;stroke-width:0.5208;" width="106.2506" x="252.9407" y="1040.448"/><text fill="#FFFFFF" font-family="'Verdana'" font-size="12.5" lengthAdjust="spacing" textLength="75.0006" x="268.5657" y="1067.6758">&#29992;&#25143;&#28857;&#20987;&#25552;&#20132;</text><rect fill="url(#gdk4kmq01lvqk0)" height="45.8008" rx="4.1667" ry="4.1667" style="stroke:#EC7211;stroke-width:0.5208;" width="81.2504" x="265.4408" y="1107.0821"/><text fill="#FFFFFF" font-family="'Verdana'" font-size="12.5" lengthAdjust="spacing" textLength="50.0004" x="281.0658" y="1134.3099">&#34920;&#21333;&#39564;&#35777;</text><rect fill="url(#gdk4kmq01lvqk0)" height="45.8008" rx="4.1667" ry="4.1667" style="stroke:#EC7211;stroke-width:0.5208;" width="106.2506" x="252.9407" y="1229.95"/><text fill="#FFFFFF" font-family="'Verdana'" font-size="12.5" lengthAdjust="spacing" textLength="75.0006" x="268.5657" y="1257.1777">&#26174;&#31034;&#38169;&#35823;&#20449;&#24687;</text><ellipse cx="306.0659" cy="1311.7045" fill="none" rx="11.4583" ry="11.4583" style="stroke:#222222;stroke-width:1.0417;"/><ellipse cx="306.0659" cy="1311.7045" fill="#222222" rx="6.25" ry="6.25" style="stroke:#222222;stroke-width:1.0417;"/><polygon fill="#EEEEEE" points="272.5402,1173.7162,339.5917,1173.7162,352.0917,1186.2162,339.5917,1198.7162,272.5402,1198.7162,260.0402,1186.2162,272.5402,1173.7162" style="stroke:#BEBEBE;stroke-width:0.5208;"/><text fill="#4E5D6C" font-family="'Verdana'" font-size="12.5" lengthAdjust="spacing" textLength="12.5001" x="315.4409" y="1215.5273">&#21542;</text><text fill="#4E5D6C" font-family="'Verdana'" font-size="12.5" lengthAdjust="spacing" textLength="56.6349" x="277.7485" y="1190.5436">&#39564;&#35777;&#36890;&#36807;?</text><text fill="#4E5D6C" font-family="'Verdana'" font-size="12.5" lengthAdjust="spacing" textLength="12.5001" x="357.3001" y="1178.0599">&#26159;</text><rect fill="none" height="322.6888" rx="4.1667" ry="4.1667" style="stroke:#EC7211;stroke-width:1.5625;" width="340.6003" x="227.6836" y="1356.4962"/><path d="M323.5175,1356.4962 L323.5175,1374.172 L313.1008,1384.5886 L227.6836,1384.5886" fill="none" style="stroke:#EC7211;stroke-width:1.5625;"/><text fill="#EC7211" font-family="'Verdana'" font-size="12.5" lengthAdjust="spacing" textLength="75.0006" x="236.0169" y="1374.349">&#25968;&#25454;&#22788;&#29702;&#31649;&#36947;</text><rect fill="url(#gdk4kmq01lvqk0)" height="45.8008" rx="4.1667" ry="4.1667" style="stroke:#EC7211;stroke-width:0.5208;" width="81.2504" x="265.4408" y="1402.297"/><text fill="#FFFFFF" font-family="'Verdana'" font-size="12.5" lengthAdjust="spacing" textLength="50.0004" x="281.0658" y="1429.5247">&#36827;&#20837;&#31649;&#36947;</text><path d="M394.16,1459.5886 L394.16,1487.6648 L373.3267,1491.8315 L394.16,1495.9981 L394.16,1524.0743 A0,0 0 0 0 394.16,1524.0743 L557.8672,1524.0743 A0,0 0 0 0 557.8672,1524.0743 L557.8672,1470.0053 L547.4506,1459.5886 L394.16,1459.5886 A0,0 0 0 0 394.16,1459.5886" fill="#0073BB" style="stroke:#005C96;stroke-width:1.0417;"/><path d="M547.4506,1459.5886 L547.4506,1470.0053 L557.8672,1470.0053 L547.4506,1459.5886" fill="#0073BB" style="stroke:#005C96;stroke-width:1.0417;"/><text fill="#FFFFFF" font-family="'Verdana'" font-size="12.5" lengthAdjust="spacing" textLength="75.0006" x="405.6183" y="1481.6081">&#22788;&#29702;&#25991;&#20214;&#19978;&#20256;</text><text fill="#FFFFFF" font-family="'Verdana'" font-size="12.5" lengthAdjust="spacing" textLength="118.9155" x="405.6183" y="1496.1589">- &#26032;&#25991;&#20214; -&gt; &#25209;&#37327;&#19978;&#20256;</text><text fill="#FFFFFF" font-family="'Verdana'" font-size="12.5" lengthAdjust="spacing" textLength="131.4156" x="405.6183" y="1510.7096">- &#24050;&#26377;&#25991;&#20214; -&gt; &#20445;&#25345;&#21407;&#26679;</text><rect fill="url(#gdk4kmq01lvqk0)" height="45.8008" rx="4.1667" ry="4.1667" style="stroke:#EC7211;stroke-width:0.5208;" width="134.5215" x="238.8052" y="1468.9311"/><text fill="#FFFFFF" font-family="'Verdana'" font-size="12.5" lengthAdjust="spacing" textLength="103.2715" x="254.4302" y="1496.1589">uploadProcessor</text><path d="M394.865,1535.5652 L394.865,1563.6414 L374.0316,1567.808 L394.865,1571.9747 L394.865,1600.0509 A0,0 0 0 0 394.865,1600.0509 L551.9189,1600.0509 A0,0 0 0 0 551.9189,1600.0509 L551.9189,1545.9819 L541.5022,1535.5652 L394.865,1535.5652 A0,0 0 0 0 394.865,1535.5652" fill="#0073BB" style="stroke:#005C96;stroke-width:1.0417;"/><path d="M541.5022,1535.5652 L541.5022,1545.9819 L551.9189,1545.9819 L541.5022,1535.5652" fill="#0073BB" style="stroke:#005C96;stroke-width:1.0417;"/><text fill="#FFFFFF" font-family="'Verdana'" font-size="12.5" lengthAdjust="spacing" textLength="75.0006" x="406.3233" y="1557.5846">&#34917;&#20805;&#40664;&#35748;&#23383;&#27573;</text><text fill="#FFFFFF" font-family="'Verdana'" font-size="12.5" lengthAdjust="spacing" textLength="87.83" x="406.3233" y="1572.1354">- id (&#26032;&#22686;/&#22797;&#21046;)</text><text fill="#FFFFFF" font-family="'Verdana'" font-size="12.5" lengthAdjust="spacing" textLength="124.7622" x="406.3233" y="1586.6862">- clickCount (&#21021;&#22987;&#21270;)</text><rect fill="url(#gdk4kmq01lvqk0)" height="45.8008" rx="4.1667" ry="4.1667" style="stroke:#EC7211;stroke-width:0.5208;" width="135.9314" x="238.1002" y="1544.9076"/><text fill="#FFFFFF" font-family="'Verdana'" font-size="12.5" lengthAdjust="spacing" textLength="104.6814" x="253.7252" y="1572.1354">defaultProcessor</text><rect fill="url(#gdk4kmq01lvqk0)" height="45.8008" rx="4.1667" ry="4.1667" style="stroke:#EC7211;stroke-width:0.5208;" width="131.2508" x="240.4406" y="1620.8842"/><text fill="#FFFFFF" font-family="'Verdana'" font-size="12.5" lengthAdjust="spacing" textLength="100.0008" x="256.0656" y="1648.112">&#36755;&#20986;&#22788;&#29702;&#21518;&#30340;&#25968;&#25454;</text><rect fill="url(#gdk4kmq01lvqk0)" height="45.8008" rx="4.1667" ry="4.1667" style="stroke:#EC7211;stroke-width:0.5208;" width="108.9725" x="251.5797" y="1700.0183"/><text fill="#FFFFFF" font-family="'Verdana'" font-size="12.5" lengthAdjust="spacing" textLength="77.7225" x="267.2047" y="1727.2461">&#35843;&#29992; API &#25552;&#20132;</text><polygon fill="#EEEEEE" points="266.2901,1766.6524,345.8418,1766.6524,358.3418,1779.1524,345.8418,1791.6524,266.2901,1791.6524,253.7901,1779.1524,266.2901,1766.6524" style="stroke:#BEBEBE;stroke-width:0.5208;"/><text fill="#4E5D6C" font-family="'Verdana'" font-size="12.5" lengthAdjust="spacing" textLength="69.135" x="271.4984" y="1783.4798">&#26159;&#32534;&#36753;&#27169;&#24335;?</text><text fill="#4E5D6C" font-family="'Verdana'" font-size="12.5" lengthAdjust="spacing" textLength="12.5001" x="236.0817" y="1770.9961">&#26159;</text><text fill="#4E5D6C" font-family="'Verdana'" font-size="12.5" lengthAdjust="spacing" textLength="12.5001" x="363.5501" y="1770.9961">&#21542;</text><rect fill="url(#gdk4kmq01lvqk0)" height="45.8008" rx="4.1667" ry="4.1667" style="stroke:#EC7211;stroke-width:0.5208;" width="104.1811" x="187.4795" y="1802.0691"/><text fill="#FFFFFF" font-family="'Verdana'" font-size="12.5" lengthAdjust="spacing" textLength="72.9311" x="203.1045" y="1829.2969">&#35843;&#29992; editApi</text><rect fill="url(#gdk4kmq01lvqk0)" height="45.8008" rx="4.1667" ry="4.1667" style="stroke:#EC7211;stroke-width:0.5208;" width="120.1357" x="312.494" y="1802.0691"/><text fill="#FFFFFF" font-family="'Verdana'" font-size="12.5" lengthAdjust="spacing" textLength="88.8857" x="328.119" y="1829.2969">&#35843;&#29992; createApi</text><polygon fill="#EEEEEE" points="306.0659,1858.2865,318.5659,1870.7865,306.0659,1883.2865,293.5659,1870.7865,306.0659,1858.2865" style="stroke:#BEBEBE;stroke-width:0.5208;"/><rect fill="url(#gdk4kmq01lvqk0)" height="45.8008" rx="4.1667" ry="4.1667" style="stroke:#EC7211;stroke-width:0.5208;" width="106.2506" x="252.9407" y="1904.1199"/><text fill="#FFFFFF" font-family="'Verdana'" font-size="12.5" lengthAdjust="spacing" textLength="75.0006" x="268.5657" y="1931.3477">&#21047;&#26032;&#24191;&#21578;&#21015;&#34920;</text><rect fill="url(#gdk4kmq01lvqk0)" height="45.8008" rx="4.1667" ry="4.1667" style="stroke:#EC7211;stroke-width:0.5208;" width="106.2506" x="252.9407" y="1970.754"/><text fill="#FFFFFF" font-family="'Verdana'" font-size="12.5" lengthAdjust="spacing" textLength="75.0006" x="268.5657" y="1997.9818">&#20851;&#38381;&#34920;&#21333;&#24377;&#31383;</text><ellipse cx="306.0659" cy="2048.8464" fill="none" rx="11.4583" ry="11.4583" style="stroke:#222222;stroke-width:1.0417;"/><ellipse cx="306.0659" cy="2048.8464" fill="#222222" rx="6.25" ry="6.25" style="stroke:#222222;stroke-width:1.0417;"/><line style="stroke:#EC7211;stroke-width:3.125;" x1="306.0659" x2="306.0659" y1="31.25" y2="52.0833"/><polygon fill="#EC7211" points="301.8993,41.6667,306.0659,52.0833,310.2326,41.6667,306.0659,45.8333" style="stroke:#EC7211;stroke-width:1.0417;"/><line style="stroke:#EC7211;stroke-width:3.125;" x1="132.9659" x2="132.9659" y1="199.9349" y2="220.7682"/><polygon fill="#EC7211" points="128.7992,210.3516,132.9659,220.7682,137.1326,210.3516,132.9659,214.5182" style="stroke:#EC7211;stroke-width:1.0417;"/><line style="stroke:#EC7211;stroke-width:3.125;" x1="132.9659" x2="132.9659" y1="266.569" y2="296.7448"/><polygon fill="#EC7211" points="128.7992,286.3281,132.9659,296.7448,137.1326,286.3281,132.9659,290.4948" style="stroke:#EC7211;stroke-width:1.0417;"/><line style="stroke:#EC7211;stroke-width:3.125;" x1="247.5401" x2="132.9659" y1="131.2174" y2="131.2174"/><line style="stroke:#EC7211;stroke-width:3.125;" x1="132.9659" x2="132.9659" y1="131.2174" y2="154.1341"/><polygon fill="#EC7211" points="128.7992,143.7174,132.9659,154.1341,137.1326,143.7174,132.9659,147.8841" style="stroke:#EC7211;stroke-width:1.0417;"/><line style="stroke:#EC7211;stroke-width:3.125;" x1="364.5918" x2="479.166" y1="131.2174" y2="131.2174"/><line style="stroke:#EC7211;stroke-width:3.125;" x1="479.166" x2="479.166" y1="131.2174" y2="154.1341"/><polygon fill="#EC7211" points="474.9993,143.7174,479.166,154.1341,483.3326,143.7174,479.166,147.8841" style="stroke:#EC7211;stroke-width:1.0417;"/><line style="stroke:#EC7211;stroke-width:3.125;" x1="132.9659" x2="132.9659" y1="342.5456" y2="365.4622"/><line style="stroke:#EC7211;stroke-width:3.125;" x1="132.9659" x2="293.5659" y1="365.4622" y2="365.4622"/><polygon fill="#EC7211" points="283.1493,361.2956,293.5659,365.4622,283.1493,369.6289,287.3159,365.4622" style="stroke:#EC7211;stroke-width:1.0417;"/><line style="stroke:#EC7211;stroke-width:3.125;" x1="479.166" x2="479.166" y1="199.9349" y2="365.4622"/><line style="stroke:#EC7211;stroke-width:3.125;" x1="479.166" x2="318.5659" y1="365.4622" y2="365.4622"/><polygon fill="#EC7211" points="328.9826,361.2956,318.5659,365.4622,328.9826,369.6289,324.8159,365.4622" style="stroke:#EC7211;stroke-width:1.0417;"/><line style="stroke:#EC7211;stroke-width:3.125;" x1="306.0659" x2="306.0659" y1="97.8841" y2="118.7174"/><polygon fill="#EC7211" points="301.8993,108.3008,306.0659,118.7174,310.2326,108.3008,306.0659,112.4674" style="stroke:#EC7211;stroke-width:1.0417;"/><line style="stroke:#EC7211;stroke-width:3.125;" x1="306.0659" x2="306.0659" y1="377.9622" y2="398.7956"/><polygon fill="#EC7211" points="301.8993,388.3789,306.0659,398.7956,310.2326,388.3789,306.0659,392.5456" style="stroke:#EC7211;stroke-width:1.0417;"/><line style="stroke:#EC7211;stroke-width:3.125;" x1="92.9355" x2="92.9355" y1="694.4987" y2="721.5332"/><polygon fill="#EC7211" points="88.7688,711.1165,92.9355,721.5332,97.1021,711.1165,92.9355,715.2832" style="stroke:#EC7211;stroke-width:1.0417;"/><line style="stroke:#EC7211;stroke-width:3.125;" x1="92.9355" x2="92.9355" y1="767.334" y2="804.7852"/><polygon fill="#EC7211" points="88.7688,794.3685,92.9355,804.7852,97.1021,794.3685,92.9355,798.5352" style="stroke:#EC7211;stroke-width:1.0417;"/><line style="stroke:#EC7211;stroke-width:3.125;" x1="92.9355" x2="92.9355" y1="627.8646" y2="648.6979"/><polygon fill="#EC7211" points="88.7688,638.2813,92.9355,648.6979,97.1021,638.2813,92.9355,642.4479" style="stroke:#EC7211;stroke-width:1.0417;"/><line style="stroke:#EC7211;stroke-width:3.125;" x1="138.9613" x2="422.3211" y1="883.9193" y2="883.9193"/><polygon fill="#EC7211" points="418.1545,754.8503,422.3211,744.4336,426.4878,754.8503,422.3211,750.6836" style="stroke:#EC7211;stroke-width:3.125;"/><line style="stroke:#EC7211;stroke-width:3.125;" x1="422.3211" x2="422.3211" y1="615.3646" y2="883.9193"/><line style="stroke:#EC7211;stroke-width:3.125;" x1="422.3211" x2="105.4355" y1="615.3646" y2="615.3646"/><polygon fill="#EC7211" points="115.8521,611.1979,105.4355,615.3646,115.8521,619.5313,111.6855,615.3646" style="stroke:#EC7211;stroke-width:1.0417;"/><line style="stroke:#EC7211;stroke-width:3.125;" x1="92.9355" x2="92.9355" y1="850.5859" y2="871.4193"/><polygon fill="#EC7211" points="88.7688,861.0026,92.9355,871.4193,97.1021,861.0026,92.9355,865.1693" style="stroke:#EC7211;stroke-width:1.0417;"/><line style="stroke:#EC7211;stroke-width:3.125;" x1="92.9355" x2="92.9355" y1="546.6471" y2="602.8646"/><polygon fill="#EC7211" points="88.7688,592.4479,92.9355,602.8646,97.1021,592.4479,92.9355,596.6146" style="stroke:#EC7211;stroke-width:1.0417;"/><line style="stroke:#EC7211;stroke-width:3.125;" x1="247.5401" x2="92.9355" y1="477.9297" y2="477.9297"/><line style="stroke:#EC7211;stroke-width:3.125;" x1="92.9355" x2="92.9355" y1="477.9297" y2="500.8464"/><polygon fill="#EC7211" points="88.7688,490.4297,92.9355,500.8464,97.1021,490.4297,92.9355,494.5964" style="stroke:#EC7211;stroke-width:1.0417;"/><line style="stroke:#EC7211;stroke-width:3.125;" x1="364.5918" x2="519.1964" y1="477.9297" y2="477.9297"/><line style="stroke:#EC7211;stroke-width:3.125;" x1="519.1964" x2="519.1964" y1="477.9297" y2="500.8464"/><polygon fill="#EC7211" points="515.0297,490.4297,519.1964,500.8464,523.3631,490.4297,519.1964,494.5964" style="stroke:#EC7211;stroke-width:1.0417;"/><line style="stroke:#EC7211;stroke-width:3.125;" x1="92.9355" x2="92.9355" y1="896.4193" y2="940.4806"/><line style="stroke:#EC7211;stroke-width:3.125;" x1="92.9355" x2="293.5659" y1="940.4806" y2="940.4806"/><polygon fill="#EC7211" points="283.1493,936.3139,293.5659,940.4806,283.1493,944.6472,287.3159,940.4806" style="stroke:#EC7211;stroke-width:1.0417;"/><line style="stroke:#EC7211;stroke-width:3.125;" x1="519.1964" x2="519.1964" y1="546.6471" y2="940.4806"/><line style="stroke:#EC7211;stroke-width:3.125;" x1="519.1964" x2="318.5659" y1="940.4806" y2="940.4806"/><polygon fill="#EC7211" points="328.9826,936.3139,318.5659,940.4806,328.9826,944.6472,324.8159,940.4806" style="stroke:#EC7211;stroke-width:1.0417;"/><line style="stroke:#EC7211;stroke-width:3.125;" x1="306.0659" x2="306.0659" y1="444.5964" y2="465.4297"/><polygon fill="#EC7211" points="301.8993,455.013,306.0659,465.4297,310.2326,455.013,306.0659,459.1797" style="stroke:#EC7211;stroke-width:1.0417;"/><line style="stroke:#EC7211;stroke-width:3.125;" x1="306.0659" x2="306.0659" y1="952.9806" y2="973.8139"/><polygon fill="#EC7211" points="301.8993,963.3972,306.0659,973.8139,310.2326,963.3972,306.0659,967.5639" style="stroke:#EC7211;stroke-width:1.0417;"/><line style="stroke:#EC7211;stroke-width:3.125;" x1="306.0659" x2="306.0659" y1="1019.6147" y2="1040.448"/><polygon fill="#EC7211" points="301.8993,1030.0313,306.0659,1040.448,310.2326,1030.0313,306.0659,1034.198" style="stroke:#EC7211;stroke-width:1.0417;"/><line style="stroke:#EC7211;stroke-width:3.125;" x1="306.0659" x2="306.0659" y1="1086.2488" y2="1107.0821"/><polygon fill="#EC7211" points="301.8993,1096.6654,306.0659,1107.0821,310.2326,1096.6654,306.0659,1100.8321" style="stroke:#EC7211;stroke-width:1.0417;"/><line style="stroke:#EC7211;stroke-width:3.125;" x1="306.0659" x2="306.0659" y1="1275.7507" y2="1300.2462"/><polygon fill="#EC7211" points="301.8993,1289.8295,306.0659,1300.2462,310.2326,1289.8295,306.0659,1293.9962" style="stroke:#EC7211;stroke-width:1.0417;"/><line style="stroke:#EC7211;stroke-width:3.125;" x1="306.0659" x2="306.0659" y1="1198.7162" y2="1229.95"/><polygon fill="#EC7211" points="301.8993,1219.5333,306.0659,1229.95,310.2326,1219.5333,306.0659,1223.7" style="stroke:#EC7211;stroke-width:1.0417;"/><line style="stroke:#EC7211;stroke-width:3.125;" x1="352.0917" x2="369.6079" y1="1186.2162" y2="1186.2162"/><polygon fill="#EC7211" points="365.4412,1268.9962,369.6079,1279.4128,373.7746,1268.9962,369.6079,1273.1628" style="stroke:#EC7211;stroke-width:3.125;"/><line style="stroke:#EC7211;stroke-width:3.125;" x1="369.6079" x2="369.6079" y1="1186.2162" y2="1346.0795"/><line style="stroke:#EC7211;stroke-width:3.125;" x1="369.6079" x2="306.0659" y1="1346.0795" y2="1346.0795"/><line style="stroke:#EC7211;stroke-width:3.125;" x1="306.0659" x2="306.0659" y1="1346.0795" y2="1402.297"/><polygon fill="#EC7211" points="301.8993,1391.8803,306.0659,1402.297,310.2326,1391.8803,306.0659,1396.047" style="stroke:#EC7211;stroke-width:1.0417;"/><line style="stroke:#EC7211;stroke-width:3.125;" x1="306.0659" x2="306.0659" y1="1152.8829" y2="1173.7162"/><polygon fill="#EC7211" points="301.8993,1163.2996,306.0659,1173.7162,310.2326,1163.2996,306.0659,1167.4662" style="stroke:#EC7211;stroke-width:1.0417;"/><line style="stroke:#EC7211;stroke-width:3.125;" x1="306.0659" x2="306.0659" y1="1448.0977" y2="1468.9311"/><polygon fill="#EC7211" points="301.8993,1458.5144,306.0659,1468.9311,310.2326,1458.5144,306.0659,1462.6811" style="stroke:#EC7211;stroke-width:1.0417;"/><line style="stroke:#EC7211;stroke-width:3.125;" x1="306.0659" x2="306.0659" y1="1514.7319" y2="1544.9076"/><polygon fill="#EC7211" points="301.8993,1534.491,306.0659,1544.9076,310.2326,1534.491,306.0659,1538.6576" style="stroke:#EC7211;stroke-width:1.0417;"/><line style="stroke:#EC7211;stroke-width:3.125;" x1="306.0659" x2="306.0659" y1="1590.7084" y2="1620.8842"/><polygon fill="#EC7211" points="301.8993,1610.4675,306.0659,1620.8842,310.2326,1610.4675,306.0659,1614.6342" style="stroke:#EC7211;stroke-width:1.0417;"/><line style="stroke:#EC7211;stroke-width:3.125;" x1="306.0659" x2="306.0659" y1="1666.685" y2="1700.0183"/><polygon fill="#EC7211" points="301.8993,1689.6016,306.0659,1700.0183,310.2326,1689.6016,306.0659,1693.7683" style="stroke:#EC7211;stroke-width:1.0417;"/><line style="stroke:#EC7211;stroke-width:3.125;" x1="253.7901" x2="239.5701" y1="1779.1524" y2="1779.1524"/><line style="stroke:#EC7211;stroke-width:3.125;" x1="239.5701" x2="239.5701" y1="1779.1524" y2="1802.0691"/><polygon fill="#EC7211" points="235.4034,1791.6524,239.5701,1802.0691,243.7367,1791.6524,239.5701,1795.8191" style="stroke:#EC7211;stroke-width:1.0417;"/><line style="stroke:#EC7211;stroke-width:3.125;" x1="358.3418" x2="372.5618" y1="1779.1524" y2="1779.1524"/><line style="stroke:#EC7211;stroke-width:3.125;" x1="372.5618" x2="372.5618" y1="1779.1524" y2="1802.0691"/><polygon fill="#EC7211" points="368.3951,1791.6524,372.5618,1802.0691,376.7285,1791.6524,372.5618,1795.8191" style="stroke:#EC7211;stroke-width:1.0417;"/><line style="stroke:#EC7211;stroke-width:3.125;" x1="239.5701" x2="239.5701" y1="1847.8699" y2="1870.7865"/><line style="stroke:#EC7211;stroke-width:3.125;" x1="239.5701" x2="293.5659" y1="1870.7865" y2="1870.7865"/><polygon fill="#EC7211" points="283.1493,1866.6199,293.5659,1870.7865,283.1493,1874.9532,287.3159,1870.7865" style="stroke:#EC7211;stroke-width:1.0417;"/><line style="stroke:#EC7211;stroke-width:3.125;" x1="372.5618" x2="372.5618" y1="1847.8699" y2="1870.7865"/><line style="stroke:#EC7211;stroke-width:3.125;" x1="372.5618" x2="318.5659" y1="1870.7865" y2="1870.7865"/><polygon fill="#EC7211" points="328.9826,1866.6199,318.5659,1870.7865,328.9826,1874.9532,324.8159,1870.7865" style="stroke:#EC7211;stroke-width:1.0417;"/><line style="stroke:#EC7211;stroke-width:3.125;" x1="306.0659" x2="306.0659" y1="1745.8191" y2="1766.6524"/><polygon fill="#EC7211" points="301.8993,1756.2358,306.0659,1766.6524,310.2326,1756.2358,306.0659,1760.4024" style="stroke:#EC7211;stroke-width:1.0417;"/><line style="stroke:#EC7211;stroke-width:3.125;" x1="306.0659" x2="306.0659" y1="1883.2865" y2="1904.1199"/><polygon fill="#EC7211" points="301.8993,1893.7032,306.0659,1904.1199,310.2326,1893.7032,306.0659,1897.8699" style="stroke:#EC7211;stroke-width:1.0417;"/><line style="stroke:#EC7211;stroke-width:3.125;" x1="306.0659" x2="306.0659" y1="1949.9207" y2="1970.754"/><polygon fill="#EC7211" points="301.8993,1960.3373,306.0659,1970.754,310.2326,1960.3373,306.0659,1964.504" style="stroke:#EC7211;stroke-width:1.0417;"/><line style="stroke:#EC7211;stroke-width:3.125;" x1="306.0659" x2="306.0659" y1="2016.5548" y2="2037.3881"/><polygon fill="#EC7211" points="301.8993,2026.9714,306.0659,2037.3881,310.2326,2026.9714,306.0659,2031.1381" style="stroke:#EC7211;stroke-width:1.0417;"/><!--SRC=[VLHBJzj04BxdLsmvmG7rdaYjK4ySMd5eUwagv2QROZNOaRqfhIgaf2Na0NcWG19eAJ4A9K198ggID_apsRNzBxhhtPX0AYmVTcTsPsU-xvjvX5RWAWJIcZwlQfBo7dfq96d8u_6QkpMIR95K0VUZbb73cJsVnoC7mImfDt3-bzalMZSxf6RWVkxf7A1X5CSrvm70YzCLQp30hIlo8qNscYHJzp6pDVXDCiUZTfV78vK-lSmyYeeWqEJtAuXk0FWe1w2gBof1rGjUipLRFeT8UlFMyRjnfaw_2eTKAR28uAfp52e19xQJat61ut7-ChuiaVfVdmU6T0XcQJLErgGTDy-wurhfNJb8SS3vh7dHiB8jd2jodntFc8EwG8DlUC4acSVfeoaqIFkA71LmkaQYiN5q0EWVfaZBI5OLC6F7CZYxoVFY8MV05wSy3OQXn75X43PwD8_9SxwnYrGw56Y0FeSXiACfidLczZP6lUlnWNiWiqzMmX44vf-0HRPmpGX-GikI1YNcUaat2tJjUYCEnip5qRuRRLc9hBw3cXlqXRCLPoRuu2axo0XKZOvlec2mjYA7A3dMi4n5n0kcoCgwYokWRr3gsANrAIPPNBjNjkhLMyHl0V02UpzZTaz9iKECf4irbpmJokQ-AtbXDRzsSA97SlbHjygi8kdpRQiH6ql1sTZH0skOS4NWfbI-CQjTUtVVQZH6GuF46Ymb7QbXaRjJbSXaGXYyVN1rmynlcdN3ZXMuCBpMy3kEdt2Jq9ENKxEagNwewwhsdzRYWKWnGOKnQgT7_Gf74f1YariPSoJLiHEvEtxHpEwHqV2GRCTmzeXKMdSxZIKIW44f4a8FPM8P9xGVEKUSNl6I7A1W59lu-ETZNCtWvBKW6_X3il_3CpMY80fhyX2VRk7jujpquzPD0IUwl5BMlGSRuncqpeXhVgECWeMbHU2oASRQWpDDt8C16Is4vVkpGtZzj54GvFxn_A13b5RJ6UATD4wMg6wOV73yZrsw5DEetp7FIzJArF0F]--></g></svg>