<svg xmlns="http://www.w3.org/2000/svg" xmlns:xlink="http://www.w3.org/1999/xlink" contentStyleType="text/css" data-diagram-type="DESCRIPTION" height="861px" preserveAspectRatio="none" style="width:1955px;height:861px;background:#FFFFFF;" version="1.1" viewBox="0 0 1955 861" width="1955px" zoomAndPan="magnify"><defs/><g><!--cluster ????--><g class="cluster" data-entity="...." data-source-line="7" data-uid="ent0002" id="cluster_...."><path d="M9.5,6 L64.4998,6 A5.25,5.25 0 0 1 67.9998,9.5 L74.9998,28.2969 L1944.5,28.2969 A3.5,3.5 0 0 1 1948,31.7969 L1948,851.28 A3.5,3.5 0 0 1 1944.5,854.78 L9.5,854.78 A3.5,3.5 0 0 1 6,851.28 L6,9.5 A3.5,3.5 0 0 1 9.5,6" fill="none" style="stroke:#696969;stroke-width:1;"/><line style="stroke:#696969;stroke-width:1;" x1="6" x2="74.9998" y1="28.2969" y2="28.2969"/><text fill="#000000" font-family="sans-serif" font-size="14" font-weight="bold" lengthAdjust="spacing" textLength="55.9998" x="10" y="20.9951">&#21069;&#31471;&#26550;&#26500;</text></g><!--cluster Pages--><g class="cluster" data-entity="Pages" data-source-line="10" data-uid="ent0004" id="cluster_Pages"><path d="M952.5,150.3 L999.0576,150.3 A5.25,5.25 0 0 1 1002.5576,153.8 L1009.5576,172.5969 L1059.5,172.5969 A3.5,3.5 0 0 1 1063,176.0969 L1063,244.09 A3.5,3.5 0 0 1 1059.5,247.59 L952.5,247.59 A3.5,3.5 0 0 1 949,244.09 L949,153.8 A3.5,3.5 0 0 1 952.5,150.3" fill="none" style="stroke:#696969;stroke-width:1;"/><line style="stroke:#696969;stroke-width:1;" x1="949" x2="1009.5576" y1="172.5969" y2="172.5969"/><text fill="#000000" font-family="sans-serif" font-size="14" font-weight="bold" lengthAdjust="spacing" textLength="47.5576" x="953" y="165.2951">Pages</text></g><!--cluster Components--><g class="cluster" data-entity="Components" data-source-line="14" data-uid="ent0006" id="cluster_Components"><path d="M721.5,442.89 L819.0742,442.89 A5.25,5.25 0 0 1 822.5742,446.39 L829.5742,465.1869 L1152.5,465.1869 A3.5,3.5 0 0 1 1156,468.6869 L1156,680.98 A3.5,3.5 0 0 1 1152.5,684.48 L721.5,684.48 A3.5,3.5 0 0 1 718,680.98 L718,446.39 A3.5,3.5 0 0 1 721.5,442.89" fill="none" style="stroke:#696969;stroke-width:1;"/><line style="stroke:#696969;stroke-width:1;" x1="718" x2="829.5742" y1="465.1869" y2="465.1869"/><text fill="#000000" font-family="sans-serif" font-size="14" font-weight="bold" lengthAdjust="spacing" textLength="98.5742" x="722" y="457.8851">Components</text></g><!--cluster Contexts--><g class="cluster" data-entity="Contexts" data-source-line="21" data-uid="ent0011" id="cluster_Contexts"><path d="M1131.5,296.59 L1200.6025,296.59 A5.25,5.25 0 0 1 1204.1025,300.09 L1211.1025,318.8869 L1332.5,318.8869 A3.5,3.5 0 0 1 1336,322.3869 L1336,390.39 A3.5,3.5 0 0 1 1332.5,393.89 L1131.5,393.89 A3.5,3.5 0 0 1 1128,390.39 L1128,300.09 A3.5,3.5 0 0 1 1131.5,296.59" fill="none" style="stroke:#696969;stroke-width:1;"/><line style="stroke:#696969;stroke-width:1;" x1="1128" x2="1211.1025" y1="318.8869" y2="318.8869"/><text fill="#000000" font-family="sans-serif" font-size="14" font-weight="bold" lengthAdjust="spacing" textLength="70.1025" x="1132" y="311.5851">Contexts</text></g><!--cluster Hooks--><g class="cluster" data-entity="Hooks" data-source-line="25" data-uid="ent0013" id="cluster_Hooks"><path d="M133.5,587.19 L181.0967,587.19 A5.25,5.25 0 0 1 184.5967,590.69 L191.5967,609.4869 L690.5,609.4869 A3.5,3.5 0 0 1 694,612.9869 L694,827.28 A3.5,3.5 0 0 1 690.5,830.78 L133.5,830.78 A3.5,3.5 0 0 1 130,827.28 L130,590.69 A3.5,3.5 0 0 1 133.5,587.19" fill="none" style="stroke:#696969;stroke-width:1;"/><line style="stroke:#696969;stroke-width:1;" x1="130" x2="191.5967" y1="609.4869" y2="609.4869"/><text fill="#000000" font-family="sans-serif" font-size="14" font-weight="bold" lengthAdjust="spacing" textLength="48.5967" x="134" y="602.1851">Hooks</text></g><!--cluster APIs--><g class="cluster" data-entity="APIs" data-source-line="32" data-uid="ent0018" id="cluster_APIs"><path d="M1299.5,733.48 L1333.1377,733.48 A5.25,5.25 0 0 1 1336.6377,736.98 L1343.6377,755.7769 L1920.5,755.7769 A3.5,3.5 0 0 1 1924,759.2769 L1924,827.28 A3.5,3.5 0 0 1 1920.5,830.78 L1299.5,830.78 A3.5,3.5 0 0 1 1296,827.28 L1296,736.98 A3.5,3.5 0 0 1 1299.5,733.48" fill="none" style="stroke:#696969;stroke-width:1;"/><line style="stroke:#696969;stroke-width:1;" x1="1296" x2="1343.6377" y1="755.7769" y2="755.7769"/><text fill="#000000" font-family="sans-serif" font-size="14" font-weight="bold" lengthAdjust="spacing" textLength="34.6377" x="1300" y="748.4751">APIs</text></g><!--cluster Utils--><g class="cluster" data-entity="Utils" data-source-line="39" data-uid="ent0023" id="cluster_Utils"><path d="M721.5,733.48 L756.4912,733.48 A5.25,5.25 0 0 1 759.9912,736.98 L766.9912,755.7769 L1268.5,755.7769 A3.5,3.5 0 0 1 1272,759.2769 L1272,827.28 A3.5,3.5 0 0 1 1268.5,830.78 L721.5,830.78 A3.5,3.5 0 0 1 718,827.28 L718,736.98 A3.5,3.5 0 0 1 721.5,733.48" fill="none" style="stroke:#696969;stroke-width:1;"/><line style="stroke:#696969;stroke-width:1;" x1="718" x2="766.9912" y1="755.7769" y2="755.7769"/><text fill="#000000" font-family="sans-serif" font-size="14" font-weight="bold" lengthAdjust="spacing" textLength="35.9912" x="722" y="748.4751">Utils</text></g><!--entity App--><g class="entity" data-entity="App" data-source-line="8" data-uid="ent0003" id="entity_App"><rect fill="#ADD8E6" height="46.2969" rx="3.5" ry="3.5" style="stroke:#000080;stroke-width:0.5;" width="92.8691" x="959.57" y="41"/><rect fill="#ADD8E6" height="10" style="stroke:#000080;stroke-width:0.5;" width="15" x="1032.4391" y="46"/><rect fill="#ADD8E6" height="2" style="stroke:#000080;stroke-width:0.5;" width="4" x="1030.4391" y="48"/><rect fill="#ADD8E6" height="2" style="stroke:#000080;stroke-width:0.5;" width="4" x="1030.4391" y="52"/><text fill="#000000" font-family="sans-serif" font-size="14" lengthAdjust="spacing" textLength="52.8691" x="974.57" y="73.9951">App.tsx</text></g><!--entity HomePage--><g class="entity" data-entity="HomePage" data-source-line="11" data-uid="ent0005" id="entity_HomePage"><rect fill="#ADD8E6" height="46.2969" rx="3.5" ry="3.5" style="stroke:#000080;stroke-width:0.5;" width="81.3438" x="965.33" y="185.3"/><rect fill="#ADD8E6" height="10" style="stroke:#000080;stroke-width:0.5;" width="15" x="1026.6738" y="190.3"/><rect fill="#ADD8E6" height="2" style="stroke:#000080;stroke-width:0.5;" width="4" x="1024.6738" y="192.3"/><rect fill="#ADD8E6" height="2" style="stroke:#000080;stroke-width:0.5;" width="4" x="1024.6738" y="196.3"/><text fill="#000000" font-family="sans-serif" font-size="14" lengthAdjust="spacing" textLength="41.3438" x="980.33" y="218.2951">Home</text></g><!--entity AdCard--><g class="entity" data-entity="AdCard" data-source-line="15" data-uid="ent0007" id="entity_AdCard"><rect fill="#ADD8E6" height="46.2969" rx="3.5" ry="3.5" style="stroke:#000080;stroke-width:0.5;" width="91.4609" x="734.27" y="477.89"/><rect fill="#ADD8E6" height="10" style="stroke:#000080;stroke-width:0.5;" width="15" x="805.7309" y="482.89"/><rect fill="#ADD8E6" height="2" style="stroke:#000080;stroke-width:0.5;" width="4" x="803.7309" y="484.89"/><rect fill="#ADD8E6" height="2" style="stroke:#000080;stroke-width:0.5;" width="4" x="803.7309" y="488.89"/><text fill="#000000" font-family="sans-serif" font-size="14" lengthAdjust="spacing" textLength="51.4609" x="749.27" y="510.8851">AdCard</text></g><!--entity AdOperator--><g class="entity" data-entity="AdOperator" data-source-line="16" data-uid="ent0008" id="entity_AdOperator"><rect fill="#ADD8E6" height="46.2969" rx="3.5" ry="3.5" style="stroke:#000080;stroke-width:0.5;" width="121.1289" x="860.44" y="477.89"/><rect fill="#ADD8E6" height="10" style="stroke:#000080;stroke-width:0.5;" width="15" x="961.5689" y="482.89"/><rect fill="#ADD8E6" height="2" style="stroke:#000080;stroke-width:0.5;" width="4" x="959.5689" y="484.89"/><rect fill="#ADD8E6" height="2" style="stroke:#000080;stroke-width:0.5;" width="4" x="959.5689" y="488.89"/><text fill="#000000" font-family="sans-serif" font-size="14" lengthAdjust="spacing" textLength="81.1289" x="875.44" y="510.8851">AdOperator</text></g><!--entity VideoPlayer--><g class="entity" data-entity="VideoPlayer" data-source-line="17" data-uid="ent0009" id="entity_VideoPlayer"><rect fill="#ADD8E6" height="46.2969" rx="3.5" ry="3.5" style="stroke:#000080;stroke-width:0.5;" width="123.0977" x="1016.45" y="477.89"/><rect fill="#ADD8E6" height="10" style="stroke:#000080;stroke-width:0.5;" width="15" x="1119.5477" y="482.89"/><rect fill="#ADD8E6" height="2" style="stroke:#000080;stroke-width:0.5;" width="4" x="1117.5477" y="484.89"/><rect fill="#ADD8E6" height="2" style="stroke:#000080;stroke-width:0.5;" width="4" x="1117.5477" y="488.89"/><text fill="#000000" font-family="sans-serif" font-size="14" lengthAdjust="spacing" textLength="83.0977" x="1031.45" y="510.8851">VideoPlayer</text></g><!--entity DynamicForm--><g class="entity" data-entity="DynamicForm" data-source-line="18" data-uid="ent0010" id="entity_DynamicForm"><rect fill="#ADD8E6" height="46.2969" rx="3.5" ry="3.5" style="stroke:#000080;stroke-width:0.5;" width="156.2178" x="947.89" y="622.19"/><rect fill="#ADD8E6" height="10" style="stroke:#000080;stroke-width:0.5;" width="15" x="1084.1078" y="627.19"/><rect fill="#ADD8E6" height="2" style="stroke:#000080;stroke-width:0.5;" width="4" x="1082.1078" y="629.19"/><rect fill="#ADD8E6" height="2" style="stroke:#000080;stroke-width:0.5;" width="4" x="1082.1078" y="633.19"/><text fill="#000000" font-family="sans-serif" font-size="14" lengthAdjust="spacing" textLength="116.2178" x="962.89" y="655.1851">DynamicAdForm</text></g><!--entity Context--><g class="entity" data-entity="Context" data-source-line="22" data-uid="ent0012" id="entity_Context"><rect fill="#ADD8E6" height="46.2969" rx="3.5" ry="3.5" style="stroke:#000080;stroke-width:0.5;" width="176.2197" x="1143.89" y="331.59"/><rect fill="#ADD8E6" height="10" style="stroke:#000080;stroke-width:0.5;" width="15" x="1300.1097" y="336.59"/><rect fill="#ADD8E6" height="2" style="stroke:#000080;stroke-width:0.5;" width="4" x="1298.1097" y="338.59"/><rect fill="#ADD8E6" height="2" style="stroke:#000080;stroke-width:0.5;" width="4" x="1298.1097" y="342.59"/><text fill="#000000" font-family="sans-serif" font-size="14" lengthAdjust="spacing" textLength="136.2197" x="1158.89" y="364.5851">AdOperatorContext</text></g><!--entity ClickFlow--><g class="entity" data-entity="ClickFlow" data-source-line="26" data-uid="ent0014" id="entity_ClickFlow"><rect fill="#ADD8E6" height="46.2969" rx="3.5" ry="3.5" style="stroke:#000080;stroke-width:0.5;" width="148.5615" x="145.72" y="622.19"/><rect fill="#ADD8E6" height="10" style="stroke:#000080;stroke-width:0.5;" width="15" x="274.2815" y="627.19"/><rect fill="#ADD8E6" height="2" style="stroke:#000080;stroke-width:0.5;" width="4" x="272.2815" y="629.19"/><rect fill="#ADD8E6" height="2" style="stroke:#000080;stroke-width:0.5;" width="4" x="272.2815" y="633.19"/><text fill="#000000" font-family="sans-serif" font-size="14" lengthAdjust="spacing" textLength="108.5615" x="160.72" y="655.1851">useAdClickFlow</text></g><!--entity VideoModal--><g class="entity" data-entity="VideoModal" data-source-line="27" data-uid="ent0015" id="entity_VideoModal"><rect fill="#ADD8E6" height="46.2969" rx="3.5" ry="3.5" style="stroke:#000080;stroke-width:0.5;" width="146.3125" x="145.84" y="768.48"/><rect fill="#ADD8E6" height="10" style="stroke:#000080;stroke-width:0.5;" width="15" x="272.1525" y="773.48"/><rect fill="#ADD8E6" height="2" style="stroke:#000080;stroke-width:0.5;" width="4" x="270.1525" y="775.48"/><rect fill="#ADD8E6" height="2" style="stroke:#000080;stroke-width:0.5;" width="4" x="270.1525" y="779.48"/><text fill="#000000" font-family="sans-serif" font-size="14" lengthAdjust="spacing" textLength="106.3125" x="160.84" y="801.4751">useVideoModal</text></g><!--entity FormProcessor--><g class="entity" data-entity="FormProcessor" data-source-line="28" data-uid="ent0016" id="entity_FormProcessor"><rect fill="#ADD8E6" height="46.2969" rx="3.5" ry="3.5" style="stroke:#000080;stroke-width:0.5;" width="168.7754" x="509.61" y="622.19"/><rect fill="#ADD8E6" height="10" style="stroke:#000080;stroke-width:0.5;" width="15" x="658.3854" y="627.19"/><rect fill="#ADD8E6" height="2" style="stroke:#000080;stroke-width:0.5;" width="4" x="656.3854" y="629.19"/><rect fill="#ADD8E6" height="2" style="stroke:#000080;stroke-width:0.5;" width="4" x="656.3854" y="633.19"/><text fill="#000000" font-family="sans-serif" font-size="14" lengthAdjust="spacing" textLength="128.7754" x="524.61" y="655.1851">useFormProcessor</text></g><!--entity FormConfig--><g class="entity" data-entity="FormConfig" data-source-line="29" data-uid="ent0017" id="entity_FormConfig"><rect fill="#ADD8E6" height="46.2969" rx="3.5" ry="3.5" style="stroke:#000080;stroke-width:0.5;" width="145.7109" x="329.14" y="622.19"/><rect fill="#ADD8E6" height="10" style="stroke:#000080;stroke-width:0.5;" width="15" x="454.8509" y="627.19"/><rect fill="#ADD8E6" height="2" style="stroke:#000080;stroke-width:0.5;" width="4" x="452.8509" y="629.19"/><rect fill="#ADD8E6" height="2" style="stroke:#000080;stroke-width:0.5;" width="4" x="452.8509" y="633.19"/><text fill="#000000" font-family="sans-serif" font-size="14" lengthAdjust="spacing" textLength="105.7109" x="344.14" y="655.1851">useFormConfig</text></g><!--entity GetAds--><g class="entity" data-entity="GetAds" data-source-line="33" data-uid="ent0019" id="entity_GetAds"><rect fill="#ADD8E6" height="46.2969" rx="3.5" ry="3.5" style="stroke:#000080;stroke-width:0.5;" width="128.457" x="1779.77" y="768.48"/><rect fill="#ADD8E6" height="10" style="stroke:#000080;stroke-width:0.5;" width="15" x="1888.227" y="773.48"/><rect fill="#ADD8E6" height="2" style="stroke:#000080;stroke-width:0.5;" width="4" x="1886.227" y="775.48"/><rect fill="#ADD8E6" height="2" style="stroke:#000080;stroke-width:0.5;" width="4" x="1886.227" y="779.48"/><text fill="#000000" font-family="sans-serif" font-size="14" lengthAdjust="spacing" textLength="88.457" x="1794.77" y="801.4751">getAllAdsApi</text></g><!--entity CreateAd--><g class="entity" data-entity="CreateAd" data-source-line="34" data-uid="ent0020" id="entity_CreateAd"><rect fill="#ADD8E6" height="46.2969" rx="3.5" ry="3.5" style="stroke:#000080;stroke-width:0.5;" width="107.1016" x="1637.45" y="768.48"/><rect fill="#ADD8E6" height="10" style="stroke:#000080;stroke-width:0.5;" width="15" x="1724.5516" y="773.48"/><rect fill="#ADD8E6" height="2" style="stroke:#000080;stroke-width:0.5;" width="4" x="1722.5516" y="775.48"/><rect fill="#ADD8E6" height="2" style="stroke:#000080;stroke-width:0.5;" width="4" x="1722.5516" y="779.48"/><text fill="#000000" font-family="sans-serif" font-size="14" lengthAdjust="spacing" textLength="67.1016" x="1652.45" y="801.4751">createApi</text></g><!--entity Upload--><g class="entity" data-entity="Upload" data-source-line="35" data-uid="ent0021" id="entity_Upload"><rect fill="#ADD8E6" height="46.2969" rx="3.5" ry="3.5" style="stroke:#000080;stroke-width:0.5;" width="134.4795" x="1467.76" y="768.48"/><rect fill="#ADD8E6" height="10" style="stroke:#000080;stroke-width:0.5;" width="15" x="1582.2395" y="773.48"/><rect fill="#ADD8E6" height="2" style="stroke:#000080;stroke-width:0.5;" width="4" x="1580.2395" y="775.48"/><rect fill="#ADD8E6" height="2" style="stroke:#000080;stroke-width:0.5;" width="4" x="1580.2395" y="779.48"/><text fill="#000000" font-family="sans-serif" font-size="14" lengthAdjust="spacing" textLength="94.4795" x="1482.76" y="801.4751">uploadFileApi</text></g><!--entity ClickCount--><g class="entity" data-entity="ClickCount" data-source-line="36" data-uid="ent0022" id="entity_ClickCount"><rect fill="#ADD8E6" height="46.2969" rx="3.5" ry="3.5" style="stroke:#000080;stroke-width:0.5;" width="120.9854" x="1311.51" y="768.48"/><rect fill="#ADD8E6" height="10" style="stroke:#000080;stroke-width:0.5;" width="15" x="1412.4954" y="773.48"/><rect fill="#ADD8E6" height="2" style="stroke:#000080;stroke-width:0.5;" width="4" x="1410.4954" y="775.48"/><rect fill="#ADD8E6" height="2" style="stroke:#000080;stroke-width:0.5;" width="4" x="1410.4954" y="779.48"/><text fill="#000000" font-family="sans-serif" font-size="14" lengthAdjust="spacing" textLength="80.9854" x="1326.51" y="801.4751">countUpApi</text></g><!--entity Processor--><g class="entity" data-entity="Processor" data-source-line="40" data-uid="ent0024" id="entity_Processor"><rect fill="#ADD8E6" height="46.2969" rx="3.5" ry="3.5" style="stroke:#000080;stroke-width:0.5;" width="154.7139" x="1101.64" y="768.48"/><rect fill="#ADD8E6" height="10" style="stroke:#000080;stroke-width:0.5;" width="15" x="1236.3539" y="773.48"/><rect fill="#ADD8E6" height="2" style="stroke:#000080;stroke-width:0.5;" width="4" x="1234.3539" y="775.48"/><rect fill="#ADD8E6" height="2" style="stroke:#000080;stroke-width:0.5;" width="4" x="1234.3539" y="779.48"/><text fill="#000000" font-family="sans-serif" font-size="14" lengthAdjust="spacing" textLength="114.7139" x="1116.64" y="801.4751">processorHelper</text></g><!--entity UploadHelper--><g class="entity" data-entity="UploadHelper" data-source-line="41" data-uid="ent0025" id="entity_UploadHelper"><rect fill="#ADD8E6" height="46.2969" rx="3.5" ry="3.5" style="stroke:#000080;stroke-width:0.5;" width="158.4121" x="907.79" y="768.48"/><rect fill="#ADD8E6" height="10" style="stroke:#000080;stroke-width:0.5;" width="15" x="1046.2021" y="773.48"/><rect fill="#ADD8E6" height="2" style="stroke:#000080;stroke-width:0.5;" width="4" x="1044.2021" y="775.48"/><rect fill="#ADD8E6" height="2" style="stroke:#000080;stroke-width:0.5;" width="4" x="1044.2021" y="779.48"/><text fill="#000000" font-family="sans-serif" font-size="14" lengthAdjust="spacing" textLength="118.4121" x="922.79" y="801.4751">uploadFileHelper</text></g><!--entity Navigate--><g class="entity" data-entity="Navigate" data-source-line="42" data-uid="ent0026" id="entity_Navigate"><rect fill="#ADD8E6" height="46.2969" rx="3.5" ry="3.5" style="stroke:#000080;stroke-width:0.5;" width="138.9775" x="733.51" y="768.48"/><rect fill="#ADD8E6" height="10" style="stroke:#000080;stroke-width:0.5;" width="15" x="852.4875" y="773.48"/><rect fill="#ADD8E6" height="2" style="stroke:#000080;stroke-width:0.5;" width="4" x="850.4875" y="775.48"/><rect fill="#ADD8E6" height="2" style="stroke:#000080;stroke-width:0.5;" width="4" x="850.4875" y="779.48"/><text fill="#000000" font-family="sans-serif" font-size="14" lengthAdjust="spacing" textLength="98.9775" x="748.51" y="801.4751">navigateByUrl</text></g><!--link App to HomePage--><g class="link" data-entity-1="App" data-entity-2="HomePage" data-source-line="47" data-uid="lnk27" id="link_App_HomePage"><path d="M1006,87.69 C1006,114.34 1006,152.4 1006,179" fill="none" id="App-to-HomePage" style="stroke:#454645;stroke-width:1;"/><polygon fill="#454645" points="1006,185,1010,176,1006,180,1002,176,1006,185" style="stroke:#454645;stroke-width:1;"/><text fill="#000000" font-family="sans-serif" font-size="13" lengthAdjust="spacing" textLength="26" x="1007" y="130.3669">&#28210;&#26579;</text></g><!--link HomePage to AdCard--><g class="link" data-entity-1="HomePage" data-entity-2="AdCard" data-source-line="48" data-uid="lnk28" id="link_HomePage_AdCard"><path d="M988.64,231.76 C946.57,285.86 843.2335,418.7338 801.1035,472.9038" fill="none" id="HomePage-to-AdCard" style="stroke:#454645;stroke-width:1;"/><polygon fill="#454645" points="797.42,477.64,806.1028,472.9914,800.4896,473.6932,799.7878,468.08,797.42,477.64" style="stroke:#454645;stroke-width:1;"/><text fill="#000000" font-family="sans-serif" font-size="13" lengthAdjust="spacing" textLength="52.0001" x="945" y="359.3069">&#23637;&#31034;&#24191;&#21578;</text></g><!--link HomePage to Context--><g class="link" data-entity-1="HomePage" data-entity-2="Context" data-source-line="49" data-uid="lnk29" id="link_HomePage_Context"><path d="M1041.31,231.99 C1083.65,259.02 1149.1131,300.8207 1191.5031,327.8907" fill="none" id="HomePage-to-Context" style="stroke:#454645;stroke-width:1;"/><polygon fill="#454645" points="1196.56,331.12,1191.1276,322.9048,1192.346,328.4289,1186.8219,329.6473,1196.56,331.12" style="stroke:#454645;stroke-width:1;"/><text fill="#000000" font-family="sans-serif" font-size="13" lengthAdjust="spacing" textLength="52.0001" x="1113" y="276.6569">&#33719;&#21462;&#25968;&#25454;</text></g><!--link AdCard to ClickFlow--><g class="link" data-entity-1="AdCard" data-entity-2="ClickFlow" data-source-line="51" data-uid="lnk30" id="link_AdCard_ClickFlow"><path d="M733.9,502.71 C647.73,505.43 457.76,518.48 312,579.19 C287.25,589.49 267.2711,603.6152 249.7411,618.0552" fill="none" id="AdCard-to-ClickFlow" style="stroke:#454645;stroke-width:1;"/><polygon fill="#454645" points="245.11,621.87,254.5999,619.2352,248.9693,618.691,249.5135,613.0604,245.11,621.87" style="stroke:#454645;stroke-width:1;"/><text fill="#000000" font-family="sans-serif" font-size="13" lengthAdjust="spacing" textLength="52.0001" x="373" y="567.2569">&#28857;&#20987;&#22788;&#29702;</text></g><!--link AdCard to VideoModal--><g class="link" data-entity-1="AdCard" data-entity-2="VideoModal" data-source-line="52" data-uid="lnk31" id="link_AdCard_VideoModal"><path d="M733.84,503.58 C583.97,509.06 118.14,529.96 74,579.19 C40.38,616.68 50.4,648 74,692.48 C92.52,727.39 124.2577,749.4781 156.2877,765.4081" fill="none" id="AdCard-to-VideoModal" style="stroke:#454645;stroke-width:1;"/><polygon fill="#454645" points="161.66,768.08,155.3829,760.4907,157.1831,765.8534,151.8204,767.6537,161.66,768.08" style="stroke:#454645;stroke-width:1;"/><text fill="#000000" font-family="sans-serif" font-size="13" lengthAdjust="spacing" textLength="52.0001" x="75" y="649.8969">&#25773;&#25918;&#35270;&#39057;</text></g><!--link Context to AdOperator--><g class="link" data-entity-1="Context" data-entity-2="AdOperator" data-source-line="54" data-uid="lnk32" id="link_Context_AdOperator"><path d="M1143.56,377.44 C1098.59,390.51 1044.07,409.58 999,434.89 C978.39,446.47 962.3538,459.6627 947.5838,473.5327" fill="none" id="Context-to-AdOperator" style="stroke:#454645;stroke-width:1;"/><polygon fill="#454645" points="943.21,477.64,952.5089,474.3949,946.8548,474.2173,947.0325,468.5632,943.21,477.64" style="stroke:#454645;stroke-width:1;"/><text fill="#000000" font-family="sans-serif" font-size="13" lengthAdjust="spacing" textLength="52.0001" x="1048" y="422.9569">&#25171;&#24320;&#34920;&#21333;</text></g><!--link AdOperator to DynamicForm--><g class="link" data-entity-1="AdOperator" data-entity-2="DynamicForm" data-source-line="55" data-uid="lnk33" id="link_AdOperator_DynamicForm"><path d="M937.64,524.59 C957.3,551.23 986.2473,590.4623 1005.8773,617.0623" fill="none" id="AdOperator-to-DynamicForm" style="stroke:#454645;stroke-width:1;"/><polygon fill="#454645" points="1009.44,621.89,1007.3144,612.2733,1006.4711,617.8669,1000.8774,617.0235,1009.44,621.89" style="stroke:#454645;stroke-width:1;"/><text fill="#000000" font-family="sans-serif" font-size="13" lengthAdjust="spacing" textLength="52.0001" x="971" y="567.2569">&#28210;&#26579;&#34920;&#21333;</text></g><!--link AdOperator to FormConfig--><g class="link" data-entity-1="AdOperator" data-entity-2="FormConfig" data-source-line="56" data-uid="lnk34" id="link_AdOperator_FormConfig"><path d="M860.29,520.05 C854.47,521.54 848.64,522.95 843,524.19 C688.77,558.04 637.99,519.01 492,579.19 C467.57,589.26 448.0838,603.3267 430.9938,617.8367" fill="none" id="AdOperator-to-FormConfig" style="stroke:#454645;stroke-width:1;"/><polygon fill="#454645" points="426.42,621.72,435.8696,618.9442,430.2315,618.4839,430.6918,612.8458,426.42,621.72" style="stroke:#454645;stroke-width:1;"/><text fill="#000000" font-family="sans-serif" font-size="13" lengthAdjust="spacing" textLength="52.0001" x="563" y="567.2569">&#33719;&#21462;&#37197;&#32622;</text></g><!--link AdOperator to FormProcessor--><g class="link" data-entity-1="AdOperator" data-entity-2="FormProcessor" data-source-line="57" data-uid="lnk35" id="link_AdOperator_FormProcessor"><path d="M860.27,522.95 C819.52,537.51 764.92,558.04 718,579.19 C689.29,592.13 663.162,605.7671 639.142,618.9271" fill="none" id="AdOperator-to-FormProcessor" style="stroke:#454645;stroke-width:1;"/><polygon fill="#454645" points="633.88,621.81,643.695,620.9936,638.265,619.4076,639.8511,613.9776,633.88,621.81" style="stroke:#454645;stroke-width:1;"/><text fill="#000000" font-family="sans-serif" font-size="13" lengthAdjust="spacing" textLength="52.0001" x="773" y="567.2569">&#22788;&#29702;&#25968;&#25454;</text></g><!--link FormProcessor to Processor--><g class="link" data-entity-1="FormProcessor" data-entity-2="Processor" data-source-line="59" data-uid="lnk36" id="link_FormProcessor_Processor"><path d="M645.25,668.91 C667.24,677.67 693.47,686.92 718,692.48 C757.82,701.52 1045.58,711.65 1084,725.48 C1110.16,734.9 1131.2835,749.4918 1149.3635,764.3418" fill="none" id="FormProcessor-to-Processor" style="stroke:#454645;stroke-width:1;"/><polygon fill="#454645" points="1154,768.15,1149.584,759.3466,1150.1362,764.9765,1144.5064,765.5287,1154,768.15" style="stroke:#454645;stroke-width:1;"/><text fill="#000000" font-family="sans-serif" font-size="13" lengthAdjust="spacing" textLength="52.0001" x="1028" y="713.5469">&#31649;&#36947;&#22788;&#29702;</text></g><!--link FormProcessor to UploadHelper--><g class="link" data-entity-1="FormProcessor" data-entity-2="UploadHelper" data-source-line="60" data-uid="lnk37" id="link_FormProcessor_UploadHelper"><path d="M627.23,668.96 C653.77,685.7 692.59,707.29 730,717.48 C764.35,726.84 856.22,714.26 890,725.48 C916.95,734.44 938.7909,749.2872 957.2509,764.3472" fill="none" id="FormProcessor-to-UploadHelper" style="stroke:#454645;stroke-width:1;"/><polygon fill="#454645" points="961.9,768.14,957.4549,759.3513,958.0257,764.9793,952.3978,765.5502,961.9,768.14" style="stroke:#454645;stroke-width:1;"/><text fill="#000000" font-family="sans-serif" font-size="13" lengthAdjust="spacing" textLength="52.0001" x="731" y="713.5469">&#25209;&#37327;&#19978;&#20256;</text></g><!--link ClickFlow to ClickCount--><g class="link" data-entity-1="ClickFlow" data-entity-2="ClickCount" data-source-line="61" data-uid="lnk38" id="link_ClickFlow_ClickCount"><path d="M256.19,668.95 C272.6,678 292.63,687.46 312,692.48 C352.69,703.03 459.16,696.38 501,700.48 C550.23,705.31 561.7,713.4 611,717.48 C647.6,720.52 1236.86,714.81 1272,725.48 C1299.96,733.97 1322.7665,749.1197 1341.8365,764.3897" fill="none" id="ClickFlow-to-ClickCount" style="stroke:#454645;stroke-width:1;"/><polygon fill="#454645" points="1346.52,768.14,1341.9949,759.3922,1342.6171,765.0148,1336.9945,765.637,1346.52,768.14" style="stroke:#454645;stroke-width:1;"/><text fill="#000000" font-family="sans-serif" font-size="13" lengthAdjust="spacing" textLength="65.0001" x="612" y="713.5469">&#22686;&#21152;&#28857;&#20987;&#37327;</text></g><!--link ClickFlow to VideoModal--><g class="link" data-entity-1="ClickFlow" data-entity-2="VideoModal" data-source-line="62" data-uid="lnk39" id="link_ClickFlow_VideoModal"><path d="M219.84,668.88 C219.66,695.99 219.38,735.2101 219.2,762.2401" fill="none" id="ClickFlow-to-VideoModal" style="stroke:#454645;stroke-width:1;"/><polygon fill="#454645" points="219.16,768.24,223.2198,759.2668,219.1933,763.2401,215.22,759.2136,219.16,768.24" style="stroke:#454645;stroke-width:1;"/><text fill="#000000" font-family="sans-serif" font-size="13" lengthAdjust="spacing" textLength="52.0001" x="220" y="713.5469">&#24377;&#20986;&#35270;&#39057;</text></g><!--link ClickFlow to Navigate--><g class="link" data-entity-1="ClickFlow" data-entity-2="Navigate" data-source-line="63" data-uid="lnk40" id="link_ClickFlow_Navigate"><path d="M259.33,668.85 C275.28,677.23 294.12,686.22 312,692.48 C362.6,710.2 376.77,711.09 430,717.48 C488.27,724.48 637.67,709.01 694,725.48 C723.84,734.21 749.0109,749.5702 769.9809,764.7602" fill="none" id="ClickFlow-to-Navigate" style="stroke:#454645;stroke-width:1;"/><polygon fill="#454645" points="774.84,768.28,769.8978,759.7609,770.7907,765.3468,765.2048,766.2397,774.84,768.28" style="stroke:#454645;stroke-width:1;"/><text fill="#000000" font-family="sans-serif" font-size="13" lengthAdjust="spacing" textLength="65.0001" x="431" y="713.5469">&#37325;&#23450;&#21521;&#36339;&#36716;</text></g><!--link Context to GetAds--><g class="link" data-entity-1="Context" data-entity-2="GetAds" data-source-line="65" data-uid="lnk41" id="link_Context_GetAds"><path d="M1275.1,378.28 C1303.21,393.43 1340.42,414.31 1372,434.89 C1548.68,550 1741.2202,705.7236 1812.1402,764.1836" fill="none" id="Context-to-GetAds" style="stroke:#454645;stroke-width:1;"/><polygon fill="#454645" points="1816.77,768,1812.3695,759.1889,1812.9118,764.8197,1807.281,765.3619,1816.77,768" style="stroke:#454645;stroke-width:1;"/><text fill="#000000" font-family="sans-serif" font-size="13" lengthAdjust="spacing" textLength="52.0001" x="1562" y="567.2569">&#33719;&#21462;&#21015;&#34920;</text></g><!--link Context to CreateAd--><g class="link" data-entity-1="Context" data-entity-2="CreateAd" data-source-line="66" data-uid="lnk42" id="link_Context_CreateAd"><path d="M1255.71,378.21 C1334.65,453 1583.6644,688.9334 1662.8044,763.9134" fill="none" id="Context-to-CreateAd" style="stroke:#454645;stroke-width:1;"/><polygon fill="#454645" points="1667.16,768.04,1663.3777,758.9464,1663.5304,764.6011,1657.8756,764.7538,1667.16,768.04" style="stroke:#454645;stroke-width:1;"/><text fill="#000000" font-family="sans-serif" font-size="13" lengthAdjust="spacing" textLength="52.0001" x="1457" y="567.2569">&#21019;&#24314;&#24191;&#21578;</text></g><!--link DynamicForm to Upload--><g class="link" data-entity-1="DynamicForm" data-entity-2="Upload" data-source-line="67" data-uid="lnk43" id="link_DynamicForm_Upload"><path d="M1104.37,663.49 C1177.1,679.01 1288.51,701.78 1386,717.48 C1414.3,722.04 1423.48,714.61 1450,725.48 C1473.74,735.22 1492.1676,749.335 1508.1776,764.015" fill="none" id="DynamicForm-to-Upload" style="stroke:#454645;stroke-width:1;"/><polygon fill="#454645" points="1512.6,768.07,1508.6698,759.0393,1508.9147,764.6909,1503.2632,764.9358,1512.6,768.07" style="stroke:#454645;stroke-width:1;"/><text fill="#000000" font-family="sans-serif" font-size="13" lengthAdjust="spacing" textLength="52.0001" x="1387" y="713.5469">&#19978;&#20256;&#25991;&#20214;</text></g><!--SRC=[VPJDRjD04CVlVWhJUta03aXEK0WIb5p21N5OuiMrOdkjjHCQeKg0IjD62cq8AH98eQqgWGI4BwbjcXHU9kiaRy5-U1sxsCd1sftzpUpyPsTopL-7DbJhvcCC75_nggRZ0WnijO9i5pdGyTLdYaf_EL2f6XZL73sFB8JLkwQnxkUi6XId2EiGYvCrK6yecuhYKWzWG7M5xBQdNxu7_TEWlxKIXbk4VwYvxdNVstYa0a-bQtxCFr604lrwqlEATn7PaBko1GCvj9aI9I-Tia9fUXvWNUJ1b-dGVHTYu2CSWdAR1ZymTOXA5cX0GSVsQVYjXWDiiwBf1OHjxX1Qs7w9BiU76qjKoGn3a0SErvb1YmXLioBMF4ZhOvcLQi52JqKukSlWkV1xI0VMeWvycy4pmIMCAj3pma8dB4kygB0dfX6vY6scJArq9qkb0NtDiZJTqroJXxjD3RgNXbOm13wKN5xiKhkdvbe8w0NJYkWojwH6fSFcbzqeB2jndjaorPHzqygIuyhQ5Q7bXksul9vHgZ4FaQqmf3ave6uQL7skKSRYgTT2Yn9cJVyOw92hgwiteubLRwZ1-Q_WOrU9BEnOp20z93zxqvCBClnBEgqa4dOnPMQlpyZUGT3x4RG7z0RXoX7PcHIQlXoIveYSR4ttj-FCeXrPAc- -1M__p3vjpuyxYY9l40d9IMBORfUCdy-EFfDsJucTC30sjP6sT7BHef66-Qlsz7AG1aRFnMh2HKYzoLF6nzdfu6Z-eXlA_X-DloaNDfmtzoRdhSduK5bKBwebRq6MmN6Vj0v5IQd35JHHKZAcq4LOqYGdsuDIysQR3DwJ_SxixFViyckozcBueYAHdNUqe0b2ZXsxR-S36Sc6YJ_6GYwbXCJWe3aPdVu3]--></g></svg>