<svg xmlns="http://www.w3.org/2000/svg" xmlns:xlink="http://www.w3.org/1999/xlink" contentStyleType="text/css" data-diagram-type="DESCRIPTION" height="1691.6667px" preserveAspectRatio="none" style="width:1442px;height:1691px;" version="1.1" viewBox="0 0 1442 1691" width="1442.7083px" zoomAndPan="magnify"><title>Full-Stack Architecture Component Diagram</title><defs><linearGradient id="g17yzjp0yqyobo0" x1="50%" x2="50%" y1="0%" y2="100%"><stop offset="0%" stop-color="#FFFFFF"/><stop offset="100%" stop-color="#EEEEEE"/></linearGradient><linearGradient id="g17yzjp0yqyobo1" x1="50%" x2="50%" y1="0%" y2="100%"><stop offset="0%" stop-color="#F18E3E"/><stop offset="100%" stop-color="#EC7211"/></linearGradient></defs><g><g class="title" data-source-line="3"><rect fill="url(#g17yzjp0yqyobo0)" height="45.0846" rx="4.1667" ry="4.1667" style="stroke:#EEEEEE;stroke-width:1.0417;" width="539.8966" x="444.5327" y="5.2083"/><text fill="#EC7211" font-family="'Verdana'" font-size="20.8333" font-weight="bold" lengthAdjust="spacing" textLength="519.0633" x="454.9493" y="34.963">Full-Stack Architecture Component Diagram</text></g><!--cluster Browser--><g class="cluster" data-entity="Browser" data-source-line="5" data-uid="ent0002" id="cluster_Browser"><path d="M10.4167,62.793 L129.938,62.793 A6.25,6.25 0 0 1 134.1047,66.9596 L141.3964,94.0104 L654.1667,94.0104 A4.1667,4.1667 0 0 1 658.3333,98.1771 L658.3333,1061.9909 A4.1667,4.1667 0 0 1 654.1667,1066.1576 L10.4167,1066.1576 A4.1667,4.1667 0 0 1 6.25,1061.9909 L6.25,66.9596 A4.1667,4.1667 0 0 1 10.4167,62.793" fill="none" style="stroke:#4E5D6C;stroke-width:2.0833;"/><line style="stroke:#4E5D6C;stroke-width:2.0833;" x1="6.25" x2="141.3964" y1="94.0104" y2="94.0104"/><text fill="#4E5D6C" font-family="'Verdana'" font-size="12.5" font-weight="bold" lengthAdjust="spacing" textLength="111.188" x="15.625" y="81.6874">Browser (&#29992;&#25143;&#31471;)</text></g><!--cluster Frontend--><g class="cluster" data-entity="Frontend" data-source-line="6" data-uid="ent0003" id="cluster_Frontend"><rect fill="none" height="909.6146" rx="4.1667" ry="4.1667" style="stroke:#4E5D6C;stroke-width:1.0417;" width="585.4167" x="39.5833" y="123.2096"/><rect fill="none" height="10.4167" style="stroke:#4E5D6C;stroke-width:1.0417;" width="15.625" x="604.1667" y="128.418"/><rect fill="none" height="2.0833" style="stroke:#4E5D6C;stroke-width:1.0417;" width="4.1667" x="602.0833" y="130.5013"/><rect fill="none" height="2.0833" style="stroke:#4E5D6C;stroke-width:1.0417;" width="4.1667" x="602.0833" y="134.668"/><text fill="#FFFFFF" font-family="'Verdana'" font-size="12.5" font-weight="bold" lengthAdjust="spacing" textLength="108.7646" x="277.9093" y="153.5624">React Frontend</text></g><!--cluster Pages--><g class="cluster" data-entity="Pages" data-source-line="7" data-uid="ent0004" id="cluster_Pages"><path d="M138.5417,314.1784 L218.6892,314.1784 A6.25,6.25 0 0 1 222.8558,318.3451 L230.1475,345.3958 L289.5833,345.3958 A4.1667,4.1667 0 0 1 293.75,349.5625 L293.75,470.3971 A4.1667,4.1667 0 0 1 289.5833,474.5638 L138.5417,474.5638 A4.1667,4.1667 0 0 1 134.375,470.3971 L134.375,318.3451 A4.1667,4.1667 0 0 1 138.5417,314.1784" fill="#EEEEEE" style="stroke:#EC7211;stroke-width:2.0833;"/><line style="stroke:#EC7211;stroke-width:2.0833;" x1="134.375" x2="230.1475" y1="345.3958" y2="345.3958"/><text fill="#EC7211" font-family="'Verdana'" font-size="12.5" font-weight="bold" lengthAdjust="spacing" textLength="71.8142" x="143.75" y="333.0728">Pages &#39029;&#38754;</text></g><!--cluster Components--><g class="cluster" data-entity="Components" data-source-line="10" data-uid="ent0006" id="cluster_Components"><path d="M85.4167,619.3555 L181.7627,619.3555 A6.25,6.25 0 0 1 185.9294,623.5221 L193.221,650.5729 L406.25,650.5729 A4.1667,4.1667 0 0 1 410.4167,654.7396 L410.4167,775.5742 A4.1667,4.1667 0 0 1 406.25,779.7409 L85.4167,779.7409 A4.1667,4.1667 0 0 1 81.25,775.5742 L81.25,623.5221 A4.1667,4.1667 0 0 1 85.4167,619.3555" fill="#EEEEEE" style="stroke:#EC7211;stroke-width:2.0833;"/><line style="stroke:#EC7211;stroke-width:2.0833;" x1="81.25" x2="193.221" y1="650.5729" y2="650.5729"/><text fill="#EC7211" font-family="'Verdana'" font-size="12.5" font-weight="bold" lengthAdjust="spacing" textLength="88.0127" x="90.625" y="638.2499">Components</text></g><!--cluster Hooks--><g class="cluster" data-entity="Hooks" data-source-line="14" data-uid="ent0009" id="cluster_Hooks"><path d="M104.1667,830.7826 L155.8899,830.7826 A6.25,6.25 0 0 1 160.0566,834.9492 L167.3482,862 L432.2917,862 A4.1667,4.1667 0 0 1 436.4583,866.1667 L436.4583,986.9909 A4.1667,4.1667 0 0 1 432.2917,991.1576 L104.1667,991.1576 A4.1667,4.1667 0 0 1 100,986.9909 L100,834.9492 A4.1667,4.1667 0 0 1 104.1667,830.7826" fill="#EEEEEE" style="stroke:#EC7211;stroke-width:2.0833;"/><line style="stroke:#EC7211;stroke-width:2.0833;" x1="100" x2="167.3482" y1="862" y2="862"/><text fill="#EC7211" font-family="'Verdana'" font-size="12.5" font-weight="bold" lengthAdjust="spacing" textLength="43.3899" x="109.375" y="849.677">Hooks</text></g><!--cluster Context--><g class="cluster" data-entity="Context" data-source-line="23" data-uid="ent0015" id="cluster_Context"><rect fill="none" height="189.5521" rx="4.1667" ry="4.1667" style="stroke:#4E5D6C;stroke-width:1.0417;" width="247.9167" x="335.4167" y="285.0117"/><rect fill="none" height="10.4167" style="stroke:#4E5D6C;stroke-width:1.0417;" width="15.625" x="562.5" y="290.2201"/><rect fill="none" height="2.0833" style="stroke:#4E5D6C;stroke-width:1.0417;" width="4.1667" x="560.4167" y="292.3034"/><rect fill="none" height="2.0833" style="stroke:#4E5D6C;stroke-width:1.0417;" width="4.1667" x="560.4167" y="296.4701"/><text fill="#FFFFFF" font-family="'Verdana'" font-size="12.5" font-weight="bold" lengthAdjust="spacing" textLength="119.4397" x="399.6552" y="315.3645">Context Provider</text><text fill="#FFFFFF" font-family="'Verdana'" font-size="12.5" font-weight="bold" lengthAdjust="spacing" textLength="61.4262" x="428.6619" y="329.9153">(&#20840;&#23616;&#29366;&#24577;)</text></g><!--cluster Backend--><g class="cluster" data-entity="Backend" data-source-line="34" data-uid="ent0020" id="cluster_Backend"><path d="M695.8333,550.6055 L823.6003,550.6055 A6.25,6.25 0 0 1 827.7669,554.7721 L835.0586,581.8229 L1164.5833,581.8229 A4.1667,4.1667 0 0 1 1168.75,585.9896 L1168.75,1518.1784 A4.1667,4.1667 0 0 1 1164.5833,1522.3451 L695.8333,1522.3451 A4.1667,4.1667 0 0 1 691.6667,1518.1784 L691.6667,554.7721 A4.1667,4.1667 0 0 1 695.8333,550.6055" fill="none" style="stroke:#4E5D6C;stroke-width:2.0833;"/><line style="stroke:#4E5D6C;stroke-width:2.0833;" x1="691.6667" x2="835.0586" y1="581.8229" y2="581.8229"/><text fill="#4E5D6C" font-family="'Verdana'" font-size="12.5" font-weight="bold" lengthAdjust="spacing" textLength="119.4336" x="701.0417" y="569.4999">Express Backend</text></g><!--cluster Routes--><g class="cluster" data-entity="Routes" data-source-line="35" data-uid="ent0021" id="cluster_Routes"><rect fill="none" height="160.3854" rx="4.1667" ry="4.1667" style="stroke:#4E5D6C;stroke-width:1.0417;" width="300" x="733.3333" y="619.3555"/><rect fill="none" height="10.4167" style="stroke:#4E5D6C;stroke-width:1.0417;" width="15.625" x="1012.5" y="624.5638"/><rect fill="none" height="2.0833" style="stroke:#4E5D6C;stroke-width:1.0417;" width="4.1667" x="1010.4167" y="626.6471"/><rect fill="none" height="2.0833" style="stroke:#4E5D6C;stroke-width:1.0417;" width="4.1667" x="1010.4167" y="630.8138"/><text fill="#FFFFFF" font-family="'Verdana'" font-size="12.5" font-weight="bold" lengthAdjust="spacing" textLength="49.0051" x="858.8308" y="649.7083">Routes</text></g><!--cluster Controller--><g class="cluster" data-entity="Controller" data-source-line="39" data-uid="ent0024" id="cluster_Controller"><rect fill="none" height="160.375" rx="4.1667" ry="4.1667" style="stroke:#4E5D6C;stroke-width:1.0417;" width="323.9583" x="748.9583" y="830.7826"/><rect fill="none" height="10.4167" style="stroke:#4E5D6C;stroke-width:1.0417;" width="15.625" x="1052.0833" y="835.9909"/><rect fill="none" height="2.0833" style="stroke:#4E5D6C;stroke-width:1.0417;" width="4.1667" x="1050" y="838.0742"/><rect fill="none" height="2.0833" style="stroke:#4E5D6C;stroke-width:1.0417;" width="4.1667" x="1050" y="842.2409"/><text fill="#FFFFFF" font-family="'Verdana'" font-size="12.5" font-weight="bold" lengthAdjust="spacing" textLength="70.5994" x="875.6378" y="861.1353">Controller</text></g><!--cluster Services--><g class="cluster" data-entity="Services" data-source-line="43" data-uid="ent0027" id="cluster_Services"><rect fill="none" height="160.3854" rx="4.1667" ry="4.1667" style="stroke:#4E5D6C;stroke-width:1.0417;" width="167.7083" x="939.5833" y="1108.8659"/><rect fill="none" height="10.4167" style="stroke:#4E5D6C;stroke-width:1.0417;" width="15.625" x="1086.4583" y="1114.0742"/><rect fill="none" height="2.0833" style="stroke:#4E5D6C;stroke-width:1.0417;" width="4.1667" x="1084.375" y="1116.1576"/><rect fill="none" height="2.0833" style="stroke:#4E5D6C;stroke-width:1.0417;" width="4.1667" x="1084.375" y="1120.3242"/><text fill="#FFFFFF" font-family="'Verdana'" font-size="12.5" font-weight="bold" lengthAdjust="spacing" textLength="59.4055" x="993.7347" y="1139.2187">Services</text></g><!--cluster DataAccess--><g class="cluster" data-entity="DataAccess" data-source-line="46" data-uid="ent0029" id="cluster_DataAccess"><rect fill="none" height="160.3854" rx="4.1667" ry="4.1667" style="stroke:#4E5D6C;stroke-width:1.0417;" width="385.4167" x="733.3333" y="1320.293"/><rect fill="none" height="10.4167" style="stroke:#4E5D6C;stroke-width:1.0417;" width="15.625" x="1097.9167" y="1325.5013"/><rect fill="none" height="2.0833" style="stroke:#4E5D6C;stroke-width:1.0417;" width="4.1667" x="1095.8333" y="1327.5846"/><rect fill="none" height="2.0833" style="stroke:#4E5D6C;stroke-width:1.0417;" width="4.1667" x="1095.8333" y="1331.7513"/><text fill="#FFFFFF" font-family="'Verdana'" font-size="12.5" font-weight="bold" lengthAdjust="spacing" textLength="85.4248" x="883.3293" y="1350.6458">Data Access</text></g><!--entity API--><g class="entity" data-entity="API" data-source-line="27" data-uid="ent0017" id="entity_API"><rect fill="url(#g17yzjp0yqyobo1)" height="70.7682" rx="4.1667" ry="4.1667" style="stroke:#EC7211;stroke-width:1.0417;" width="123.5008" x="476.7917" y="691.2409"/><rect fill="url(#g17yzjp0yqyobo1)" height="10.4167" style="stroke:#EC7211;stroke-width:1.0417;" width="15.625" x="579.4591" y="696.4492"/><rect fill="url(#g17yzjp0yqyobo1)" height="2.0833" style="stroke:#EC7211;stroke-width:1.0417;" width="4.1667" x="577.3758" y="698.5326"/><rect fill="url(#g17yzjp0yqyobo1)" height="2.0833" style="stroke:#EC7211;stroke-width:1.0417;" width="4.1667" x="577.3758" y="702.6992"/><text fill="#FFFFFF" font-family="'Verdana'" font-size="12.5" lengthAdjust="spacing" textLength="58.5999" x="497.625" y="728.8853">API Layer</text><text fill="#FFFFFF" font-family="'Verdana'" font-size="12.5" lengthAdjust="spacing" textLength="71.4174" x="497.625" y="743.4361">(axios &#23553;&#35013;)</text></g><!--entity Home--><g class="entity" data-entity="Home" data-source-line="8" data-uid="ent0005" id="entity_Home"><rect fill="url(#g17yzjp0yqyobo1)" height="56.2174" rx="4.1667" ry="4.1667" style="stroke:#EC7211;stroke-width:1.0417;" width="88.9974" x="159.6667" y="393.3451"/><rect fill="url(#g17yzjp0yqyobo1)" height="10.4167" style="stroke:#EC7211;stroke-width:1.0417;" width="15.625" x="227.8307" y="398.5534"/><rect fill="url(#g17yzjp0yqyobo1)" height="2.0833" style="stroke:#EC7211;stroke-width:1.0417;" width="4.1667" x="225.7474" y="400.6367"/><rect fill="url(#g17yzjp0yqyobo1)" height="2.0833" style="stroke:#EC7211;stroke-width:1.0417;" width="4.1667" x="225.7474" y="404.8034"/><text fill="#FFFFFF" font-family="'Verdana'" font-size="12.5" lengthAdjust="spacing" textLength="36.9141" x="180.5" y="430.9895">Home</text></g><!--entity AdCard--><g class="entity" data-entity="AdCard" data-source-line="11" data-uid="ent0007" id="entity_AdCard"><rect fill="url(#g17yzjp0yqyobo1)" height="56.2174" rx="4.1667" ry="4.1667" style="stroke:#EC7211;stroke-width:1.0417;" width="98.0306" x="106.1979" y="698.5221"/><rect fill="url(#g17yzjp0yqyobo1)" height="10.4167" style="stroke:#EC7211;stroke-width:1.0417;" width="15.625" x="183.3952" y="703.7305"/><rect fill="url(#g17yzjp0yqyobo1)" height="2.0833" style="stroke:#EC7211;stroke-width:1.0417;" width="4.1667" x="181.3118" y="705.8138"/><rect fill="url(#g17yzjp0yqyobo1)" height="2.0833" style="stroke:#EC7211;stroke-width:1.0417;" width="4.1667" x="181.3118" y="709.9805"/><text fill="#FFFFFF" font-family="'Verdana'" font-size="12.5" lengthAdjust="spacing" textLength="45.9473" x="127.0313" y="736.1666">AdCard</text></g><!--entity AdOperator--><g class="entity" data-entity="AdOperator" data-source-line="12" data-uid="ent0008" id="entity_AdOperator"><rect fill="url(#g17yzjp0yqyobo1)" height="56.2174" rx="4.1667" ry="4.1667" style="stroke:#EC7211;stroke-width:1.0417;" width="124.5199" x="240.8646" y="698.5221"/><rect fill="url(#g17yzjp0yqyobo1)" height="10.4167" style="stroke:#EC7211;stroke-width:1.0417;" width="15.625" x="344.5511" y="703.7305"/><rect fill="url(#g17yzjp0yqyobo1)" height="2.0833" style="stroke:#EC7211;stroke-width:1.0417;" width="4.1667" x="342.4678" y="705.8138"/><rect fill="url(#g17yzjp0yqyobo1)" height="2.0833" style="stroke:#EC7211;stroke-width:1.0417;" width="4.1667" x="342.4678" y="709.9805"/><text fill="#FFFFFF" font-family="'Verdana'" font-size="12.5" lengthAdjust="spacing" textLength="72.4365" x="261.6979" y="736.1666">AdOperator</text></g><!--entity useAdClick--><g class="entity" data-entity="useAdClick" data-source-line="15" data-uid="ent0010" id="entity_useAdClick"><rect fill="url(#g17yzjp0yqyobo1)" height="56.2174" rx="4.1667" ry="4.1667" style="stroke:#EC7211;stroke-width:1.0417;" width="120.4793" x="125.1771" y="909.9492"/><rect fill="url(#g17yzjp0yqyobo1)" height="10.4167" style="stroke:#EC7211;stroke-width:1.0417;" width="15.625" x="224.8231" y="915.1576"/><rect fill="url(#g17yzjp0yqyobo1)" height="2.0833" style="stroke:#EC7211;stroke-width:1.0417;" width="4.1667" x="222.7397" y="917.2409"/><rect fill="url(#g17yzjp0yqyobo1)" height="2.0833" style="stroke:#EC7211;stroke-width:1.0417;" width="4.1667" x="222.7397" y="921.4076"/><text fill="#FFFFFF" font-family="'Verdana'" font-size="12.5" lengthAdjust="spacing" textLength="68.396" x="146.0104" y="947.5937">useAdClick</text></g><!--entity useVideo--><g class="entity" data-entity="useVideo" data-source-line="16" data-uid="ent0011" id="entity_useVideo"><rect fill="url(#g17yzjp0yqyobo1)" height="56.2174" rx="4.1667" ry="4.1667" style="stroke:#EC7211;stroke-width:1.0417;" width="109.5052" x="281.7083" y="909.9492"/><rect fill="url(#g17yzjp0yqyobo1)" height="10.4167" style="stroke:#EC7211;stroke-width:1.0417;" width="15.625" x="370.3802" y="915.1576"/><rect fill="url(#g17yzjp0yqyobo1)" height="2.0833" style="stroke:#EC7211;stroke-width:1.0417;" width="4.1667" x="368.2969" y="917.2409"/><rect fill="url(#g17yzjp0yqyobo1)" height="2.0833" style="stroke:#EC7211;stroke-width:1.0417;" width="4.1667" x="368.2969" y="921.4076"/><text fill="#FFFFFF" font-family="'Verdana'" font-size="12.5" lengthAdjust="spacing" textLength="57.4219" x="302.5417" y="947.5937">useVideo</text></g><!--entity AdOperator Context--><g class="entity" data-entity="AdOperator Context" data-source-line="24" data-uid="ent0016" id="entity_AdOperator Context"><rect fill="url(#g17yzjp0yqyobo1)" height="56.2174" rx="4.1667" ry="4.1667" style="stroke:#EC7211;stroke-width:1.0417;" width="177.6815" x="360.1146" y="393.3451"/><rect fill="url(#g17yzjp0yqyobo1)" height="10.4167" style="stroke:#EC7211;stroke-width:1.0417;" width="15.625" x="516.9627" y="398.5534"/><rect fill="url(#g17yzjp0yqyobo1)" height="2.0833" style="stroke:#EC7211;stroke-width:1.0417;" width="4.1667" x="514.8794" y="400.6367"/><rect fill="url(#g17yzjp0yqyobo1)" height="2.0833" style="stroke:#EC7211;stroke-width:1.0417;" width="4.1667" x="514.8794" y="404.8034"/><text fill="#FFFFFF" font-family="'Verdana'" font-size="12.5" lengthAdjust="spacing" textLength="125.5981" x="380.9479" y="430.9895">AdOperator Context</text></g><!--entity  /ads --><g class="entity" data-entity=" .ads " data-source-line="36" data-uid="ent0022" id="entity_ .ads "><rect fill="url(#g17yzjp0yqyobo1)" height="56.2174" rx="4.1667" ry="4.1667" style="stroke:#EC7211;stroke-width:1.0417;" width="86.3485" x="757.8646" y="698.5221"/><rect fill="url(#g17yzjp0yqyobo1)" height="10.4167" style="stroke:#EC7211;stroke-width:1.0417;" width="15.625" x="823.3797" y="703.7305"/><rect fill="url(#g17yzjp0yqyobo1)" height="2.0833" style="stroke:#EC7211;stroke-width:1.0417;" width="4.1667" x="821.2964" y="705.8138"/><rect fill="url(#g17yzjp0yqyobo1)" height="2.0833" style="stroke:#EC7211;stroke-width:1.0417;" width="4.1667" x="821.2964" y="709.9805"/><text fill="#FFFFFF" font-family="'Verdana'" font-size="12.5" lengthAdjust="spacing" textLength="26.3184" x="782.6713" y="736.1666">/ads</text></g><!--entity  /upload --><g class="entity" data-entity=" .upload " data-source-line="37" data-uid="ent0023" id="entity_ .upload "><rect fill="url(#g17yzjp0yqyobo1)" height="56.2174" rx="4.1667" ry="4.1667" style="stroke:#EC7211;stroke-width:1.0417;" width="106.8136" x="880.9688" y="698.5221"/><rect fill="url(#g17yzjp0yqyobo1)" height="10.4167" style="stroke:#EC7211;stroke-width:1.0417;" width="15.625" x="966.949" y="703.7305"/><rect fill="url(#g17yzjp0yqyobo1)" height="2.0833" style="stroke:#EC7211;stroke-width:1.0417;" width="4.1667" x="964.8656" y="705.8138"/><rect fill="url(#g17yzjp0yqyobo1)" height="2.0833" style="stroke:#EC7211;stroke-width:1.0417;" width="4.1667" x="964.8656" y="709.9805"/><text fill="#FFFFFF" font-family="'Verdana'" font-size="12.5" lengthAdjust="spacing" textLength="46.7834" x="905.7755" y="736.1666">/upload</text></g><!--entity  adCtrl --><g class="entity" data-entity=" adCtrl " data-source-line="40" data-uid="ent0025" id="entity_ adCtrl "><rect fill="url(#g17yzjp0yqyobo1)" height="56.2174" rx="4.1667" ry="4.1667" style="stroke:#EC7211;stroke-width:1.0417;" width="97.8658" x="773.9792" y="909.9492"/><rect fill="url(#g17yzjp0yqyobo1)" height="10.4167" style="stroke:#EC7211;stroke-width:1.0417;" width="15.625" x="851.0116" y="915.1576"/><rect fill="url(#g17yzjp0yqyobo1)" height="2.0833" style="stroke:#EC7211;stroke-width:1.0417;" width="4.1667" x="848.9283" y="917.2409"/><rect fill="url(#g17yzjp0yqyobo1)" height="2.0833" style="stroke:#EC7211;stroke-width:1.0417;" width="4.1667" x="848.9283" y="921.4076"/><text fill="#FFFFFF" font-family="'Verdana'" font-size="12.5" lengthAdjust="spacing" textLength="37.8357" x="798.7859" y="947.5937">adCtrl</text></g><!--entity  uploadCtl --><g class="entity" data-entity=" uploadCtl " data-source-line="41" data-uid="ent0026" id="entity_ uploadCtl "><rect fill="url(#g17yzjp0yqyobo1)" height="56.2174" rx="4.1667" ry="4.1667" style="stroke:#EC7211;stroke-width:1.0417;" width="119.7042" x="907.8542" y="909.9492"/><rect fill="url(#g17yzjp0yqyobo1)" height="10.4167" style="stroke:#EC7211;stroke-width:1.0417;" width="15.625" x="1006.725" y="915.1576"/><rect fill="url(#g17yzjp0yqyobo1)" height="2.0833" style="stroke:#EC7211;stroke-width:1.0417;" width="4.1667" x="1004.6417" y="917.2409"/><rect fill="url(#g17yzjp0yqyobo1)" height="2.0833" style="stroke:#EC7211;stroke-width:1.0417;" width="4.1667" x="1004.6417" y="921.4076"/><text fill="#FFFFFF" font-family="'Verdana'" font-size="12.5" lengthAdjust="spacing" textLength="59.6741" x="932.6609" y="947.5937">uploadCtl</text></g><!--entity  adSvc --><g class="entity" data-entity=" adSvc " data-source-line="44" data-uid="ent0028" id="entity_ adSvc "><rect fill="url(#g17yzjp0yqyobo1)" height="56.2174" rx="4.1667" ry="4.1667" style="stroke:#EC7211;stroke-width:1.0417;" width="97.8292" x="964.625" y="1188.0326"/><rect fill="url(#g17yzjp0yqyobo1)" height="10.4167" style="stroke:#EC7211;stroke-width:1.0417;" width="15.625" x="1041.6208" y="1193.2409"/><rect fill="url(#g17yzjp0yqyobo1)" height="2.0833" style="stroke:#EC7211;stroke-width:1.0417;" width="4.1667" x="1039.5375" y="1195.3242"/><rect fill="url(#g17yzjp0yqyobo1)" height="2.0833" style="stroke:#EC7211;stroke-width:1.0417;" width="4.1667" x="1039.5375" y="1199.4909"/><text fill="#FFFFFF" font-family="'Verdana'" font-size="12.5" lengthAdjust="spacing" textLength="37.7991" x="989.4317" y="1225.677">adSvc</text></g><!--entity  readFromJson --><g class="entity" data-entity=" readFromJson " data-source-line="47" data-uid="ent0030" id="entity_ readFromJson "><rect fill="url(#g17yzjp0yqyobo1)" height="56.2174" rx="4.1667" ry="4.1667" style="stroke:#EC7211;stroke-width:1.0417;" width="146.3765" x="758.0625" y="1399.4596"/><rect fill="url(#g17yzjp0yqyobo1)" height="10.4167" style="stroke:#EC7211;stroke-width:1.0417;" width="15.625" x="883.6057" y="1404.668"/><rect fill="url(#g17yzjp0yqyobo1)" height="2.0833" style="stroke:#EC7211;stroke-width:1.0417;" width="4.1667" x="881.5224" y="1406.7513"/><rect fill="url(#g17yzjp0yqyobo1)" height="2.0833" style="stroke:#EC7211;stroke-width:1.0417;" width="4.1667" x="881.5224" y="1410.918"/><text fill="#FFFFFF" font-family="'Verdana'" font-size="12.5" lengthAdjust="spacing" textLength="86.3464" x="782.8692" y="1437.1041">readFromJson</text></g><!--entity  writeToJson --><g class="entity" data-entity=" writeToJson " data-source-line="48" data-uid="ent0031" id="entity_ writeToJson "><rect fill="url(#g17yzjp0yqyobo1)" height="56.2174" rx="4.1667" ry="4.1667" style="stroke:#EC7211;stroke-width:1.0417;" width="132.5094" x="941.0417" y="1399.4596"/><rect fill="url(#g17yzjp0yqyobo1)" height="10.4167" style="stroke:#EC7211;stroke-width:1.0417;" width="15.625" x="1052.7177" y="1404.668"/><rect fill="url(#g17yzjp0yqyobo1)" height="2.0833" style="stroke:#EC7211;stroke-width:1.0417;" width="4.1667" x="1050.6344" y="1406.7513"/><rect fill="url(#g17yzjp0yqyobo1)" height="2.0833" style="stroke:#EC7211;stroke-width:1.0417;" width="4.1667" x="1050.6344" y="1410.918"/><text fill="#FFFFFF" font-family="'Verdana'" font-size="12.5" lengthAdjust="spacing" textLength="72.4792" x="965.8484" y="1437.1041">writeToJson</text></g><!--entity Database--><g class="entity" data-entity="Database" data-source-line="56" data-uid="ent0035" id="entity_Database"><path d="M1053.7083,1615.0534 C1053.7083,1604.6367 1110.4161,1604.6367 1110.4161,1604.6367 C1110.4161,1604.6367 1167.1239,1604.6367 1167.1239,1615.0534 L1167.1239,1663.9466 C1167.1239,1674.3633 1110.4161,1674.3633 1110.4161,1674.3633 C1110.4161,1674.3633 1053.7083,1674.3633 1053.7083,1663.9466 L1053.7083,1615.0534" fill="url(#g17yzjp0yqyobo1)" style="stroke:#EC7211;stroke-width:1.0417;"/><path d="M1053.7083,1615.0534 C1053.7083,1625.4701 1110.4161,1625.4701 1110.4161,1625.4701 C1110.4161,1625.4701 1167.1239,1625.4701 1167.1239,1615.0534" fill="none" style="stroke:#EC7211;stroke-width:1.0417;"/><text fill="#4E5D6C" font-family="'Verdana'" font-size="12.5" lengthAdjust="spacing" textLength="45.3979" x="1069.3333" y="1646.4478">db.json</text><text fill="#4E5D6C" font-family="'Verdana'" font-size="12.5" lengthAdjust="spacing" textLength="82.1655" x="1069.3333" y="1660.9986">(File System)</text></g><g class="entity" data-entity="GMN38" data-source-line="65" data-uid="ent0039" id="entity_GMN38"><path d="M674.9271,165.2826 L674.9271,206.8841 A4.1667,4.1667 0 0 0 679.0938,211.0508 L877.161,211.0508 A4.1667,4.1667 0 0 0 881.3276,206.8841 L881.3276,171.5326 L870.911,161.1159 L679.0938,161.1159 A4.1667,4.1667 0 0 0 674.9271,165.2826" fill="#0073BB" style="stroke:#005C96;stroke-width:1.0417;"/><path d="M870.911,161.1159 L870.911,169.4492 A2.0833,2.0833 0 0 0 872.9943,171.5326 L881.3276,171.5326 L870.911,161.1159" fill="#0073BB" style="stroke:#005C96;stroke-width:1.0417;"/><text fill="#FFFFFF" font-family="'Verdana'" font-size="12.5" lengthAdjust="spacing" textLength="152.7649" x="686.3854" y="183.1353">User interaction triggers</text><text fill="#FFFFFF" font-family="'Verdana'" font-size="12.5" lengthAdjust="spacing" textLength="174.1089" x="686.3854" y="197.6861">frontend logic and API calls.</text></g><g class="entity" data-entity="GMN41" data-source-line="70" data-uid="ent0042" id="entity_GMN41"><path d="M1197.0833,705.8242 L1197.0833,747.4258 A4.1667,4.1667 0 0 0 1201.25,751.5924 L1432.087,751.5924 A4.1667,4.1667 0 0 0 1436.2537,747.4258 L1436.2537,712.0742 L1425.837,701.6576 L1201.25,701.6576 A4.1667,4.1667 0 0 0 1197.0833,705.8242" fill="#0073BB" style="stroke:#005C96;stroke-width:1.0417;"/><path d="M1425.837,701.6576 L1425.837,709.9909 A2.0833,2.0833 0 0 0 1427.9203,712.0742 L1436.2537,712.0742 L1425.837,701.6576" fill="#0073BB" style="stroke:#005C96;stroke-width:1.0417;"/><text fill="#FFFFFF" font-family="'Verdana'" font-size="12.5" lengthAdjust="spacing" textLength="159.8694" x="1208.5417" y="723.677">Backend handles routing,</text><text fill="#FFFFFF" font-family="'Verdana'" font-size="12.5" lengthAdjust="spacing" textLength="206.8787" x="1208.5417" y="738.2278">business logic, and data storage.</text></g><!--link Pages to Components--><g class="link" data-entity-1="Pages" data-entity-2="Components" data-source-line="19" data-uid="lnk12" id="link_Pages_Components"><path d="M293.7569,432.514 C293.819,432.5883 293.8813,432.663 293.944,432.738 C294.1946,433.0381 294.4498,433.3436 294.7095,433.6544 C295.7482,434.8973 296.8581,436.2242 298.0308,437.6245 C300.3763,440.4251 302.9733,443.5195 305.7552,446.8242 C316.8828,460.043 330.9688,476.6263 343.75,491.2305 C360.5938,510.4701 371.8958,510.5742 382.2917,533.9388 C390.8568,553.1914 396.4049,574.5749 399.9023,595.8743 C400.7767,601.1992 401.5229,606.5188 402.156,611.7986 C402.3142,613.1185 402.4654,614.436 402.6098,615.7504 C402.682,616.4076 402.7525,617.0641 402.8213,617.7197 C402.8557,618.0475 402.8897,649.5926 402.9232,649.92" fill="none" id="Pages-Components" style="stroke:#EC7211;stroke-width:3.125;"/></g><!--link Pages to Hooks--><g class="link" data-entity-1="Pages" data-entity-2="Hooks" data-source-line="20" data-uid="lnk13" id="link_Pages_Hooks"><path d="M293.8992,436.9548 C293.9575,437.0467 294.016,437.1389 294.0748,437.2314 C294.1924,437.4164 294.3111,437.6026 294.4309,437.79 C294.91,438.5395 295.4065,439.3079 295.92,440.0933 C297.974,443.2346 300.2995,446.6462 302.8698,450.1979 C313.151,464.4049 327.349,480.8555 343.75,491.2305 C355.8958,498.9076 362.1458,493.1367 375,499.5638 C397.125,510.6159 407.6875,511.8242 418.75,533.9388 C438.6458,573.6836 441.1094,673.194 438.5404,763.3893 C437.8981,785.9382 436.9413,807.9048 435.8637,828.2098 C435.8301,828.8444 435.7963,860.6947 435.7624,861.326" fill="none" id="Pages-Hooks" style="stroke:#EC7211;stroke-width:3.125;"/></g><!--link Components to Hooks--><g class="link" data-entity-1="Components" data-entity-2="Hooks" data-source-line="21" data-uid="lnk14" id="link_Components_Hooks"><path d="M408.5812,779.9116 C408.6678,780.608 408.7549,781.3086 408.8426,782.0132 C409.0179,783.4223 409.1951,784.8475 409.3742,786.2872 C409.7324,789.1665 410.0978,792.1039 410.469,795.0878 C411.2113,801.0556 411.9768,807.2092 412.7539,813.4556 C413.1424,816.5788 413.5338,819.7252 413.9266,822.8832 C414.1231,824.4621 414.3199,826.044 414.5168,827.6274 C414.6153,828.419 414.7138,829.211 414.8124,830.0032 C414.837,830.2013 414.8617,830.3994 414.8863,830.5974 C414.8925,830.6469 414.8986,861.9139 414.9048,861.9634" fill="none" id="Components-Hooks" style="stroke:#EC7211;stroke-width:3.125;"/></g><!--link Frontend to Context--><g class="link" data-entity-1="Frontend" data-entity-2="Context" data-source-line="29" data-uid="lnk18" id="link_Frontend_Context"><path d="M606.2292,187.293 C605.7604,190.7721 598.1875,247.2982 590.6172,303.8112 C588.7246,317.9395 586.8322,332.0669 585.051,345.3645 C584.6057,348.6889 584.1673,351.9614 583.7377,355.1691 C583.6302,355.971 584.3531,350.5742 584.2468,351.3678" fill="none" id="Frontend-to-Context" style="stroke:#EC7211;stroke-width:3.125;"/><polygon fill="#EC7211" points="583.4171,357.5625,588.7915,348.8237,584.1085,352.4003,580.5319,347.7173,583.4171,357.5625" style="stroke:#EC7211;stroke-width:3.125;"/></g><!--link Context to API--><g class="link" data-entity-1="Context" data-entity-2="API" data-source-line="30" data-uid="lnk19" id="link_Context_API"><path d="M568.7143,474.7381 C568.5414,476.1756 568.3659,477.6343 568.188,479.1133 C567.8322,482.0712 567.4668,485.1099 567.0926,488.2205 C565.596,500.6631 563.9609,514.2572 562.2552,528.4388 C555.4323,585.1654 548.2249,645.0876 543.4853,684.5251" fill="none" id="Context-to-API" style="stroke:#EC7211;stroke-width:3.125;"/><polygon fill="#EC7211" points="542.7396,690.7305,547.9951,681.9196,543.361,685.5593,539.7213,680.9253,542.7396,690.7305" style="stroke:#EC7211;stroke-width:3.125;"/></g><!--link Routes to Controller--><g class="link" data-entity-1="Routes" data-entity-2="Controller" data-source-line="51" data-uid="lnk32" id="link_Routes_Controller"><path d="M1024.7148,780.0332 C1025.0426,781.9127 1025.4203,783.7837 1025.8537,785.6347 C1026.7205,789.3366 1027.8099,792.9583 1029.1667,796.4076 C1032.8958,805.8867 1039.5104,804.8346 1043.75,814.1159 C1045.166,817.2161 1046.4867,820.4001 1047.7183,823.6457 C1048.3341,825.2685 1048.9277,826.9068 1049.4998,828.5577 C1049.6428,828.9704 1049.7845,829.3839 1049.9249,829.7982 C1049.995,830.0053 1048.0795,824.2864 1048.149,824.4939" fill="none" id="Routes-to-Controller" style="stroke:#EC7211;stroke-width:3.125;"/><polygon fill="#EC7211" points="1050.1344,830.4201,1051.1071,820.2071,1048.4799,825.4816,1043.2054,822.8543,1050.1344,830.4201" style="stroke:#EC7211;stroke-width:3.125;"/></g><!--link Controller to Services--><g class="link" data-entity-1="Controller" data-entity-2="Services" data-source-line="52" data-uid="lnk33" id="link_Controller_Services"><path d="M1071.195,992.175 C1071.2483,992.6037 1071.3019,993.0342 1071.3558,993.4665 C1071.7863,996.9247 1072.2309,1000.4954 1072.6875,1004.1625 C1073.6007,1011.4967 1074.5619,1019.2166 1075.5552,1027.1936 C1077.5417,1043.1475 1079.6563,1060.1299 1081.7708,1077.112 C1082.8281,1085.603 1083.8854,1094.094 1084.9267,1102.4564 C1085.187,1104.5469 1084.674,1100.4274 1084.9321,1102.4999" fill="none" id="Controller-to-Services" style="stroke:#EC7211;stroke-width:3.125;"/><polygon fill="#EC7211" points="1085.7044,1108.702,1088.6807,1098.884,1085.0608,1103.5336,1080.4112,1099.9137,1085.7044,1108.702" style="stroke:#EC7211;stroke-width:3.125;"/></g><!--link Services to DataAccess--><g class="link" data-entity-1="Services" data-entity-2="DataAccess" data-source-line="53" data-uid="lnk34" id="link_Services_DataAccess"><path d="M1101.8203,1269.4291 C1101.8584,1270.1256 1101.8968,1270.8262 1101.9353,1271.5308 C1102.0124,1272.9401 1102.0904,1274.3653 1102.1692,1275.8051 C1102.3268,1278.6845 1102.4875,1281.6221 1102.6508,1284.6061 C1102.9774,1290.5741 1103.3141,1296.7279 1103.6559,1302.9745 C1103.8268,1306.0978 1103.999,1309.2443 1104.1718,1312.4024 C1104.2582,1313.9815 1104.3447,1315.5634 1104.4314,1317.1468 C1104.4747,1317.9384 1104.518,1318.7305 1104.5613,1319.5227 C1104.5722,1319.7208 1104.583,1319.9188 1104.5939,1320.1169 C1104.5966,1320.1664 1104.2578,1313.9753 1104.2605,1314.0248" fill="none" id="Services-to-DataAccess" style="stroke:#EC7211;stroke-width:3.125;"/><polygon fill="#EC7211" points="1104.602,1320.2655,1108.2503,1310.6768,1104.3174,1315.0649,1099.9294,1311.1321,1104.602,1320.2655" style="stroke:#EC7211;stroke-width:3.125;"/></g><!--link API to Routes--><g class="link" data-entity-1="API" data-entity-2="Routes" data-source-line="59" data-uid="lnk36" id="link_API_Routes"><path d="M566.9896,690.8138 C602.6354,649.1263 668.0625,582.5638 741.6667,555.7201 C851.2708,515.7409 916.8229,478.3763 1004.1667,555.7201 C1011.1042,561.8633 1015.903,575.0553 1019.1922,591.5216 C1020.8368,599.7548 1022.104,608.8065 1023.0725,618.205 C1023.1028,618.4987 1022.5057,612.5743 1022.5354,612.8686" fill="none" id="API-to-Routes" style="stroke:#EC7211;stroke-width:3.125;stroke-dasharray:7.2917,7.2917;"/><polygon fill="#EC7211" points="1023.1624,619.0871,1026.3675,609.3414,1022.6399,613.905,1018.0762,610.1774,1023.1624,619.0871" style="stroke:#EC7211;stroke-width:3.125;"/><text fill="#4E5D6C" font-family="'Verdana'" font-size="12.5" font-weight="bold" lengthAdjust="spacing" textLength="98.8708" x="763.5417" y="517.4166">HTTP Request</text></g><!--link DataAccess to Database--><g class="link" data-entity-1="DataAccess" data-entity-2="Database" data-source-line="61" data-uid="lnk37" id="link_DataAccess_Database"><path d="M1110.4167,1480.9453 C1110.4167,1481.2077 1110.4167,1481.4707 1110.4167,1481.7343 C1110.4167,1482.2616 1110.4167,1482.7911 1110.4167,1483.3229 C1110.4167,1487.5775 1110.4167,1491.9761 1110.4167,1496.4792 C1110.4167,1532.5039 1110.4167,1568.9648 1110.4167,1598.0638" fill="none" id="DataAccess-to-Database" style="stroke:#EC7211;stroke-width:3.125;"/><polygon fill="#EC7211" points="1110.4167,1604.3138,1114.5833,1594.9388,1110.4167,1599.1055,1106.25,1594.9388,1110.4167,1604.3138" style="stroke:#EC7211;stroke-width:3.125;"/><text fill="#4E5D6C" font-family="'Verdana'" font-size="12.5" lengthAdjust="spacing" textLength="69.7449" x="1116.6667" y="1565.1978">Read/Write</text></g><!--link Frontend to GMN38--><g class="link" data-entity-1="Frontend" data-entity-2="GMN38" data-source-line="65" data-uid="lnk40" id="link_Frontend_GMN38"><path d="M625.125,186.0846 C625.213,186.0846 625.3009,186.0846 625.3889,186.0846 C625.5648,186.0846 625.7407,186.0846 625.9166,186.0846 C626.6203,186.0846 627.3239,186.0846 628.0275,186.0846 C629.4348,186.0846 630.8421,186.0846 632.2493,186.0846 C635.0638,186.0846 637.8783,186.0846 640.6927,186.0846 C651.9505,186.0846 663.2083,186.0846 674.4688,186.0846" fill="none" id="Frontend-GMN38" style="stroke:#EC7211;stroke-width:3.125;stroke-dasharray:7.2917,7.2917;"/></g><!--link Backend to GMN41--><g class="link" data-entity-1="Backend" data-entity-2="GMN41" data-source-line="70" data-uid="lnk43" id="link_Backend_GMN41"><path d="M1168.8105,726.6263 C1169.181,726.6263 1169.5514,726.6263 1169.9219,726.6263 C1172.8854,726.6263 1175.849,726.6263 1178.8125,726.6263 C1184.7396,726.6263 1190.6667,726.6263 1196.5938,726.6263" fill="none" id="Backend-GMN41" style="stroke:#EC7211;stroke-width:3.125;stroke-dasharray:7.2917,7.2917;"/></g><!--SRC=[RLJ1JXin4BtxAwQv528IxXoGqb04LIKYGji3pS7iEXiNhvtQNW92aU20LFNSQmzjBqWzj3sq_I98-OkExVNk1hWaE-EPD-_DZFt4JbZEWCvCHsagCqQ8vLOms2w4w0mjJOwXfvC9joonXMRGL_bKIIOjR76QQPeJCiKWcZ5eFTDgPfY6bSMdwziFVnVVVwosW1g8_dC2a5JvhNr64mlRMadBPEeZe-530SPAf9ZN6Y2yWRill-y-V_LnmH6200vtLCv6tfWlvLLaZS-gpJgrb_QfJaUrkJTbcbgb7yFRKUeuGFcl6gKm3844Juv73TThdZ8LSVnVuDtfDAWi-pskTpN8BldzJwEBVTUnKmi3hKwmdduhLswkhcz-NIm-_hczk5mjbOUWyuSwurbJx_qQlS4klAHd7foUScNWvkVblszN0HnFwwngWftEPeGkzGGApXyovcJUM9xdfrFD32uBEk8wbDyF5aSLbeKvXCzIro6iqzJ0A1h5L2YQUdjE7ZHDAo6OhjeJp0g9fdshHOKLeFfMF8OsPFg49oMZQ3IGXYV9OsbRr5Be9HWRCfqTp2fNCvfYH_CNHicAoqpZRJnGbS_lLjc8sFMWXa1JcZkBxF2a8khyTMqtb1Ij8sfmAkbHzntMmRblStmLXcV6idorekk227aAkpXRFQOEZUAyiAZ4zu8hQOZRdQxcsSHsDoFB3MYtTmuE1h3FtXVCs7QRa8RwICXJsC0Wcgw_SQ9TgRsfmwLY0uOJDGDylo2dN09t5AWl2cEXPaGgoy0N1ZMkzXA5lt9lKJFSObJ6j6lAEAwlK1bFl1Wd8A52c2vn1mwMt0ClznJpuyPEC5EWKes2kSpMyEYeC5mwUHvwpMExHeF1MuXNe8R_3m00]--></g></svg>